<svg width="70" height="86" viewBox="0 0 70 86" fill="none" xmlns="http://www.w3.org/2000/svg">
<g id="Group">
<path id="Vector" d="M26.1227 0L17.4339 8.56758C17.4339 8.56758 16.0894 9.89337 14.7322 11.2317C14.2248 11.732 13.7047 12.2448 13.2354 12.7075L20.9729 18.2483C20.9856 18.2608 20.9982 18.2608 21.0109 18.2608H30.8033C30.8286 18.2608 30.8667 18.2859 30.8667 18.3109L33.8856 27.4913C33.8856 27.5038 33.8982 27.5163 33.9109 27.5288L41.8387 33.2072C41.864 33.2322 41.8767 33.2572 41.864 33.2823L38.8325 42.4627C38.8325 42.4752 38.8325 42.4877 38.8325 42.5127L41.864 51.6932C41.8767 51.7182 41.864 51.7557 41.8387 51.7682L33.9109 57.4466C33.8982 57.4591 33.8856 57.4716 33.8856 57.4841L30.854 66.6646C30.8413 66.6896 30.8159 66.7146 30.7906 66.7146H20.9982C20.9856 66.7146 20.9729 66.7146 20.9602 66.7271L13.1593 72.3179L26.0974 85.0755C26.0974 85.0755 31.1838 80.06 37.8684 73.4686C50.6416 60.8736 69.2369 42.5378 69.2369 42.5378L26.1227 0Z" fill="#820000"/>
<path id="Vector_2" d="M25.1587 37.5598C25.1714 37.5473 25.1714 37.5098 25.1587 37.4973L21.8734 34.2579C21.8608 34.2453 21.8227 34.2453 21.81 34.2579L10.1277 45.7772C10.1023 45.7897 10.077 45.7897 10.0643 45.7772L4.25485 40.0488C4.22949 40.0363 4.20412 40.0363 4.19143 40.0488L0.906181 43.2882C0.893496 43.3007 0.893496 43.3382 0.906181 43.3507L10.0643 52.3811C10.077 52.3936 10.115 52.3936 10.1277 52.3811L25.1587 37.5598Z" fill="#820000"/>
</g>
</svg>
