<svg xmlns="http://www.w3.org/2000/svg" width="65" height="87" viewBox="0 0 65 87" fill="none">
  <g clip-path="url(#clip0_0_715)">
    <path d="M64.754 55.693C64.7499 55.4316 64.7458 55.1722 64.7416 54.9108C64.7581 54.5238 64.7623 54.1306 64.754 53.7313C64.7169 51.7017 64.7004 49.67 64.6963 47.6383C64.6984 43.9804 64.7293 40.3205 64.7293 36.6647V34.703C64.7293 30.2197 64.7252 25.7364 64.7293 21.2531C64.7334 19.3264 64.7375 12.375 64.7437 10.4483C64.7437 10.3825 64.7416 10.3186 64.7396 10.261C64.7396 9.67023 64.7416 9.0774 64.7437 8.48663C64.7458 7.82175 64.5912 7.47181 63.9295 7.19186C61.2457 6.05972 58.5413 4.98521 55.7791 4.05891C46.1549 0.827145 36.2999 -0.525255 26.1686 0.524552C17.6658 1.40557 9.59784 3.87776 1.79172 7.28449C1.13004 7.57473 1.21662 8.02965 1.21662 8.52779V10.0469C1.20837 10.189 1.21662 10.3372 1.21662 10.4895C1.21662 23.4124 1.21867 41.3621 1.21455 54.2871V56.2488C1.21249 57.4859 1.30319 58.7127 1.53611 59.9272C2.40598 64.4476 5.01558 67.8214 8.55689 70.5838C12.2322 73.4512 16.4166 75.4541 20.5145 77.599C21.8543 78.3009 23.1859 79.0131 24.4825 79.7768C24.5196 79.7974 24.5587 79.82 24.5958 79.8427C25.3379 80.2811 26.0676 80.7402 26.7787 81.2239C26.8179 81.2486 26.8571 81.2754 26.8962 81.3021C27.6692 81.8291 28.4195 82.3849 29.1389 82.9818C29.1781 83.0148 29.2193 83.0477 29.2585 83.0806C29.5491 83.3256 29.8356 83.5746 30.1139 83.834C30.1222 83.8402 30.1284 83.8484 30.1366 83.8546C30.9838 84.6368 31.7815 85.4849 32.5153 86.4194C32.8884 86.8949 33.1193 86.7776 33.4532 86.3824C34.4468 85.2008 35.498 84.0728 36.6771 83.0744C36.7163 83.0395 36.7554 83.0065 36.7946 82.9736C36.9925 82.8068 37.1945 82.6442 37.4006 82.4857C37.9468 82.0658 38.5055 81.6644 39.0744 81.2815C39.1115 81.2548 39.1506 81.2301 39.1898 81.2033C41.7685 79.4722 44.5409 78.0642 47.299 76.6336C50.8588 74.7851 54.4249 72.9489 57.591 70.4418C62.3526 66.6707 64.8694 61.8724 64.754 55.693ZM56.6737 68.4677C53.6333 70.9728 50.1662 72.774 46.6971 74.5751C44.8996 75.5076 43.0939 76.4257 41.3315 77.4199C41.2944 77.4405 41.2552 77.4631 41.2181 77.4858C40.5276 77.8769 39.8432 78.2803 39.1692 78.7023L39.0517 78.7764C38.4374 79.1593 37.8355 79.5586 37.2398 79.9765C37.0914 80.0815 36.943 80.1885 36.7946 80.2955L36.6771 80.382C35.8794 80.9707 35.1126 81.5965 34.3932 82.2737C34.3767 82.2902 34.3602 82.3046 34.3437 82.3211C34.3128 82.3478 34.2839 82.3766 34.2551 82.4075C34.2159 82.4446 34.1767 82.4837 34.1376 82.5228C33.8923 82.7574 33.6532 83.0024 33.4202 83.2535C33.1028 83.6014 32.9297 83.692 32.5545 83.2926C32.4803 83.2124 32.404 83.1341 32.3278 83.0559C32.3216 83.0497 32.3154 83.0415 32.3071 83.0353C32.1773 82.8974 32.0454 82.7657 31.9093 82.6339C31.8702 82.5948 31.831 82.5578 31.7918 82.5207C30.9859 81.7385 30.1304 81.0263 29.242 80.3655C29.2028 80.3367 29.1637 80.3079 29.1245 80.2791C28.4051 79.7501 27.663 79.2498 26.9045 78.7764C26.8653 78.7517 26.8262 78.727 26.787 78.7044C26.0717 78.2556 25.3441 77.8295 24.6082 77.4178C24.569 77.3952 24.5278 77.3726 24.4887 77.352C23.6456 76.8785 22.7922 76.4236 21.9388 75.9707C18.2161 73.9967 14.3883 72.2058 10.9459 69.7419C7.63961 67.3747 4.91664 64.5546 3.83034 60.483C3.47579 59.1512 3.30677 57.7967 3.30677 56.4176V54.4559C3.30677 41.8993 3.30677 29.3387 3.30059 16.7801C3.30265 16.2593 3.34799 15.897 3.96226 15.6356C14.2955 11.247 24.9978 8.76863 36.2937 9.35529C45.2706 9.82256 53.792 12.163 62.0331 15.6562C62.5546 15.8765 62.6288 16.1832 62.6391 16.5887V16.671C62.6371 19.9357 62.635 23.1983 62.635 26.463C62.6371 29.3675 62.6371 32.2699 62.6371 35.1744V35.4152C62.635 39.4868 62.6103 43.5584 62.6164 47.6321C62.6123 50.0158 62.6185 52.4015 62.6453 54.7873C62.6474 55.1434 62.6515 55.5015 62.6556 55.8577C62.7236 61.0758 60.65 65.1948 56.6737 68.4677Z" fill="#F2DEBA"/>
    <path d="M34.1231 59.7788L31.7712 59.7809C31.7712 59.7809 31.763 59.9826 31.7671 60.6331C31.7918 65.7462 31.7918 70.8553 31.7939 75.9685C31.7959 77.5 31.8001 79.0335 31.7959 80.565C31.8351 80.6021 31.8743 80.6391 31.9134 80.6782C32.1299 80.8902 32.3442 81.1084 32.5524 81.3307C32.9276 81.7301 33.1007 81.6395 33.4182 81.2916C33.649 81.0426 33.8861 80.7997 34.1273 80.5671V80.4662C34.1231 77.854 34.1334 75.2419 34.1334 72.6276H34.1293C34.1293 68.8319 34.1231 59.7788 34.1231 59.7788Z" fill="#F2DEBA"/>
    <path d="M39.0187 61.1625C39.0187 60.2917 39.0187 59.7812 39.0187 59.7812H36.6565C36.6565 59.7812 36.6483 59.8698 36.6606 60.7755C36.6627 60.9072 36.6647 61.0348 36.6647 61.1666V61.181C36.6812 62.2164 36.6895 63.2518 36.6915 64.2892V64.4086C36.7018 67.0929 36.6854 69.7771 36.6854 72.4613H36.6751V78.4225C36.7142 78.3917 36.7534 78.3628 36.7925 78.334C36.9039 78.2537 37.0152 78.1735 37.1285 78.0932C37.1636 78.0664 37.2007 78.0417 37.2378 78.015C37.8314 77.5992 38.4313 77.2019 39.0435 76.819V76.7593C39.027 71.4732 39.0208 64.1925 39.0187 61.1769V61.1625Z" fill="#F2DEBA"/>
    <path d="M26.7849 59.7812C26.7849 59.7812 26.7849 60.3041 26.787 61.2078V61.2222C26.7911 64.0937 26.7973 70.7734 26.789 76.7902C26.8282 76.8128 26.8674 76.8375 26.9065 76.8622C27.5641 77.2739 28.2093 77.7021 28.838 78.1549C28.9328 78.2229 29.0276 78.2908 29.1204 78.3629C29.1204 76.397 29.1286 74.4333 29.1286 72.4675C29.1265 69.7997 29.1121 67.132 29.1224 64.4642V64.3654C29.1245 63.3177 29.1307 62.272 29.143 61.2263V61.2119C29.1451 61.0369 29.1472 60.864 29.1492 60.689C29.1616 59.8224 29.1575 59.7812 29.1575 59.7812H26.7849Z" fill="#F2DEBA"/>
    <path d="M41.4655 56.4751H34.3808H31.5774H24.3073C24.6164 57.2038 24.7463 57.8398 25.6553 57.8337C27.5352 57.8213 29.5079 57.8193 31.462 57.8234H31.5795C32.4824 57.8234 33.379 57.8275 34.2592 57.8316H34.3767C36.2834 57.8378 38.1138 57.8501 39.7628 57.8625C40.777 57.8687 41.2016 57.457 41.4655 56.4751Z" fill="#F2DEBA"/>
    <path d="M33.0677 50.1557L33.0657 50.1515V43.1713H32.8431V45.1927H31.9175C31.8495 45.1927 31.7938 45.2483 31.7938 45.3162V45.3862C31.7938 45.4542 31.8495 45.5097 31.9175 45.5097H32.8431V50.1557H33.0677ZM33.0677 50.1557L33.0657 50.1515V43.1713H32.8431V45.1927H31.9175C31.8495 45.1927 31.7938 45.2483 31.7938 45.3162V45.3862C31.7938 45.4542 31.8495 45.5097 31.9175 45.5097H32.8431V50.1557H33.0677ZM33.0677 50.1557L33.0657 50.1515V43.1713H32.8431V45.1927H31.9175C31.8495 45.1927 31.7938 45.2483 31.7938 45.3162V45.3862C31.7938 45.4542 31.8495 45.5097 31.9175 45.5097H32.8431V50.1557H33.0677ZM33.8778 44.9745V48.4471H34.1149V44.9745H33.8778ZM33.8778 44.9745V48.4471H34.1149V44.9745H33.8778ZM33.0677 50.1557L33.0657 50.1515V43.1713H32.8431V45.1927H31.9175C31.8495 45.1927 31.7938 45.2483 31.7938 45.3162V45.3862C31.7938 45.4542 31.8495 45.5097 31.9175 45.5097H32.8431V50.1557H33.0677ZM33.0677 50.1557L33.0657 50.1515V43.1713H32.8431V45.1927H31.9175C31.8495 45.1927 31.7938 45.2483 31.7938 45.3162V45.3862C31.7938 45.4542 31.8495 45.5097 31.9175 45.5097H32.8431V50.1557H33.0677ZM33.8778 44.9745V48.4471H34.1149V44.9745H33.8778ZM33.8778 44.9745V48.4471H34.1149V44.9745H33.8778ZM33.0657 43.1713H32.8431V45.1927H31.9175C31.8495 45.1927 31.7938 45.2483 31.7938 45.3162V45.3862C31.7938 45.4542 31.8495 45.5097 31.9175 45.5097H32.8431V50.1557H33.0677L33.0657 50.1515V43.1713ZM61.0354 40.6086C61.0354 32.9964 61.0313 25.3822 61.0436 17.7701C61.0457 17.2452 60.9694 16.9179 60.3964 16.6812C53.1757 13.717 45.4561 11.5886 37.4294 11.004C26.3438 10.2012 15.8044 12.4758 5.60302 16.6627C5.07945 16.8767 4.89188 17.134 4.89394 17.7104C4.91249 30.7754 4.90218 43.8424 4.91867 56.9074C4.92073 59.7418 5.80709 62.3108 7.5963 64.5195C8.57335 65.7257 9.66172 66.7673 10.8325 67.6977C10.8696 67.7266 10.9088 67.7533 10.9459 67.7801C13.8503 69.8591 17.0288 71.4585 20.1867 73.0929C20.7721 73.3976 21.3575 73.7002 21.9388 74.0089C22.3201 74.2107 22.6994 74.4124 23.0787 74.6162C23.5425 74.8673 24.0042 75.1184 24.4639 75.3737C24.4474 73.7948 24.4412 72.2181 24.4495 70.6454C24.4618 68.4367 24.4783 66.228 24.2969 64.0275V64.0255C24.2639 63.6199 24.2227 63.2186 24.1753 62.8151C24.1114 62.2799 24.0393 61.7262 23.9486 61.1683C23.9486 61.1642 23.9465 61.158 23.9465 61.1539C23.6167 59.1017 23.0457 56.9815 21.7574 55.4006C21.1163 54.6142 20.298 54.0029 19.5044 53.3792C19.5044 53.3792 22.7427 53.3771 26.6179 53.3771H31.5898C32.5112 53.3751 33.4078 53.3751 34.2489 53.3751H37.0955C37.6974 53.3751 38.4704 53.3771 39.3093 53.3771C42.3374 53.3833 46.2435 53.3956 46.2435 53.3956C45.2356 54.2746 44.2214 54.8901 43.5061 56.0531C42.8548 57.1091 42.4219 58.2865 42.1045 59.4825C41.9767 59.9621 41.8674 60.4458 41.7726 60.9316C41.7582 61.0057 41.7437 61.0778 41.7314 61.1539C41.7314 61.158 41.7293 61.1642 41.7293 61.1683C41.5561 62.1091 41.4345 63.0621 41.35 64.0193V64.0296C41.1666 66.0386 41.1356 68.0683 41.0903 70.0711C41.047 71.8887 41.0511 73.7084 41.1192 75.526C41.1192 75.5425 41.1212 75.561 41.1212 75.5775C41.1604 75.5548 41.1975 75.5342 41.2367 75.5116C41.7685 75.2111 42.3044 74.9167 42.8424 74.6265C43.8071 74.1077 44.7821 73.6034 45.7571 73.0991C46.0704 72.9385 46.3837 72.7759 46.697 72.6133C49.5684 71.123 52.4398 69.6306 55.0679 67.7389C55.3442 67.5248 55.6162 67.3025 55.8863 67.0761C59.374 64.1407 61.1632 60.4705 61.0601 55.8349C60.9488 50.7608 61.0333 45.6847 61.0354 40.6086ZM31.9629 16.4362C32.4102 15.6643 33.5274 15.6643 33.9726 16.4383C34.7353 17.7598 35.4856 19.0566 36.2586 20.3946C35.2589 20.3946 34.356 20.4111 33.4532 20.3843C33.1151 20.3761 32.9131 20.4708 32.7503 20.7713C32.3112 21.5803 31.8433 22.3707 31.3404 23.2497C32.5936 23.2497 36.036 23.2456 36.5843 23.2497C37.6727 23.26 38.089 23.5173 38.6106 24.4271C38.9094 24.95 39.2001 25.4852 39.5278 26.0595H26.4015C28.2629 22.8401 30.0995 19.6598 31.9629 16.4362ZM56.5809 58.8485C56.1604 60.5302 55.0494 62.0267 53.5611 62.918C51.1371 64.3692 47.7668 64.1654 45.7839 62.0967C45.7385 62.0535 45.6973 62.0102 45.6581 61.965C45.6416 61.9506 45.6272 61.9341 45.6148 61.9197C45.419 61.6974 45.2417 61.4606 45.0872 61.2095C45.0789 61.1972 45.0707 61.1848 45.0624 61.1704C44.9573 61.0016 44.8604 60.8246 44.7738 60.6455C43.9246 58.8629 43.9369 56.366 46.3198 54.4722C47.4515 53.5747 49.5581 53.301 50.7908 53.9535C51.8832 54.5319 52.6871 55.6291 52.8933 56.8518C53.0334 57.6752 52.8809 58.5562 52.4212 59.256C51.9636 59.9559 51.1907 60.4541 50.3579 60.5302C49.5231 60.6064 48.6491 60.2359 48.1688 59.5504C47.9647 59.2602 47.7874 58.9226 47.6823 58.5809C47.6267 58.3956 47.5442 58.1054 47.5442 58.1054L49.1108 57.5167C49.1108 57.5167 49.4221 58.3853 49.7539 58.5027C50.1909 58.657 50.5805 58.5459 50.8093 58.3668C51.069 58.163 51.1247 57.8831 51.1061 57.5125C51.0608 56.6521 50.4094 55.8349 49.5808 55.592C48.7521 55.3491 47.8204 55.6249 47.1794 56.2034C46.1899 57.0967 45.821 58.5953 46.3961 59.8098C46.8784 60.8328 47.8926 61.5306 48.9562 61.8414C49.7086 62.0617 50.5249 62.1049 51.2855 61.897C51.5019 61.8394 51.7142 61.7632 51.9203 61.6727C53.9136 60.7793 55.1422 58.2433 54.5526 56.226C53.7549 53.4903 51.8894 52.0844 48.9315 52.0741H48.8057C45.6458 52.0679 42.4837 52.0659 39.3238 52.0638C35.0837 52.0618 30.8436 52.0618 26.6035 52.0556C23.4167 52.0535 16.5093 52.0659 16.5093 52.0659C13.7781 52.0597 10.7645 54.5875 11.2881 58.0477C11.6715 60.5817 13.9822 62.389 16.5547 61.9588C16.6907 61.9361 16.8268 61.9053 16.9608 61.8703C17.7791 61.65 18.5377 61.1683 19.0344 60.4808C20.2094 58.8567 19.7208 56.3639 17.742 55.6435C17.0226 55.382 16.1651 55.4562 15.5529 55.9172C14.9386 56.3763 14.6253 57.2326 14.8789 57.9551C14.9489 58.1568 15.0623 58.3483 15.2293 58.478C15.623 58.7826 16.1259 58.5479 16.3795 58.1898C16.5753 57.9139 16.6619 57.7101 16.6928 57.671C16.699 57.6628 16.7072 57.6587 16.7155 57.6628L18.2738 58.2124C18.2862 58.2165 18.2903 58.2268 18.2924 58.2392C18.3027 58.3153 18.2408 58.5459 18.2058 58.6673C17.843 59.89 16.5052 60.6599 15.2499 60.4644C14.446 60.3388 13.7122 59.818 13.3288 59.0996C13.0793 58.6282 12.9783 58.093 12.9742 57.5578C12.9619 56.1396 13.673 54.818 14.9057 54.112C16.2537 53.3401 17.8018 53.4862 19.0839 54.2334C19.2756 54.3446 19.4611 54.4702 19.6404 54.604C21.1988 55.7629 21.7924 57.354 21.5121 59.1593C21.3967 59.9003 21.1741 60.5735 20.8422 61.1683H20.8401V61.1704C20.6505 61.51 20.4237 61.8209 20.1578 62.1029C20.1578 62.1029 20.1578 62.1029 20.1578 62.1049C20.1187 62.1461 20.0795 62.1873 20.0403 62.2264C19.5044 62.7616 18.8242 63.1836 17.9955 63.4697C15.8415 64.2107 13.8255 63.8423 11.9044 62.7163C8.4002 60.1247 8.62488 55.6352 10.3749 53.3751C11.9147 51.3845 13.9162 50.1701 16.4908 50.1248C16.8969 50.1186 23.594 50.1412 28.4999 50.1515C29.4048 50.1536 30.2479 50.1556 30.9817 50.1577L30.9776 48.3463L31.9072 48.3504C31.9752 48.3504 32.0309 48.2948 32.0309 48.2269V48.1795C32.0309 48.1116 31.9752 48.056 31.9072 48.056H30.9817V43.8012C30.9817 43.4492 30.6952 43.1631 30.3406 43.161C29.9366 43.161 29.547 43.159 29.1698 43.1569C29.0729 43.1569 28.9884 43.161 28.9163 43.1713C25.7398 43.1755 23.9197 43.1734 20.0651 43.1734H18.5191C17.6266 43.1734 17.0679 42.208 17.5132 41.4361C17.7008 41.1129 17.8842 40.7918 18.0677 40.4707C18.2037 40.2298 18.4181 40.306 18.6098 40.306C24.0516 40.3019 29.4934 40.3039 34.9353 40.3039H44.4646C43.9163 39.3612 43.4093 38.474 42.8836 37.5971C42.7558 37.385 42.5064 37.49 42.3147 37.49C35.7763 37.4859 29.2399 37.488 22.7015 37.488H19.7992C20.4753 36.3105 21.0978 35.2216 21.7265 34.1348C22.6438 32.5456 23.5713 30.9627 24.4762 29.3674C24.6494 29.0648 24.8225 28.9207 25.2039 28.9207C30.386 28.9372 35.5681 28.9351 40.7502 28.9269C41.0594 28.9248 41.2552 28.9928 41.4119 29.2851C41.787 29.989 42.1828 30.6827 42.6095 31.3538C42.898 31.8087 42.6734 31.8046 42.3085 31.8025C40.34 31.7922 38.3714 31.7984 36.4008 31.7964C33.2079 31.7964 30.0129 31.8005 26.8179 31.7861C26.4943 31.7861 26.319 31.8828 26.1644 32.1648C25.7316 32.9594 25.2678 33.7375 24.8164 34.5176C24.9462 34.6926 25.1049 34.6103 25.2369 34.6103C31.4393 34.6144 37.6438 34.6206 43.8462 34.6041C44.308 34.602 44.5636 34.7214 44.8006 35.1372C46.2415 37.6856 46.9196 38.8898 48.3852 41.4237C48.3873 41.4258 48.3873 41.4258 48.3873 41.4278C48.8346 42.2018 48.2801 43.1693 47.3855 43.1693H45.2253C42.4837 43.1693 38.9507 43.1755 35.566 43.1734C35.2135 43.1734 34.927 43.4595 34.927 43.8136V50.1536C37.2934 50.1515 39.5917 50.1474 40.5667 50.1412C42.9558 50.1248 48.7954 50.133 49.2633 50.1248C52.0131 50.0815 54.598 51.6748 55.9564 54.0482C56.5232 55.0424 56.7974 56.2137 56.7747 57.3684C56.7664 57.8707 56.7005 58.3689 56.5809 58.8485ZM33.8778 48.4471H34.1149V44.9745H33.8778V48.4471ZM33.0657 43.1713H32.8431V45.1927H31.9175C31.8495 45.1927 31.7938 45.2483 31.7938 45.3162V45.3862C31.7938 45.4542 31.8495 45.5097 31.9175 45.5097H32.8431V50.1557H33.0677L33.0657 50.1515V43.1713ZM33.0677 50.1557L33.0657 50.1515V43.1713H32.8431V45.1927H31.9175C31.8495 45.1927 31.7938 45.2483 31.7938 45.3162V45.3862C31.7938 45.4542 31.8495 45.5097 31.9175 45.5097H32.8431V50.1557H33.0677ZM33.8778 44.9745V48.4471H34.1149V44.9745H33.8778ZM33.8778 44.9745V48.4471H34.1149V44.9745H33.8778ZM33.0677 50.1557L33.0657 50.1515V43.1713H32.8431V45.1927H31.9175C31.8495 45.1927 31.7938 45.2483 31.7938 45.3162V45.3862C31.7938 45.4542 31.8495 45.5097 31.9175 45.5097H32.8431V50.1557H33.0677ZM33.8778 44.9745V48.4471H34.1149V44.9745H33.8778ZM33.8778 44.9745V48.4471H34.1149V44.9745H33.8778Z" fill="#F2DEBA"/>
    <path d="M8.89697 10.0573C8.89697 10.1561 8.89697 10.2055 8.89697 10.3043C8.89697 10.9033 8.73619 11.42 8.41669 11.8543C8.09513 12.2887 7.63134 12.6221 7.02325 12.865C6.40486 13.112 5.93901 13.1429 5.62363 12.9515C5.30825 12.76 5.14954 12.3504 5.14954 11.7185C5.14954 10.8457 5.14954 10.4072 5.14954 9.53445C5.14954 8.84693 5.28764 8.26851 5.56386 7.8033C5.84007 7.33809 6.25439 6.99021 6.80682 6.7679C7.0418 6.67321 7.25412 6.62587 7.44582 6.62381C7.63752 6.62175 7.80036 6.66704 7.93229 6.76172C7.93229 6.63204 7.93229 6.56823 7.93229 6.43855C8.2724 6.30887 8.44349 6.243 8.78566 6.11743C8.78566 6.83377 8.78566 7.19194 8.78566 7.90828C8.41669 8.04414 8.23117 8.11412 7.86426 8.2541C7.86014 8.19235 7.85808 8.16147 7.85396 8.09971C7.83128 7.8033 7.75914 7.60363 7.63546 7.50071C7.51384 7.39779 7.33657 7.39161 7.10777 7.48218C6.83774 7.58922 6.63779 7.74566 6.50999 7.95151C6.38219 8.15529 6.31829 8.42083 6.31829 8.74401C6.31829 9.79382 6.31829 10.3187 6.31829 11.3665C6.31829 11.6896 6.38219 11.9017 6.50793 11.9984C6.63573 12.0952 6.83362 12.089 7.10777 11.9819C7.37161 11.877 7.5695 11.7205 7.70142 11.5126C7.83334 11.3027 7.8993 11.0433 7.8993 10.7304C7.8993 10.611 7.8993 10.5513 7.8993 10.4319C8.2992 10.2776 8.49708 10.2034 8.89697 10.0573Z" fill="#811517"/>
    <path d="M9.48651 11.8111C9.48651 11.068 9.48651 10.6955 9.48651 9.95237C9.83693 9.8268 10.0142 9.76711 10.3667 9.64566C10.3997 9.99765 10.5048 10.2447 10.6841 10.3867C10.8635 10.5287 11.0964 10.5514 11.3808 10.4587C11.5973 10.3888 11.7704 10.2776 11.9003 10.1232C12.0302 9.96884 12.0941 9.79593 12.0941 9.60655C12.0941 9.46246 12.0508 9.33689 11.9642 9.23191C11.8776 9.12693 11.7374 9.03018 11.5437 8.94167C11.0675 8.72759 10.8305 8.62261 10.3564 8.41883C10.0719 8.29944 9.85961 8.13682 9.71944 7.9248C9.57721 7.71484 9.50713 7.45959 9.50713 7.157C9.50713 6.74943 9.64935 6.36244 9.93175 5.99603C10.2141 5.62963 10.5749 5.37232 11.0098 5.23029C11.2262 5.15825 11.4303 5.13355 11.6241 5.15207C11.8178 5.1706 11.9992 5.23235 12.1703 5.33527C12.1703 5.18912 12.1703 5.11502 12.1703 4.96887C12.5063 4.86389 12.6733 4.81449 13.0093 4.71362C13.0093 5.35998 13.0093 5.68315 13.0093 6.3295C12.6692 6.43037 12.5001 6.48183 12.16 6.58887C12.1105 6.31921 12.0034 6.12983 11.8384 6.01868C11.6735 5.90752 11.4736 5.88899 11.2407 5.96516C11.0572 6.02485 10.9006 6.13395 10.7728 6.29039C10.6429 6.44683 10.579 6.60739 10.579 6.77001C10.579 6.89146 10.6202 7.00056 10.7006 7.0973C10.7831 7.19405 10.9026 7.27433 11.0593 7.34226C11.5664 7.57075 11.8199 7.68808 12.329 7.92686C12.6506 8.07301 12.8815 8.24798 13.0216 8.45176C13.1618 8.65555 13.2319 8.91285 13.2319 9.22368C13.2319 9.66213 13.0752 10.0656 12.7598 10.4361C12.4465 10.8087 12.0446 11.0701 11.5561 11.2265C11.3046 11.3068 11.0737 11.3356 10.8696 11.3109C10.6635 11.2862 10.4718 11.2039 10.2925 11.066C10.2925 11.2512 10.2925 11.3459 10.2925 11.5312C9.96679 11.6424 9.80601 11.6979 9.48651 11.8111Z" fill="#811517"/>
    <path d="M14.0255 7.65909C14.0255 6.41167 14.0255 5.78796 14.0255 4.54054C15.052 4.25236 15.5694 4.1165 16.6042 3.86743C16.6042 4.18443 16.6042 4.34293 16.6042 4.65993C15.9405 4.82049 15.6106 4.90283 14.949 5.07986C14.949 5.67063 14.949 5.96499 14.949 6.55576C15.0355 6.48166 15.1304 6.41785 15.2375 6.36433C15.3427 6.31081 15.4643 6.26758 15.6003 6.23259C16.0662 6.1132 16.4125 6.18936 16.6413 6.45696C16.8701 6.7225 16.9835 7.18359 16.9835 7.83818C16.9835 8.50305 16.8515 9.01561 16.5918 9.37583C16.33 9.73606 15.9116 9.98719 15.3386 10.1354C14.8315 10.2671 14.4378 10.2568 14.1554 10.0942C13.875 9.93162 13.7349 9.63726 13.7349 9.2091C13.7349 9.06295 13.7349 8.98885 13.7349 8.8427C14.1162 8.7336 14.3058 8.68008 14.6872 8.57716C14.6872 8.67185 14.6872 8.71713 14.6872 8.81182C14.6872 9.05266 14.7387 9.22145 14.8438 9.3182C14.949 9.41289 15.0994 9.43553 15.2994 9.38407C15.5241 9.32437 15.6849 9.22351 15.7797 9.07942C15.8745 8.93533 15.9219 8.71301 15.9219 8.41454C15.9219 8.14488 15.9219 8.01108 15.9219 7.74143C15.9219 7.42237 15.8765 7.21035 15.7879 7.10125C15.6993 6.99421 15.5488 6.96539 15.3406 7.02097C15.2334 7.04773 15.1386 7.09713 15.052 7.16712C14.9655 7.23711 14.8892 7.32974 14.8232 7.44295C14.5017 7.52529 14.3429 7.56852 14.0255 7.65909Z" fill="#811517"/>
    <path d="M21.0174 4.61892C21.0174 5.61932 21.0174 6.11746 21.0174 7.11787C21.0174 7.69835 20.8752 8.16356 20.5907 8.51967C20.3062 8.87578 19.894 9.10221 19.3539 9.21131C18.818 9.31835 18.4099 9.25454 18.1316 9.01164C17.8533 8.76874 17.7131 8.35911 17.7131 7.77657C17.7131 6.77617 17.7131 6.27802 17.7131 5.27762C17.7131 4.69508 17.8533 4.21958 18.1316 3.85317C18.4099 3.48677 18.818 3.24593 19.3539 3.14095C19.894 3.03391 20.3062 3.11007 20.5907 3.36738C20.8752 3.62057 21.0174 4.04049 21.0174 4.61892ZM19.9146 4.43777C19.9146 4.2381 19.8651 4.08989 19.7641 3.99315C19.6631 3.8964 19.5271 3.86347 19.356 3.89846C19.189 3.93139 19.055 4.01579 18.9582 4.15165C18.8613 4.2875 18.8118 4.4563 18.8118 4.65802C18.8118 5.96514 18.8118 6.61767 18.8118 7.92478C18.8118 8.12651 18.8592 8.27266 18.954 8.36529C19.0489 8.45586 19.1828 8.48468 19.3539 8.45174C19.5291 8.41675 19.6652 8.33441 19.7641 8.20267C19.8631 8.07093 19.9125 7.90625 19.9125 7.70658C19.9146 6.39741 19.9146 5.74488 19.9146 4.43777Z" fill="#811517"/>
    <path d="M21.4523 4.88647C21.9841 4.79795 22.25 4.75473 22.7819 4.6765C22.7819 4.89058 22.7819 4.99556 22.7819 5.20964C22.9839 5.44842 23.0849 5.56987 23.2889 5.81071C23.4992 5.51223 23.6043 5.36197 23.8166 5.06555C23.8166 4.85147 23.8166 4.74649 23.8166 4.53241C24.2701 4.47272 24.4989 4.4439 24.9524 4.39038C24.9524 4.67033 24.9524 4.8103 24.9524 5.09025C24.8308 5.10466 24.7689 5.11084 24.6473 5.1273C24.2949 5.61104 24.1176 5.85188 23.7651 6.33973C24.1609 6.81317 24.3587 7.05195 24.7545 7.53157C24.8617 7.51922 24.9153 7.51304 25.0245 7.50069C25.0245 7.78064 25.0245 7.92062 25.0245 8.20057C24.4969 8.26232 24.233 8.29525 23.7053 8.36524C23.7053 8.13469 23.7053 8.01942 23.7053 7.78888C23.4806 7.52539 23.3673 7.39365 23.1426 7.13429C22.9117 7.46158 22.7963 7.6242 22.5654 7.95355C22.5654 8.1841 22.5654 8.29937 22.5654 8.52992C22.1078 8.5999 21.879 8.6349 21.4235 8.71312C21.4235 8.43317 21.4235 8.2932 21.4235 8.01325C21.5306 7.99472 21.5842 7.98649 21.6914 7.96796C22.0851 7.42247 22.283 7.15076 22.6767 6.60939C22.3119 6.17711 22.1305 5.96303 21.7656 5.53694C21.6399 5.55752 21.5781 5.56781 21.4523 5.5884C21.4523 5.30639 21.4523 5.16641 21.4523 4.88647Z" fill="#811517"/>
    <path d="M27.4796 7.95768C27.4796 7.21459 27.4796 6.84201 27.4796 6.09891C27.8465 6.07009 28.0299 6.05568 28.3968 6.03098C28.4298 6.39327 28.5411 6.6691 28.7287 6.85848C28.9163 7.04785 29.1574 7.13431 29.4522 7.1199C29.6769 7.10755 29.8562 7.04374 29.9902 6.92229C30.1242 6.8029 30.1922 6.64851 30.1922 6.45708C30.1922 6.31299 30.1469 6.17507 30.0562 6.04745C29.9655 5.91982 29.8212 5.78397 29.6192 5.64399C29.1265 5.30229 28.8792 5.1335 28.3865 4.80003C28.0918 4.60448 27.8691 4.38216 27.7207 4.13309C27.5723 3.88402 27.5002 3.61025 27.5002 3.30766C27.5002 2.90008 27.6486 2.5522 27.9433 2.26196C28.2381 1.97378 28.6133 1.81322 29.0647 1.78646C29.2894 1.77411 29.5017 1.80293 29.7016 1.87498C29.9016 1.94702 30.0912 2.05612 30.2685 2.20639C30.2685 2.06024 30.2685 1.98613 30.2685 1.83998C30.6148 1.82557 30.7879 1.8194 31.1363 1.80911C31.1363 2.45546 31.1363 2.77863 31.1363 3.42499C30.7859 3.43528 30.6107 3.44145 30.2582 3.45586C30.2067 3.17386 30.0953 2.9536 29.9243 2.79922C29.7532 2.64278 29.547 2.57279 29.3038 2.58514C29.1142 2.59543 28.9513 2.6613 28.8173 2.78481C28.6834 2.90626 28.6153 3.04829 28.6153 3.21091C28.6153 3.33236 28.6586 3.4538 28.7431 3.57114C28.8276 3.69053 28.9513 3.80374 29.1162 3.91284C29.6419 4.27924 29.9057 4.4645 30.4313 4.83914C30.7653 5.07174 31.0044 5.30847 31.1487 5.55136C31.293 5.79426 31.3651 6.07009 31.3651 6.37886C31.3651 6.81731 31.2023 7.17753 30.8786 7.46572C30.5529 7.7539 30.1386 7.90623 29.6315 7.93298C29.3698 7.94534 29.1327 7.9124 28.9183 7.83212C28.704 7.75184 28.504 7.61804 28.3164 7.43072C28.3164 7.61598 28.3164 7.71067 28.3164 7.89593C27.9804 7.91858 27.8135 7.93093 27.4796 7.95768Z" fill="#811517"/>
    <path d="M31.798 1.79261C32.7462 1.77409 33.2223 1.77409 34.1705 1.78644C34.1705 2.09521 34.1705 2.24959 34.1705 2.55836C33.95 2.55424 33.8407 2.55424 33.6202 2.55218C33.6202 3.1903 33.6202 3.50936 33.6202 4.14748C34.2592 4.1516 34.5787 4.15777 35.2177 4.1763C35.2177 3.53818 35.2177 3.21912 35.2177 2.581C34.995 2.57482 34.8837 2.57071 34.6611 2.56659C34.6611 2.25782 34.6611 2.10344 34.6611 1.79467C35.6093 1.81526 36.0855 1.83378 37.0337 1.88524C37.0337 2.19401 37.0337 2.34839 37.0337 2.65716C36.8007 2.64481 36.6853 2.63864 36.4524 2.62834C36.4524 4.39243 36.4524 5.27345 36.4524 7.03754C36.6853 7.04783 36.8007 7.054 37.0337 7.06636C37.0337 7.37306 37.0337 7.52745 37.0337 7.83416C36.0855 7.78269 35.6114 7.76417 34.6611 7.74358C34.6611 7.43688 34.6611 7.28249 34.6611 6.97578C34.8837 6.9799 34.995 6.98402 35.2177 6.99019C35.2177 6.20798 35.2177 5.81482 35.2177 5.03261C34.5787 5.01408 34.2592 5.00791 33.6202 5.00379C33.6202 5.786 33.6202 6.17916 33.6202 6.96137C33.8407 6.96343 33.95 6.96343 34.1705 6.96755C34.1705 7.27426 34.1705 7.42864 34.1705 7.73535C33.2203 7.72094 32.7462 7.723 31.798 7.73947C31.798 7.43276 31.798 7.27838 31.798 6.97167C32.033 6.96755 32.1505 6.96549 32.3854 6.96343C32.3854 5.19934 32.3854 4.31833 32.3854 2.55424C32.1505 2.5563 32.033 2.55836 31.798 2.56247C31.798 2.25576 31.798 2.10138 31.798 1.79261Z" fill="#811517"/>
    <path d="M37.5634 7.86908C37.5634 7.56237 37.5634 7.40798 37.5634 7.10128C37.7984 7.11568 37.9159 7.12392 38.1488 7.14039C38.1488 5.3763 38.1488 4.49528 38.1488 2.73119C37.9138 2.71473 37.7963 2.70649 37.5634 2.69208C37.5634 2.38332 37.5634 2.22893 37.5634 1.92017C38.5281 1.97986 39.0084 2.01897 39.971 2.11366C39.971 2.42243 39.971 2.57681 39.971 2.88558C39.736 2.86293 39.6165 2.85264 39.3815 2.83C39.3815 4.59409 39.3815 5.4751 39.3815 7.23919C39.6185 7.25978 39.736 7.27213 39.971 7.29477C39.971 7.60148 39.971 7.75586 39.971 8.06257C39.0084 7.96788 38.5281 7.92877 37.5634 7.86908Z" fill="#811517"/>
    <path d="M40.4905 8.1142C40.4905 7.80749 40.4905 7.6531 40.4905 7.34639C40.7234 7.3711 40.8409 7.38345 41.0738 7.41021C41.0738 5.64612 41.0738 4.7651 41.0738 3.00101C40.8409 2.97425 40.7234 2.9619 40.4905 2.9372C40.4905 2.62843 40.4905 2.47405 40.4905 2.16528C41.4943 2.27026 41.9973 2.33202 42.997 2.47405C43.7576 2.58109 44.2874 2.76841 44.5904 3.01954C44.8934 3.27067 45.0439 3.64325 45.0439 4.1311C45.0439 4.28754 45.0439 4.36576 45.0439 4.52426C45.0439 4.88449 44.9552 5.13562 44.7759 5.27354C44.5966 5.41351 44.2915 5.47321 43.8566 5.45674C44.3018 5.57407 44.611 5.71816 44.7842 5.8849C44.9573 6.05163 45.0439 6.28423 45.0439 6.58271C45.0439 7.13849 45.0439 7.41638 45.0439 7.97216C45.2768 8.01127 45.3922 8.03185 45.6231 8.07302C45.6231 8.37973 45.6231 8.53412 45.6231 8.84083C44.9181 8.7132 44.5636 8.65556 43.8545 8.54647C43.8545 7.70045 43.8545 7.27641 43.8545 6.43038C43.8545 6.18543 43.7906 6.01046 43.6628 5.90342C43.535 5.79638 43.2877 5.7161 42.9187 5.66464C42.6713 5.62965 42.5477 5.61318 42.3003 5.58025C42.3003 6.37069 42.3003 6.76591 42.3003 7.5543C42.5188 7.58311 42.628 7.59752 42.8486 7.6284C42.8486 7.93511 42.8486 8.08949 42.8486 8.3962C41.9066 8.27064 41.4346 8.213 40.4905 8.1142ZM42.3024 4.84332C42.5806 4.88037 42.7187 4.8989 42.997 4.93801C43.298 4.98124 43.5165 4.96477 43.6525 4.88861C43.7886 4.81245 43.8566 4.6663 43.8566 4.45016C43.8566 4.24637 43.8566 4.14345 43.8566 3.93761C43.8566 3.71941 43.7906 3.55679 43.6587 3.45387C43.5268 3.35095 43.2774 3.27067 42.9084 3.21921C42.6651 3.18421 42.5435 3.16775 42.3003 3.13687C42.3024 3.81822 42.3024 4.15992 42.3024 4.84332Z" fill="#811517"/>
    <path d="M46.0642 8.92313C46.0642 8.61642 46.0642 8.46203 46.0642 8.15533C46.2435 8.18826 46.3342 8.20473 46.5115 8.23972C47.0639 6.58267 47.3381 5.75724 47.8885 4.11048C47.6452 4.05902 47.5236 4.03226 47.2804 3.98285C47.2804 3.67409 47.2804 3.5197 47.2804 3.21094C48.4574 3.45178 49.0448 3.58558 50.2136 3.87582C50.2136 4.18458 50.2136 4.33897 50.2136 4.64773C49.9724 4.58804 49.8508 4.55716 49.6096 4.49953C50.1497 6.3933 50.4177 7.34224 50.9557 9.2463C51.1185 9.28953 51.201 9.31011 51.3638 9.35334C51.3638 9.66005 51.3638 9.81443 51.3638 10.1211C50.4898 9.88648 50.0508 9.77738 49.1706 9.57154C49.1706 9.26483 49.1706 9.11044 49.1706 8.80374C49.4159 8.86137 49.5396 8.89019 49.7848 8.94989C49.6756 8.52379 49.6199 8.31177 49.5107 7.88567C48.847 7.72717 48.5151 7.65306 47.8472 7.51103C47.7318 7.88567 47.672 8.07299 47.5566 8.44763C47.7957 8.49703 47.9153 8.52379 48.1544 8.57525C48.1544 8.88196 48.1544 9.03634 48.1544 9.34305C47.3195 9.16396 46.9011 9.07957 46.0642 8.92313ZM48.0348 6.8935C48.5563 7.00671 48.816 7.06435 49.3375 7.18786C49.084 6.15863 48.9562 5.64608 48.7027 4.61892C48.4347 5.52669 48.3007 5.98161 48.0348 6.8935Z" fill="#811517"/>
    <path d="M51.7122 10.2178C51.7122 9.88846 51.7122 9.72378 51.7122 9.39443C52.8191 7.9494 53.3694 7.23924 54.4661 5.8395C53.7776 5.6213 53.4313 5.51632 52.7387 5.31665C52.7387 5.69129 52.7387 5.87861 52.7387 6.2553C52.3491 6.14209 52.1533 6.08857 51.7616 5.97947C51.7616 5.30018 51.7616 4.96054 51.7616 4.28125C53.3241 4.70941 54.1012 4.94613 55.6451 5.46486C55.6451 5.77774 55.6451 5.93212 55.6451 6.24501C54.5423 7.63858 53.9878 8.34462 52.8727 9.78554C53.5859 9.99344 53.9404 10.1025 54.6474 10.329C54.6474 9.87199 54.6474 9.6435 54.6474 9.18653C55.0391 9.31209 55.2349 9.37591 55.6245 9.50765C55.6245 10.2693 55.6245 10.648 55.6245 11.4097C54.0723 10.8868 53.289 10.648 51.7122 10.2178Z" fill="#811517"/>
    <path d="M56.7252 10.2879C56.7252 8.81817 56.7252 8.08124 56.7252 6.61151C56.5005 6.53123 56.3892 6.49212 56.1646 6.41596C56.1646 6.10719 56.1646 5.95281 56.1646 5.64404C57.0736 5.95899 57.5271 6.12366 58.4279 6.46948C58.4279 6.77825 58.4279 6.93263 58.4279 7.2414C58.2176 7.16112 58.1145 7.12201 57.9043 7.04173C57.9043 8.49087 57.9043 9.21339 57.9043 10.6625C57.9043 10.9528 57.9641 11.1854 58.0857 11.3645C58.2073 11.5436 58.4011 11.6815 58.6649 11.7844C58.9267 11.8853 59.1163 11.8955 59.2379 11.8111C59.3596 11.7268 59.4193 11.5394 59.4193 11.2492C59.4193 9.80005 59.4193 9.07753 59.4193 7.62839C59.2091 7.54399 59.104 7.50282 58.8937 7.42048C58.8937 7.11171 58.8937 6.95733 58.8937 6.64856C59.7924 7.00056 60.2397 7.18582 61.1302 7.56869C61.1302 7.87746 61.1302 8.03184 61.1302 8.34061C60.9117 8.24592 60.8025 8.20063 60.584 8.108C60.584 9.57773 60.584 10.3147 60.584 11.7844C60.584 12.3134 60.4211 12.6469 60.0975 12.791C59.7718 12.933 59.2957 12.8774 58.667 12.6345C58.0383 12.3896 57.5559 12.0746 57.2261 11.6774C56.8922 11.278 56.7252 10.8169 56.7252 10.2879Z" fill="#811517"/>
  </g>
  <defs>
    <clipPath id="clip0_0_715">
      <rect width="64" height="87" fill="white" transform="translate(0.959839)"/>
    </clipPath>
  </defs>
</svg>