<svg xmlns="http://www.w3.org/2000/svg" width="42" height="42" viewBox="0 0 42 42" fill="none">
  <g clip-path="url(#clip0_0_306)">
    <path d="M35.5548 7.86095C32.8773 6.65345 30.0073 5.76095 27.006 5.25345C26.9793 5.24832 26.9516 5.25163 26.9268 5.26292C26.9021 5.2742 26.8814 5.29291 26.8678 5.31645C26.5003 5.9622 26.0908 6.80395 25.8038 7.46895C22.6207 6.99337 19.3846 6.99337 16.2015 7.46895C15.8818 6.73196 15.5214 6.01335 15.1218 5.31645C15.1082 5.29262 15.0877 5.27349 15.063 5.26161C15.0383 5.24973 15.0106 5.24566 14.9835 5.24995C11.984 5.75745 9.114 6.64995 6.43475 7.8592C6.4117 7.86887 6.39216 7.88536 6.37875 7.90645C0.932752 15.9127 -0.559998 23.7212 0.173252 31.4317C0.175292 31.4506 0.181154 31.4689 0.19048 31.4854C0.199807 31.502 0.212403 31.5164 0.227502 31.528C3.40619 33.8422 6.95159 35.6051 10.7153 36.743C10.7415 36.751 10.7696 36.751 10.7958 36.7429C10.822 36.7348 10.8452 36.7189 10.8623 36.6975C11.6721 35.6143 12.3898 34.4652 13.0078 33.2622C13.0163 33.2458 13.0213 33.2277 13.0222 33.2091C13.0232 33.1906 13.0202 33.1721 13.0134 33.1548C13.0066 33.1376 12.9962 33.122 12.9828 33.1091C12.9695 33.0962 12.9535 33.0864 12.936 33.0802C11.8055 32.6545 10.7102 32.1407 9.66 31.5437C9.64113 31.5329 9.62523 31.5176 9.61373 31.4992C9.60222 31.4808 9.59547 31.4598 9.59409 31.4381C9.5927 31.4164 9.59671 31.3947 9.60578 31.375C9.61484 31.3552 9.62866 31.338 9.646 31.325C9.8665 31.1622 10.087 30.9925 10.297 30.8227C10.3159 30.8074 10.3387 30.7977 10.3628 30.7946C10.3869 30.7915 10.4114 30.7952 10.4335 30.8052C17.3058 33.8922 24.7485 33.8922 31.5403 30.8052C31.5625 30.7946 31.5872 30.7905 31.6116 30.7933C31.6361 30.796 31.6593 30.8056 31.6785 30.821C31.8885 30.9925 32.1073 31.1622 32.3295 31.325C32.347 31.3378 32.3611 31.3547 32.3704 31.3743C32.3798 31.3939 32.3841 31.4155 32.3831 31.4372C32.382 31.4588 32.3756 31.4799 32.3645 31.4985C32.3533 31.5171 32.3377 31.5326 32.319 31.5437C31.2725 32.1457 30.184 32.655 29.0413 33.0785C29.0237 33.0848 29.0077 33.0949 28.9944 33.1079C28.981 33.121 28.9706 33.1367 28.9638 33.1541C28.957 33.1715 28.954 33.1901 28.955 33.2088C28.956 33.2274 28.9609 33.2456 28.9695 33.2622C29.5995 34.4645 30.3205 35.609 31.1133 36.6957C31.1297 36.718 31.1527 36.7347 31.179 36.7434C31.2053 36.7522 31.2337 36.7527 31.2603 36.7447C35.0304 35.6101 38.5816 33.8463 41.7638 31.528C41.7793 31.5171 41.7923 31.5031 41.802 31.4868C41.8116 31.4705 41.8177 31.4523 41.8198 31.4335C42.6948 22.519 40.3533 14.7735 35.609 7.90995C35.5974 7.88765 35.5781 7.87026 35.5548 7.86095ZM14.035 26.7365C11.9665 26.7365 10.2603 24.8657 10.2603 22.5715C10.2603 20.2755 11.9333 18.4065 14.035 18.4065C16.1525 18.4065 17.843 20.2912 17.8098 22.5715C17.8098 24.8675 16.1368 26.7365 14.035 26.7365ZM27.9913 26.7365C25.921 26.7365 24.2165 24.8657 24.2165 22.5715C24.2165 20.2755 25.8878 18.4065 27.9913 18.4065C30.1088 18.4065 31.7993 20.2912 31.766 22.5715C31.766 24.8675 30.1105 26.7365 27.9913 26.7365Z" fill="#F2DEBA"/>
  </g>
  <defs>
    <clipPath id="clip0_0_306">
      <rect width="42" height="42" fill="white"/>
    </clipPath>
  </defs>
</svg>