<svg width="60" height="86" viewBox="0 0 60 86" fill="none" xmlns="http://www.w3.org/2000/svg">
<path id="Vector" d="M60 42.9937C60 42.9937 41.1407 61.5315 28.1861 74.2653C21.4065 80.9293 16.2479 86 16.2479 86L1.89108 71.888C2.07118 71.7615 2.10978 71.5339 2.09691 71.1545C2.04545 69.7383 2.07118 68.3094 2.08405 66.8931C2.09691 64.9584 3.60206 63.4789 5.58319 63.4663C7.1012 63.4536 8.60635 63.4789 10.1115 63.4663C12.3628 63.441 13.572 62.2523 13.572 60.0521C13.5849 57.3966 13.5592 54.7537 13.5849 52.1109C13.5978 50.859 14.048 50.4291 15.3087 50.3911C16.0292 50.3785 16.7496 50.3911 17.4828 50.3658C18.3448 50.3405 19.2324 50.3152 19.9657 50.3026C20.7762 50.29 21.265 49.4301 20.8662 48.7346C19.4125 46.2561 16.6081 41.5015 15.6046 40.0726C15.283 39.6048 15.0772 39.1242 15.0257 38.5679C14.8456 36.7975 14.8199 35.0272 14.5369 33.2695C13.199 24.7972 7.30703 18.5252 0 15.9709L1.18353 14.8075C1.18353 14.8075 2.94597 13.0751 4.69554 11.3554C6.05918 10.015 7.43568 8.66196 7.43568 8.66196L16.2479 0L60 42.9937Z" fill="#820000"/>
</svg>
