<svg xmlns="http://www.w3.org/2000/svg" width="15" height="15" viewBox="0 0 15 15" fill="none">
  <path d="M7.50001 4.49555C5.83741 4.49555 4.49561 5.83735 4.49561 7.49995C4.49561 9.16254 5.83741 10.5043 7.50001 10.5043C9.16261 10.5043 10.5044 9.16254 10.5044 7.49995C10.5044 5.83735 9.16261 4.49555 7.50001 4.49555ZM7.50001 9.45258C6.42481 9.45258 5.54737 8.57514 5.54737 7.49995C5.54737 6.42475 6.42481 5.54731 7.50001 5.54731C8.5752 5.54731 9.45265 6.42475 9.45265 7.49995C9.45265 8.57514 8.5752 9.45258 7.50001 9.45258ZM10.6275 3.67231C10.2393 3.67231 9.92579 3.98579 9.92579 4.37397C9.92579 4.76215 10.2393 5.07563 10.6275 5.07563C11.0156 5.07563 11.3291 4.76362 11.3291 4.37397C11.3292 4.28179 11.3112 4.1905 11.2759 4.10532C11.2407 4.02014 11.189 3.94274 11.1239 3.87756C11.0587 3.81239 10.9813 3.76071 10.8961 3.72549C10.8109 3.69026 10.7196 3.67219 10.6275 3.67231ZM13.3565 7.49995C13.3565 6.69135 13.3638 5.89008 13.3184 5.08295C13.273 4.14545 13.0591 3.31342 12.3735 2.62788C11.6865 1.94087 10.856 1.72846 9.91847 1.68305C9.10987 1.63764 8.3086 1.64497 7.50147 1.64497C6.69288 1.64497 5.89161 1.63764 5.08448 1.68305C4.14698 1.72846 3.31495 1.94233 2.6294 2.62788C1.94239 3.31489 1.72999 4.14545 1.68458 5.08295C1.63917 5.89155 1.64649 6.69282 1.64649 7.49995C1.64649 8.30708 1.63917 9.10981 1.68458 9.91694C1.72999 10.8544 1.94386 11.6865 2.6294 12.372C3.31641 13.059 4.14698 13.2714 5.08448 13.3168C5.89308 13.3623 6.69434 13.3549 7.50147 13.3549C8.31007 13.3549 9.11134 13.3623 9.91847 13.3168C10.856 13.2714 11.688 13.0576 12.3735 12.372C13.0606 11.685 13.273 10.8544 13.3184 9.91694C13.3652 9.10981 13.3565 8.30854 13.3565 7.49995ZM12.0674 10.954C11.9605 11.2206 11.8316 11.4199 11.625 11.6249C11.4185 11.8315 11.2207 11.9604 10.9541 12.0673C10.1836 12.3735 8.35401 12.3046 7.50001 12.3046C6.646 12.3046 4.81495 12.3735 4.04444 12.0688C3.77784 11.9619 3.57862 11.833 3.37354 11.6264C3.167 11.4199 3.03809 11.2221 2.93116 10.9555C2.62647 10.1835 2.69532 8.35395 2.69532 7.49995C2.69532 6.64594 2.62647 4.81489 2.93116 4.04438C3.03809 3.77778 3.167 3.57856 3.37354 3.37348C3.58009 3.1684 3.77784 3.03803 4.04444 2.9311C4.81495 2.62641 6.646 2.69526 7.50001 2.69526C8.35401 2.69526 10.1851 2.62641 10.9556 2.9311C11.2222 3.03803 11.4214 3.16694 11.6265 3.37348C11.833 3.58003 11.9619 3.77778 12.0689 4.04438C12.3735 4.81489 12.3047 6.64594 12.3047 7.49995C12.3047 8.35395 12.3735 10.1835 12.0674 10.954Z" fill="#F2DEBA"/>
</svg>