<svg xmlns="http://www.w3.org/2000/svg" width="47" height="47" viewBox="0 0 47 47" fill="none">
<path d="M47 11.204V11.6859C46.9021 13.1241 46.343 14.3532 45.3229 15.3734C37.3127 23.3824 29.3028 31.3913 21.2932 39.4003C19.1231 41.5704 15.6945 41.5484 13.5208 39.3774C9.56248 35.4264 5.60665 31.4724 1.65326 27.5154C0.640436 26.5019 0.089349 25.2749 0 23.8343V23.3616C0.0948568 21.8885 0.634928 20.6771 1.62021 19.7273C3.51398 17.8996 6.36795 17.6169 8.54813 19.1141C8.86452 19.3314 9.2418 19.6603 9.67998 20.1009C11.9627 22.3952 14.2242 24.6577 16.4647 26.8884C16.8668 27.2886 17.5103 27.3731 18.0105 27.1289C18.1758 27.0487 18.3343 26.9328 18.4861 26.781C24.738 20.5247 31.1351 14.1268 37.6771 7.58719C39.514 5.75125 42.4221 5.46117 44.5454 6.87943C46.0447 7.88124 46.8629 9.32276 47 11.204Z" fill="#4E6C50"/>
</svg>
