<svg xmlns="http://www.w3.org/2000/svg" width="80" height="80" viewBox="0 0 80 80" fill="none">
  <g filter="url(#filter0_d_35_17)">
    <path d="M62.4 49.2C63.5667 46.3667 64.2 43.3334 64.2 40C64.2 37.6 63.8334 35.3 63.2 33.1667C61.0334 33.6667 58.7667 33.9334 56.4 33.9334C51.5533 33.9386 46.7763 32.7784 42.4718 30.5508C38.1673 28.3231 34.4615 25.0932 31.6667 21.1334C28.677 28.3673 23.0371 34.186 15.9 37.4C15.7667 38.2334 15.7667 39.1334 15.7667 40C15.7667 43.1824 16.3935 46.3336 17.6113 49.2737C18.8292 52.2138 20.6142 54.8853 22.8645 57.1356C27.4091 61.6802 33.5729 64.2334 40 64.2334C43.5 64.2334 46.8667 63.4667 49.9 62.1C51.8 65.7334 52.6667 67.5334 52.6 67.5334C47.1334 69.3667 42.9 70.2667 40 70.2667C31.9334 70.2667 24.2334 67.1 18.5667 61.4C15.12 57.964 12.5579 53.7434 11.1 49.1H6.66669V33.9334H10.3C11.4008 28.5751 13.9317 23.6147 17.624 19.5787C21.3163 15.5426 26.0324 12.5814 31.2718 11.0092C36.5112 9.43706 42.0785 9.3126 47.3829 10.649C52.6873 11.9855 57.531 14.733 61.4 18.6C65.6008 22.7842 68.466 28.1204 69.6334 33.9334H73.3334V49.1H73.1334L61.2667 60L43.6 58V52.4334H59.7L62.4 49.2ZM30.9 39.2334C31.9 39.2334 32.8667 39.6334 33.5667 40.3667C34.2702 41.0759 34.6649 42.0344 34.6649 43.0334C34.6649 44.0323 34.2702 44.9908 33.5667 45.7C32.8667 46.4 31.9 46.8 30.9 46.8C28.8 46.8 27.1 45.1334 27.1 43.0334C27.1 40.9334 28.8 39.2334 30.9 39.2334ZM49.0667 39.2334C51.1667 39.2334 52.8334 40.9334 52.8334 43.0334C52.8334 45.1334 51.1667 46.8 49.0667 46.8C46.9667 46.8 45.2667 45.1334 45.2667 43.0334C45.2667 42.0255 45.667 41.059 46.3797 40.3464C47.0923 39.6337 48.0589 39.2334 49.0667 39.2334Z" fill="#820000"/>
  </g>
  <defs>
    <filter id="filter0_d_35_17" x="-4" y="0" width="88" height="88" filterUnits="userSpaceOnUse" color-interpolation-filters="sRGB">
      <feFlood flood-opacity="0" result="BackgroundImageFix"/>
      <feColorMatrix in="SourceAlpha" type="matrix" values="0 0 0 0 0 0 0 0 0 0 0 0 0 0 0 0 0 0 127 0" result="hardAlpha"/>
      <feOffset dy="4"/>
      <feGaussianBlur stdDeviation="2"/>
      <feComposite in2="hardAlpha" operator="out"/>
      <feColorMatrix type="matrix" values="0 0 0 0 0 0 0 0 0 0 0 0 0 0 0 0 0 0 0.25 0"/>
      <feBlend mode="normal" in2="BackgroundImageFix" result="effect1_dropShadow_35_17"/>
      <feBlend mode="normal" in="SourceGraphic" in2="effect1_dropShadow_35_17" result="shape"/>
    </filter>
  </defs>
</svg>