<svg width="88" height="86" viewBox="0 0 88 86" fill="none" xmlns="http://www.w3.org/2000/svg">
<path id="Vector" d="M88 42.9937L43.9935 86L14.5653 57.2406L0 43.0063L6.32544 36.8246L10.1673 33.0701L11.2021 32.0588L17.4758 25.9277L28.859 14.8032C32.1705 13.5137 35.8442 13.0839 39.5049 13.7666C48.3657 15.3973 54.7688 22.0847 55.8683 30.8326C56.0365 32.1094 55.9459 33.2724 55.0404 34.3469C54.1608 35.3835 53.5011 36.5844 52.712 37.6969C51.509 39.3908 50.9787 41.2618 50.9787 43.3223C50.9916 47.1906 50.9787 51.0589 50.9787 54.9272C50.9787 55.2306 50.9787 55.5087 50.7329 55.7742C47.2145 59.4402 42.9328 61.5514 37.8104 62.0065C35.7536 62.1961 33.684 62.0823 31.6272 62.1076C31.3685 62.1076 31.0969 62.0317 31.1098 62.4616C31.1357 63.8395 31.1227 65.2174 31.1098 66.5953C31.1098 66.8608 31.1874 66.9746 31.472 66.9746C34.3566 66.9366 37.2542 67.1263 40.1258 66.6332C46.4383 65.5587 51.5867 62.55 55.5837 57.6704C55.8554 57.3291 56.1529 57.228 56.5668 57.228C58.1449 57.2406 59.7231 57.2912 61.3012 57.1901C63.9142 57.0257 65.8933 55.041 65.9192 52.4748C65.9709 47.5446 65.9709 42.6018 65.9192 37.659C65.8933 35.1686 63.9788 33.2092 61.4435 32.9563C61.0037 32.9184 60.9519 32.7667 60.939 32.4001C60.9002 31.0222 60.7838 29.6569 60.4992 28.3043C58.0156 16.2822 47.305 8.14111 35.1586 8.65941L44.0194 -7.71575e-06L88 42.9937Z" fill="#820000"/>
</svg>
