<svg width="86" height="85" viewBox="0 0 86 85" fill="none" xmlns="http://www.w3.org/2000/svg">
<path id="Vector" d="M86 42.5C86 42.5 67.4621 60.8196 54.7284 73.4034C48.0644 79.989 42.9937 85 42.9937 85L23.8488 66.0806C29.5898 65.8306 35.1537 64.5935 40.5279 62.3317C42.5384 61.4819 43.7777 59.8949 44.0179 57.808C44.4985 53.7092 44.6376 49.5854 44.7514 45.4616C44.7514 45.4366 44.7008 45.3992 44.6502 45.3492C44.4479 45.4241 44.2456 45.4991 44.0432 45.5866C38.7196 47.586 33.4971 49.8104 28.3126 52.1347C24.2914 53.9341 20.1438 54.0966 16.0215 52.5096C13.5051 51.5348 11.0898 50.3477 8.61138 49.298C7.59976 48.8731 6.60079 48.4483 5.57653 48.0359L0 42.525L0.518453 42.0126C5.74092 43.9746 10.9002 46.1114 15.9709 48.4608C19.8656 50.2602 23.6718 50.2227 27.5539 48.4108C34.2179 45.2992 41.0463 42.6125 47.9759 40.1757C48.2541 40.0757 48.6461 39.7383 48.6334 40.4756C48.6081 46.2739 48.6208 52.0847 48.6334 57.883C48.6334 58.2329 48.4943 58.3703 48.2035 58.5078C47.4448 58.8702 46.9769 59.495 46.939 60.3448C46.8631 61.6319 46.8125 62.9315 46.7999 64.2186C46.7872 65.0434 47.3057 65.6682 48.115 65.8556C49.6956 66.243 51.2889 66.243 52.8696 65.8681C53.78 65.6557 54.2479 65.0809 54.2226 64.1436C54.1973 62.869 54.1341 61.6069 54.0835 60.3323C54.0456 59.52 53.6409 58.8952 52.9328 58.5703C52.4523 58.3453 52.4143 58.0704 52.4143 57.6455C52.427 51.5723 52.427 45.5116 52.4017 39.4384C52.4017 38.8261 52.5534 38.5637 53.1731 38.3762C54.994 37.8264 56.1573 36.6142 56.347 34.7023C56.5493 32.8153 55.6009 31.4782 53.995 30.516C45.4468 25.4675 36.6584 20.8564 27.6045 16.7701C27.2378 16.6076 26.871 16.4577 26.5043 16.3202L28.2114 14.6332C28.2114 14.6332 29.9438 12.9337 31.6636 11.2217C33.004 9.89709 34.357 8.55998 34.357 8.55998L43.019 0L86 42.5Z" fill="#820000"/>
</svg>
