<svg xmlns="http://www.w3.org/2000/svg" width="15" height="15" viewBox="0 0 15 15" fill="none">
  <path d="M4.71187 14.0627C10.3725 14.0627 13.4691 9.37235 13.4691 5.31204C13.4691 5.18079 13.4691 5.04766 13.4634 4.91641C14.0663 4.47999 14.5866 3.93968 15 3.32079C14.4369 3.56908 13.8401 3.73273 13.2291 3.80641C13.8727 3.4217 14.3547 2.81638 14.5856 2.10297C13.9809 2.46122 13.3191 2.7127 12.6291 2.84641C12.1652 2.35237 11.5513 2.02508 10.8826 1.91525C10.2138 1.80541 9.52755 1.91915 8.93 2.23885C8.33246 2.55856 7.85701 3.06638 7.5773 3.68366C7.29759 4.30094 7.22923 4.99322 7.38281 5.65329C6.15913 5.59193 4.96202 5.27404 3.8691 4.72023C2.77619 4.16643 1.81189 3.38908 1.03875 2.4386C0.646256 3.11649 0.526475 3.91835 0.703731 4.68135C0.880986 5.44435 1.34199 6.11128 1.99312 6.54672C1.50519 6.53015 1.02799 6.39912 0.6 6.16422V6.20641C0.600841 6.91655 0.846851 7.60462 1.29644 8.15431C1.74604 8.704 2.37164 9.08161 3.0675 9.22329C2.80337 9.29605 2.53053 9.33232 2.25656 9.3311C2.06342 9.33169 1.87067 9.31379 1.68094 9.27766C1.87761 9.88897 2.26057 10.4234 2.77617 10.8062C3.29177 11.189 3.91419 11.401 4.55625 11.4123C3.46552 12.269 2.11819 12.7337 0.73125 12.7314C0.486863 12.7324 0.242647 12.7184 0 12.6892C1.40767 13.5867 3.04247 14.0632 4.71187 14.0627Z" fill="#F2DEBA"/>
</svg>