<svg width="160" height="39" viewBox="0 0 160 39" fill="none" xmlns="http://www.w3.org/2000/svg">
<g clip-path="url(#clip0_77_63)">
<path d="M159.198 19.2712C158.13 18.6634 157.114 18.0184 156.213 17.2973C156.181 17.2733 156.152 17.2493 156.123 17.2254C155.973 17.1034 155.825 16.9813 155.684 16.855C155.306 16.5194 154.943 16.1774 154.597 15.831C154.572 15.8092 154.552 15.7852 154.527 15.7612C152.965 14.1816 151.693 12.4844 150.404 10.7958C148.737 8.61486 147.079 6.43173 144.816 4.49262C141.414 1.57743 137.083 0.0348611 131.508 0.106761C131.271 0.108939 131.037 0.111118 130.803 0.113297C130.453 0.102403 130.097 0.100224 129.738 0.106761C127.908 0.128548 126.074 0.13944 124.24 0.141618C123.775 0.141618 123.307 0.139441 122.839 0.139441C122.669 0.089329 122.467 0.0718994 122.214 0.0718994C121.682 0.0740782 121.146 0.074077 120.614 0.074077C120.563 0.0718982 120.505 0.0718994 120.444 0.0718994C118.707 0.076257 112.433 0.0784343 110.695 0.080613C106.649 0.0827918 51.0676 0.12201 47.0217 0.12201H45.252C41.953 0.12201 38.6509 0.141618 35.3488 0.141618C33.515 0.13944 31.6812 0.128548 29.8506 0.106761C29.4915 0.102403 29.1357 0.104582 28.7862 0.113297C28.549 0.111118 28.3149 0.108939 28.0809 0.106761C22.5058 0.0370399 18.1745 1.57743 14.773 4.49262C12.5096 6.43173 10.8553 8.61486 9.18505 10.7958C7.89305 12.4844 6.62349 14.1816 5.0622 15.7612C5.03655 15.7852 5.01732 15.8092 4.99167 15.831C4.64543 16.1796 4.28315 16.5216 3.90485 16.855C3.76058 16.9813 3.61631 17.1055 3.46563 17.2254C3.43678 17.2493 3.40472 17.2733 3.37587 17.2973C2.475 18.0184 1.45871 18.6634 0.39113 19.2712C0.0352699 19.476 -0.0705283 19.6177 0.359069 19.8464C1.20223 20.2953 1.96846 20.7833 2.67376 21.304C2.68018 21.3084 2.68659 21.3127 2.693 21.3171C2.92703 21.487 3.15145 21.6635 3.37266 21.84C3.40152 21.864 3.43358 21.8901 3.46243 21.9141C4.00103 22.3542 4.50116 22.8139 4.97884 23.2867C5.00449 23.3107 5.02693 23.3346 5.04937 23.3586C5.48538 23.7944 5.89895 24.241 6.29649 24.6964C6.31572 24.7182 6.33817 24.7421 6.3574 24.7661C7.04668 25.5592 7.68787 26.3762 8.32265 27.1954C10.259 29.7054 12.064 32.2676 14.6512 34.5183C17.1454 36.6861 20.1879 38.2854 24.2658 38.817C25.3623 38.9586 26.4683 39.0153 27.584 39.0131H29.3537C36.5158 39.0109 64.8275 38.9956 88.3111 38.9847C88.5034 39.0261 88.7246 39.0109 88.9523 39.0109H90.3244C90.4526 39.0153 90.5873 39.0109 90.7252 39.0109C102.385 39.0109 118.582 39.0087 130.245 39.0131H132.015C133.13 39.0153 134.236 38.9586 135.333 38.817C139.411 38.2854 142.456 36.6861 144.947 34.5183C147.535 32.2676 149.343 29.7054 151.276 27.1954C151.911 26.374 152.552 25.5592 153.241 24.7661C153.26 24.7443 153.28 24.7203 153.302 24.6964C153.696 24.241 154.113 23.7944 154.549 23.3586C154.572 23.3346 154.594 23.3107 154.62 23.2867C155.094 22.8139 155.598 22.3542 156.136 21.9141C156.165 21.8901 156.197 21.864 156.226 21.84C156.447 21.6613 156.672 21.487 156.906 21.3171C156.912 21.3127 156.918 21.3084 156.925 21.304C157.63 20.7855 158.396 20.2974 159.239 19.8464C159.663 19.6177 159.557 19.476 159.198 19.2712ZM156.412 19.8225C156.338 19.8682 156.268 19.914 156.197 19.9619C156.191 19.9663 156.184 19.9684 156.178 19.975C156.053 20.0556 155.934 20.1362 155.816 20.219C155.78 20.243 155.748 20.2669 155.713 20.2909C155.008 20.7855 154.363 21.3084 153.767 21.8531L153.69 21.925C153.212 22.3651 152.76 22.8204 152.334 23.2845C152.311 23.3085 152.289 23.3325 152.27 23.3564C151.866 23.7944 151.481 24.241 151.109 24.6898C151.09 24.7138 151.068 24.7399 151.048 24.7639C150.622 25.2803 150.212 25.8032 149.801 26.3261C148.019 28.6051 146.403 30.9494 144.181 33.0585C142.046 35.0826 139.5 36.7515 135.826 37.416C134.624 37.6339 133.403 37.7363 132.159 37.7363H123.855C114.702 37.7363 105.546 37.7385 96.3933 37.7407C96.2041 37.7385 96.0406 37.7363 95.8963 37.7058C93.1553 37.7058 90.2411 37.708 87.221 37.7102C64.773 37.7211 36.4388 37.7363 29.1902 37.7363H27.4205C26.1766 37.7363 24.9551 37.6317 23.7529 37.416C20.0789 36.7515 17.5333 35.0826 15.3982 33.0585C13.1765 30.9494 11.5574 28.6073 9.77815 26.3261C9.37099 25.8032 8.95743 25.2803 8.53103 24.7639C8.5118 24.7399 8.49256 24.7138 8.47012 24.6898C8.09823 24.2388 7.71352 23.7944 7.30957 23.3564C7.29033 23.3325 7.26789 23.3085 7.24545 23.2845C6.81906 22.8204 6.36702 22.3651 5.88933 21.925L5.81239 21.8531C5.21608 21.3084 4.57489 20.7855 3.86638 20.2909C3.83432 20.2669 3.79906 20.243 3.76379 20.219C3.64517 20.1362 3.52655 20.0556 3.40152 19.975C3.3951 19.9706 3.38869 19.9663 3.38228 19.9619C3.31175 19.9161 3.24122 19.8682 3.16748 19.8225C2.80842 19.5937 2.88857 19.4869 3.20275 19.293C3.43037 19.1514 3.65158 19.0032 3.86317 18.8529C3.89844 18.8289 3.9337 18.805 3.96576 18.781C3.99461 18.7636 4.02026 18.7461 4.04271 18.7265C4.05874 18.7156 4.07156 18.7069 4.08438 18.696C4.69672 18.2559 5.26097 17.7853 5.78995 17.2973L5.86689 17.2254C5.96307 17.1339 6.05925 17.0445 6.15543 16.953C6.53373 16.5892 6.89279 16.2188 7.23904 15.844L7.30636 15.7721C7.68787 15.3603 8.05014 14.9398 8.4028 14.5172C8.42203 14.4954 8.44447 14.4714 8.46371 14.4474C9.36137 13.3689 10.1885 12.2621 11.0317 11.1618C12.6571 9.03754 14.2825 6.91324 16.5427 5.05257C19.4954 2.6167 23.2111 1.34866 27.9206 1.39006C28.2412 1.39224 28.565 1.39441 28.8856 1.39659C31.0368 1.41402 33.1912 1.4162 35.3424 1.41402C39.0196 1.41838 42.6936 1.40313 46.3676 1.40095H46.5856C49.2049 1.40095 51.8242 1.40095 54.4466 1.40313C56.0079 1.40313 72.0794 1.39223 87.2627 1.38134C100.699 1.37045 113.436 1.36173 114.821 1.36173H114.895C115.045 1.36391 115.18 1.37262 115.299 1.40531C118.162 1.40966 121.028 1.41838 123.894 1.4162H124.227C126.379 1.41838 128.53 1.41402 130.684 1.39877C131.005 1.39659 131.328 1.39441 131.649 1.39223C136.359 1.35084 140.074 2.62106 143.027 5.05475C145.287 6.9176 146.913 9.03972 148.538 11.164C149.378 12.2643 150.208 13.3711 151.106 14.4496C151.125 14.4714 151.144 14.4954 151.167 14.5193C151.52 14.942 151.885 15.3603 152.263 15.7743L152.331 15.8462C152.677 16.2231 153.036 16.5913 153.414 16.9552C153.51 17.0467 153.607 17.136 153.703 17.2275L153.78 17.2994C154.312 17.7875 154.876 18.2581 155.485 18.6982C155.501 18.7091 155.514 18.7178 155.527 18.7287C155.553 18.7483 155.578 18.7658 155.604 18.7832C155.636 18.8071 155.671 18.8311 155.707 18.8551C155.918 19.0054 156.139 19.1514 156.367 19.2952C156.691 19.4847 156.771 19.5915 156.412 19.8225Z" fill="#F2DEBA"/>
<path d="M154.607 19.2908C154.382 19.1492 152.228 17.4432 152.016 17.2972C151.988 17.2733 151.962 17.2493 151.936 17.2253C151.863 17.1578 151.792 17.0881 151.718 17.0205C151.693 16.9987 151.673 16.977 151.648 16.953C151.273 16.5891 149.795 14.9507 149.448 14.576C149.429 14.552 149.41 14.5302 149.388 14.5062C149.115 14.1816 148.852 13.8526 148.589 13.5236C148.121 12.9332 147.666 12.3362 147.211 11.7392C147.066 11.5475 146.919 11.3557 146.772 11.164C145.428 9.40573 144.079 7.64746 142.373 6.03735C142.181 5.86741 141.979 5.70182 141.773 5.53624C139.125 3.40104 135.814 2.30512 131.63 2.3683C129.248 2.40316 126.866 2.40534 124.484 2.40099C122.288 2.39663 120.088 2.38355 117.889 2.38355H114.356C114.212 2.34652 114.042 2.3378 113.837 2.3378C111.657 2.33998 104.286 2.34434 95.0243 2.35305C93.0174 2.35305 90.9175 2.35523 88.7663 2.35741C88.7727 2.34652 88.7759 2.3378 88.7855 2.3269H88.0899C88.0834 2.3378 88.077 2.34652 88.0706 2.35741H88.0674C87.609 2.35741 87.1505 2.35741 86.6889 2.35959C67.8828 2.37048 45.7617 2.38573 41.6934 2.38573C37.1121 2.38791 32.534 2.43802 27.9527 2.37048C23.7689 2.3073 20.4572 3.40322 17.809 5.53841C17.6039 5.704 17.4051 5.86959 17.2095 6.03953C15.504 7.64964 14.1575 9.40791 12.811 11.1662C12.6635 11.3579 12.516 11.5496 12.3718 11.7414C11.9165 12.3384 11.4613 12.9353 10.9932 13.5258C10.7303 13.8548 10.4642 14.1838 10.1949 14.5084C10.1757 14.5324 10.1564 14.5542 10.134 14.5781C9.78777 14.9529 8.30982 16.5913 7.93473 16.9552C7.90908 16.977 7.88984 17.0009 7.8642 17.0227C7.79046 17.0924 7.71993 17.16 7.64619 17.2275C7.62055 17.2515 7.5949 17.2755 7.56604 17.2994C7.35766 17.4476 5.20005 19.1536 4.97564 19.293C4.66145 19.4869 4.58131 19.5937 4.94037 19.8224C5.14235 19.951 5.33791 20.0817 5.53027 20.2146C5.56553 20.2386 5.59759 20.2625 5.63286 20.2865C5.69698 20.3432 7.74558 22.0404 7.80649 22.0971C8.21365 22.4827 8.60157 22.8771 8.97346 23.2801C8.97987 23.2889 8.98949 23.2998 8.9991 23.3106C9.30046 23.6723 10.7816 25.35 10.9996 25.6267C11.1824 25.8598 11.3651 26.0908 11.5478 26.3239C11.8267 26.679 12.0993 27.0385 12.375 27.3958C13.8497 29.3306 15.2924 31.2762 17.1679 33.0541C17.1935 33.0759 17.2159 33.0999 17.2416 33.1238C18.0816 33.8406 19.0209 34.5074 20.1109 35.1065C22.105 36.2024 24.4229 36.7449 26.9781 36.7471C34.6018 36.7537 63.7759 36.7362 86.6279 36.7275C89.5357 36.7253 92.3377 36.7253 94.9826 36.7253C95.5982 36.7232 96.2073 36.7232 96.8036 36.7232H96.8068C96.9222 36.7515 97.0601 36.7624 97.23 36.7624C103.517 36.7558 109.804 36.7558 116.091 36.7558C118.873 36.7537 121.659 36.7537 124.445 36.7537C127.164 36.7515 129.883 36.7515 132.598 36.7493C135.156 36.7471 137.474 36.2046 139.465 35.1087C140.555 34.5095 141.495 33.8428 142.334 33.126C142.36 33.1042 142.386 33.0803 142.408 33.0563C144.284 31.2784 145.726 29.3306 147.201 27.398C147.477 27.0385 147.749 26.6812 148.028 26.3261C148.211 26.0929 148.394 25.8598 148.576 25.6289C148.794 25.3543 150.276 23.6745 150.577 23.3128C150.587 23.3019 150.596 23.291 150.603 23.2823C150.975 22.8792 151.359 22.4849 151.77 22.0993C151.831 22.0404 153.879 20.3453 153.943 20.2887C153.975 20.2647 154.011 20.2408 154.046 20.2168C154.238 20.0839 154.434 19.9532 154.636 19.8246C155.001 19.5915 154.921 19.4847 154.607 19.2908Z" fill="#811517"/>
</g>
<defs>
<clipPath id="clip0_77_63">
<rect width="159.656" height="39" fill="white"/>
</clipPath>
</defs>
</svg>
