<svg width="441" height="88" viewBox="0 0 441 88" fill="none" xmlns="http://www.w3.org/2000/svg">
<path d="M440.072 43.2868C437.146 41.9095 434.309 40.4338 431.826 38.8105C431.738 38.7613 431.649 38.7121 431.56 38.6629C431.117 38.3678 430.763 38.1219 430.319 37.8267C429.255 37.0889 428.28 36.3018 427.305 35.5148C427.216 35.4656 427.216 35.4164 427.127 35.3672C422.783 31.8256 419.325 27.9888 415.69 24.152C411.08 19.2331 406.47 14.3141 400.263 9.93628C390.954 3.34489 378.896 -0.147568 363.558 0.0491895C362.937 0.0491895 362.228 0.0491895 361.607 0.0491895C360.632 0 359.657 0 358.682 0.0491895C353.628 0.098379 348.574 0.098379 343.432 0.147568C342.102 0.147568 340.861 0.147568 339.531 0.147568C339.088 0.0491895 338.467 0 337.758 0C336.25 0 334.832 0 333.325 0C333.147 0 333.059 0 332.881 0C328.094 0 310.716 0 305.929 0C294.757 0 141.02 0.098379 129.849 0.098379H124.972C115.84 0.098379 106.708 0.147568 97.5764 0.147568C92.5227 0.147568 87.4691 0.098379 82.4154 0.0491895C81.4402 0.0491895 80.4649 0.0491895 79.4896 0.0491895C78.869 0.0491895 78.1597 0.0491895 77.5391 0.0491895C62.1122 -0.147568 50.0543 3.34489 40.6563 9.93628C34.3614 14.3141 29.8397 19.2331 25.2294 24.152C21.683 27.9888 18.1366 31.7764 13.7922 35.3672C13.7035 35.4164 13.7035 35.4656 13.6149 35.5148C12.6396 36.3018 11.6643 37.0889 10.6004 37.8267C10.2458 38.1219 9.80248 38.3678 9.35917 38.6629C9.27051 38.7121 9.18185 38.7613 9.09319 38.8105C6.6107 40.4338 3.77356 41.9095 0.847766 43.2868C-0.1275 43.7295 -0.393481 44.0738 0.759105 44.5657C3.06428 45.5987 5.19213 46.6808 7.14266 47.8614C7.14266 47.8614 7.14266 47.8614 7.23132 47.9106C7.85195 48.3041 8.47257 48.6976 9.09319 49.0911C9.18185 49.1403 9.27051 49.1895 9.35917 49.2387C10.8664 50.2225 12.1963 51.2555 13.5262 52.3376C13.6149 52.3868 13.6149 52.436 13.7035 52.4852C14.9448 53.469 16.0087 54.4528 17.1613 55.4858C17.25 55.5349 17.25 55.5841 17.3386 55.6333C19.2005 57.4041 20.9737 59.2733 22.7469 61.0934C28.0665 66.7501 33.1202 72.5545 40.213 77.621C47.1285 82.54 55.5513 86.1308 66.8112 87.3114C69.8256 87.6065 72.9287 87.7541 76.0319 87.7541H80.9082C100.679 87.7541 178.967 87.7049 243.955 87.7049C244.487 87.8032 245.107 87.7541 245.728 87.7541H249.54C249.895 87.7541 250.25 87.7541 250.604 87.7541C282.877 87.7541 327.65 87.7541 359.923 87.7541H364.799C367.902 87.7541 370.917 87.6557 373.931 87.3114C385.191 86.1308 393.614 82.4908 400.529 77.621C407.711 72.5545 412.676 66.7501 417.995 61.0934C419.769 59.2242 421.542 57.4041 423.404 55.6333C423.492 55.5841 423.492 55.5349 423.581 55.4858C424.645 54.4528 425.798 53.469 427.039 52.4852C427.127 52.436 427.127 52.3868 427.216 52.3376C428.546 51.2555 429.876 50.2225 431.383 49.2387C431.472 49.1895 431.56 49.1403 431.649 49.0911C432.27 48.6976 432.89 48.3041 433.511 47.9106C433.511 47.9106 433.511 47.9106 433.6 47.8614C435.55 46.6808 437.678 45.5987 439.983 44.5657C441.402 44.0738 441.047 43.7787 440.072 43.2868ZM432.358 44.5657C432.181 44.6641 431.915 44.7624 431.738 44.8608C431.738 44.8608 431.738 44.8608 431.649 44.91C431.294 45.1068 430.94 45.2543 430.674 45.4511C430.585 45.5003 430.497 45.5495 430.408 45.5987C428.457 46.73 426.684 47.9106 425 49.1403L424.822 49.2879C423.492 50.2717 422.251 51.3046 421.099 52.3376C421.01 52.3868 421.01 52.436 420.921 52.4852C419.769 53.469 418.705 54.502 417.729 55.4858C417.641 55.5349 417.641 55.5841 417.552 55.6333C416.4 56.8139 415.247 57.9944 414.094 59.175C409.129 64.3399 404.696 69.6031 398.579 74.3745C392.639 78.9491 385.634 82.7367 375.438 84.2124C372.069 84.7043 368.7 84.9503 365.331 84.9503H342.368C317.1 84.9503 291.743 84.9503 266.386 84.9503C265.854 84.9503 265.411 84.9503 265.056 84.8519C257.52 84.8519 249.452 84.8519 241.029 84.8519C178.967 84.8519 100.591 84.9011 80.5536 84.9011H75.6772C72.2195 84.9011 68.8504 84.6551 65.5699 84.1632C55.374 82.6875 48.3698 78.8999 42.4295 74.3253C36.312 69.5539 31.7903 64.2907 26.914 59.1258C25.7614 57.9452 24.6088 56.7647 23.4562 55.5841C23.3675 55.5349 23.3675 55.4858 23.2789 55.4366C22.2149 54.4036 21.151 53.4198 20.0871 52.436C19.9984 52.3868 19.9984 52.3376 19.9098 52.2884C18.7572 51.2555 17.5159 50.2225 16.186 49.2387L16.0087 49.0911C14.3242 47.8614 12.551 46.6808 10.6004 45.5495C10.5118 45.5003 10.4231 45.4511 10.3344 45.4019C9.9798 45.2051 9.71382 45.0084 9.35917 44.8608C9.35917 44.8608 9.35917 44.8608 9.27051 44.8116C9.09319 44.7133 8.91587 44.6149 8.64989 44.5165C7.67462 44.0246 7.85195 43.7787 8.73855 43.3359C9.35917 43.0408 9.9798 42.6965 10.6004 42.3522C10.6891 42.303 10.7777 42.2538 10.8664 42.2046C10.9551 42.1554 11.0437 42.1062 11.0437 42.1062C11.1324 42.1062 11.1324 42.057 11.1324 42.057C12.8169 41.0732 14.4128 39.9911 15.8314 38.9089L16.0087 38.7613C16.2747 38.5646 16.5407 38.3678 16.8067 38.171C17.8706 37.3348 18.8458 36.4986 19.8211 35.6624L19.9984 35.5148C21.0624 34.5802 22.0376 33.6456 23.0129 32.6618C23.1016 32.6126 23.1016 32.5634 23.1902 32.5143C25.6727 30.0548 27.9779 27.5953 30.2831 25.0866C34.8047 20.2661 39.2378 15.4947 45.5327 11.3136C53.6894 5.80436 63.974 2.95137 77.0071 3.04975C77.8937 3.04975 78.7803 3.04975 79.667 3.04975C85.6072 3.09894 91.5475 3.09894 97.4877 3.09894C107.684 3.09894 117.791 3.04975 127.987 3.04975H128.608C135.878 3.04975 143.059 3.04975 150.329 3.04975C154.674 3.04975 199.093 3.00056 241.118 3.00056C278.266 2.95137 313.465 2.95137 317.366 2.95137H317.543C317.986 2.95137 318.341 3.00056 318.696 3.04975C326.586 3.04975 334.566 3.09894 342.457 3.09894H343.343C349.284 3.09894 355.224 3.09894 361.164 3.04975C362.051 3.04975 362.937 3.04975 363.824 3.04975C376.857 2.95137 387.142 5.80436 395.298 11.3136C401.505 15.5439 406.026 20.3153 410.548 25.0866C412.853 27.5461 415.158 30.0548 417.641 32.5143C417.729 32.5634 417.729 32.6126 417.818 32.6618C418.793 33.5964 419.769 34.5802 420.833 35.5148L421.01 35.6624C421.985 36.4986 422.96 37.3348 424.024 38.171C424.29 38.3678 424.556 38.5646 424.822 38.7613L425 38.9089C426.507 39.9911 428.014 41.0732 429.699 42.057L429.787 42.1062C429.876 42.1554 429.965 42.2046 429.965 42.2046C430.053 42.2538 430.142 42.303 430.231 42.3522C430.851 42.6965 431.383 43.0408 432.092 43.3359C433.156 43.7787 433.422 44.0246 432.358 44.5657Z" fill="#F2DEBA"/>
<path d="M427.393 43.3359C426.773 43.0408 420.832 39.1548 420.212 38.8597C420.123 38.8105 420.034 38.7613 420.034 38.7121C419.857 38.5646 419.591 38.417 419.414 38.2694C419.325 38.2202 419.325 38.171 419.237 38.1218C418.173 37.2856 414.094 33.5964 413.119 32.7602C413.03 32.711 413.03 32.6618 412.942 32.6126C412.232 31.8748 411.434 31.1369 410.725 30.3991C409.395 29.071 408.154 27.6937 406.913 26.3656C406.469 25.9229 406.115 25.4801 405.671 25.0866C401.948 21.1023 398.224 17.1671 393.525 13.5271C392.993 13.1336 392.461 12.7893 391.84 12.3957C384.482 7.57517 375.35 5.1157 363.824 5.26327C357.263 5.36164 350.613 5.36164 344.052 5.31245C338.023 5.31245 331.906 5.26327 325.788 5.26327H316.036C315.592 5.16489 315.149 5.16489 314.617 5.16489C308.588 5.16489 288.196 5.16489 262.573 5.21408C256.988 5.21408 251.225 5.21408 245.285 5.21408C245.285 5.16489 245.285 5.16489 245.373 5.16489H243.423C243.423 5.21408 243.423 5.21408 243.334 5.21408C242.093 5.21408 240.763 5.21408 239.522 5.21408C187.478 5.26327 126.302 5.26327 115.042 5.26327C102.364 5.26327 89.6855 5.36164 77.007 5.21408C65.4811 5.06651 56.2604 7.52598 48.9903 12.3466C48.4583 12.7401 47.8377 13.0844 47.3057 13.4779C42.6067 17.1179 38.883 21.1023 35.1592 25.0374C34.7159 25.4801 34.3613 25.9229 33.918 26.3164C32.6767 27.6445 31.4355 29.0218 30.1056 30.3499C29.3963 31.0877 28.687 31.8256 27.8891 32.5634C27.8004 32.6126 27.8004 32.6618 27.7118 32.711C26.7365 33.5472 22.6581 37.2364 21.5942 38.0727C21.5055 38.1218 21.5055 38.171 21.4169 38.2202C21.2395 38.3678 21.0622 38.5154 20.7962 38.6629C20.7076 38.7121 20.6189 38.7613 20.6189 38.8105C20.087 39.1548 14.058 42.9916 13.4374 43.2867C12.5508 43.7295 12.3735 43.9754 13.3488 44.4673C13.8807 44.7624 14.4127 45.0576 14.9446 45.3527C15.0333 45.4019 15.122 45.4511 15.2106 45.5003C15.388 45.6478 21.0622 49.4354 21.2395 49.583C22.3921 50.4684 23.4561 51.3538 24.4313 52.2392L24.52 52.2884C25.3179 53.1246 29.485 56.9122 30.0169 57.5025C30.5489 58.0436 30.9922 58.5355 31.5242 59.0766C32.3221 59.8636 33.0314 60.6998 33.8293 61.4869C37.9077 65.8647 41.8974 70.2426 47.0398 74.2761C47.1284 74.3253 47.1284 74.3745 47.2171 74.4237C49.5222 76.0469 52.1821 77.5718 55.1079 78.8999C60.6048 81.3594 67.077 82.5891 74.0812 82.5891C95.1824 82.5891 175.863 82.5891 239.078 82.54C247.147 82.54 254.86 82.54 262.219 82.54C263.903 82.54 265.588 82.54 267.272 82.54C267.627 82.5891 267.982 82.6383 268.425 82.6383C285.802 82.6383 303.18 82.6383 320.557 82.6383C328.271 82.6383 335.984 82.6383 343.698 82.6383C351.234 82.6383 358.77 82.6383 366.218 82.6383C373.31 82.6383 379.694 81.4086 385.191 78.9491C388.205 77.5718 390.776 76.0961 393.17 74.4729C393.259 74.4237 393.348 74.3745 393.348 74.3253C398.49 70.2918 402.48 65.9139 406.647 61.536C407.445 60.749 408.154 59.9128 408.952 59.1258C409.484 58.5847 409.927 58.0928 410.459 57.5517C411.08 56.9122 415.158 53.1246 415.956 52.3376L416.045 52.2884C417.109 51.3538 418.173 50.4684 419.237 49.6322C419.414 49.4846 425.088 45.697 425.265 45.5495C425.354 45.5003 425.443 45.4511 425.531 45.4019C426.063 45.1068 426.595 44.8116 427.127 44.5165C428.457 44.0246 428.28 43.7786 427.393 43.3359Z" fill="#811517"/>
</svg>
