<svg width="1207" height="41" viewBox="0 0 1207 41" fill="none" xmlns="http://www.w3.org/2000/svg">
<path d="M52.0747 20.377L1152.41 20.2809" stroke="#F2DEBA" stroke-width="5" stroke-miterlimit="10"/>
<path d="M24.3979 10.7802L14.7758 20.5205L24.3979 30.2608L34.02 20.5205L24.3979 10.7802Z" stroke="#F2DEBA" stroke-width="4" stroke-miterlimit="10"/>
<path d="M4.81606 15.6518L0.00500488 20.522L4.81606 25.3921L9.62712 20.522L4.81606 15.6518Z" fill="#F2DEBA"/>
<path d="M44.1024 15.6582L39.2914 20.5283L44.1024 25.3985L48.9135 20.5283L44.1024 15.6582Z" fill="#F2DEBA"/>
<path d="M1182.49 10.7802L1172.87 20.5205L1182.49 30.2608L1192.11 20.5205L1182.49 10.7802Z" stroke="#F2DEBA" stroke-width="4" stroke-miterlimit="10"/>
<path d="M1162.91 15.6577L1158.1 20.5278L1162.91 25.398L1167.72 20.5278L1162.91 15.6577Z" fill="#F2DEBA"/>
<path d="M1202.19 15.6557L1197.38 20.5259L1202.19 25.396L1207 20.5259L1202.19 15.6557Z" fill="#F2DEBA"/>
</svg>
