<svg width="1236" height="41" viewBox="0 0 1236 41" fill="none" xmlns="http://www.w3.org/2000/svg">
<path d="M53.3259 20.3768L1180.1 20.2807" stroke="#820000" stroke-width="5" stroke-miterlimit="10"/>
<path d="M24.984 10.7804L15.1307 20.5207L24.984 30.2609L34.8373 20.5207L24.984 10.7804Z" stroke="#820000" stroke-width="4" stroke-miterlimit="10"/>
<path d="M4.93178 15.6519L0.00512695 20.522L4.93178 25.3922L9.85842 20.522L4.93178 15.6519Z" fill="#820000"/>
<path d="M45.162 15.6581L40.2354 20.5282L45.162 25.3984L50.0886 20.5282L45.162 15.6581Z" fill="#820000"/>
<path d="M1210.9 10.7804L1201.05 20.5206L1210.9 30.2609L1220.75 20.5206L1210.9 10.7804Z" stroke="#820000" stroke-width="4" stroke-miterlimit="10"/>
<path d="M1190.85 15.6576L1185.92 20.5278L1190.85 25.3979L1195.78 20.5278L1190.85 15.6576Z" fill="#820000"/>
<path d="M1231.07 15.6557L1226.15 20.5258L1231.07 25.396L1236 20.5258L1231.07 15.6557Z" fill="#820000"/>
</svg>
