<svg width="1507" height="51" viewBox="0 0 1507 51" fill="none" xmlns="http://www.w3.org/2000/svg">
<g clip-path="url(#clip0_69_67)">
<path d="M68.98 25.12H547.12" stroke="#820000" stroke-width="5" stroke-miterlimit="10"/>
<path d="M30.4442 13.2888L18.4375 25.2955L30.4442 37.3021L42.4508 25.2955L30.4442 13.2888Z" stroke="#820000" stroke-width="4" stroke-miterlimit="10"/>
<path d="M6.00944 19.2938L0.00610352 25.2972L6.00944 31.3005L12.0128 25.2972L6.00944 19.2938Z" fill="#820000"/>
<path d="M55.0319 19.3014L49.0286 25.3048L55.0319 31.3081L61.0352 25.3048L55.0319 19.3014Z" fill="#820000"/>
<path d="M594.512 9.69899L578.906 25.3048L594.512 40.9107L610.118 25.3048L594.512 9.69899Z" stroke="#820000" stroke-width="4" stroke-miterlimit="10"/>
<path d="M562.73 17.5031L554.931 25.3026L562.73 33.1019L570.529 25.3025L562.73 17.5031Z" fill="#820000"/>
<path d="M956.99 25.12H1435.13" stroke="#820000" stroke-width="5" stroke-miterlimit="10"/>
<path d="M910.431 9.69978L894.825 25.3056L910.431 40.9115L926.037 25.3056L910.431 9.69978Z" stroke="#820000" stroke-width="4" stroke-miterlimit="10"/>
<path d="M942.376 17.4971L934.577 25.2965L942.376 33.0959L950.175 25.2965L942.376 17.4971Z" fill="#820000"/>
<path d="M1475.53 13.2888L1463.53 25.2954L1475.53 37.3021L1487.54 25.2954L1475.53 13.2888Z" stroke="#820000" stroke-width="4" stroke-miterlimit="10"/>
<path d="M1451.1 19.3009L1445.1 25.3042L1451.1 31.3076L1457.11 25.3042L1451.1 19.3009Z" fill="#820000"/>
<path d="M1500.11 19.2985L1494.11 25.3018L1500.11 31.3052L1506.12 25.3019L1500.11 19.2985Z" fill="#820000"/>
</g>
<defs>
<clipPath id="clip0_69_67">
<rect width="1506.12" height="50.54" fill="white"/>
</clipPath>
</defs>
</svg>
