<svg width="242" height="282" viewBox="0 0 242 282" fill="none" xmlns="http://www.w3.org/2000/svg">
<path d="M225.665 8.37811C224.603 8.37304 223.488 8.37305 222.327 8.36798C209.931 8.34266 193.009 8.28695 191.983 8.30214C185.478 8.41356 180.421 11.4015 176.53 16.2986C172.108 21.8592 171.54 32.9044 180.395 39.2803C185.249 42.0504 190.343 42.9569 195.785 41.1338C197.879 40.4299 199.598 39.3917 200.952 38.075C201.051 37.9788 201.15 37.8775 201.249 37.7711C201.921 37.0773 202.494 36.3126 202.978 35.4719C203.816 34.0084 204.379 32.3524 204.671 30.5292C205.379 26.0879 203.879 22.1732 199.941 19.322C199.488 18.9928 199.02 18.6839 198.535 18.4104C195.296 16.5721 191.384 16.2125 187.978 18.1116C184.863 19.8487 183.066 23.0999 183.098 26.5892C183.108 27.9059 183.363 29.2226 183.994 30.3823C184.962 32.1498 186.816 33.431 188.848 33.74C192.02 34.2211 195.4 32.327 196.316 29.3189C196.405 29.0201 196.561 28.4529 196.535 28.2655C196.53 28.2351 196.52 28.2098 196.488 28.1997L192.551 26.8475C192.53 26.8374 192.509 26.8475 192.494 26.8677C192.415 26.964 192.197 27.4653 191.702 28.1439C191.061 29.0251 189.79 29.6025 188.796 28.8529C188.374 28.5339 188.087 28.0629 187.91 27.5666C187.27 25.7891 188.061 23.6823 189.613 22.553C191.16 21.4186 193.327 21.2363 195.145 21.8794C200.145 23.6519 201.379 29.7848 198.41 33.7805C197.155 35.4719 195.238 36.657 193.171 37.1989C192.832 37.2849 192.488 37.3609 192.145 37.4166C185.645 38.475 179.806 34.0286 178.837 27.7945C177.514 19.2815 185.129 13.0626 192.03 13.0777C192.03 13.0777 209.483 13.0474 217.535 13.0524C222.905 13.0626 228.275 13.0676 233.645 13.0676V8.37811H225.665ZM233.65 8.37811H233.645H233.301" fill="#F2DEBA"/>
<path d="M233.65 8.3678H228.827C228.827 13.5891 228.832 18.8103 228.843 24.0316C228.848 31.8609 228.816 48.8313 228.816 48.8313C228.832 55.5414 222.436 62.9454 213.681 61.6591C207.27 60.7171 202.697 55.0401 203.785 48.7199C203.843 48.3856 203.921 48.0514 204.009 47.7222C204.566 45.7117 205.785 43.8481 207.525 42.6276C211.634 39.7409 217.941 40.9412 219.764 45.8029C220.426 47.5703 220.238 49.677 219.072 51.1811C217.91 52.6903 215.744 53.46 213.915 52.8371C213.405 52.6649 212.921 52.3864 212.593 51.9762C211.822 51.0089 212.415 49.7732 213.322 49.1503C214.02 48.6692 214.535 48.4565 214.634 48.3806C214.655 48.3654 214.665 48.3451 214.655 48.3249L213.264 44.4963C213.254 44.4659 213.228 44.4558 213.197 44.4507C213.004 44.4254 212.421 44.5773 212.113 44.6634C209.02 45.5547 207.072 48.8414 207.566 51.9256C207.884 53.9006 209.202 55.7035 211.02 56.6455C212.212 57.2582 213.566 57.5064 214.921 57.5165C218.509 57.5469 221.853 55.7997 223.639 52.7713C225.593 49.4593 225.223 45.656 223.332 42.506C223.051 42.035 222.733 41.5793 222.395 41.1387C219.462 37.3101 215.436 35.8516 210.869 36.5403C208.994 36.8239 207.29 37.3709 205.785 38.1862C204.921 38.6572 204.134 39.2143 203.421 39.8675C203.311 39.9638 203.207 40.06 203.108 40.1562C201.754 41.4729 200.686 43.1441 199.962 45.18C198.087 50.4721 199.02 55.425 201.869 60.1449C208.426 68.7541 219.785 68.2021 225.504 63.9025C230.54 60.1195 233.613 55.2021 233.728 48.8769C233.744 47.8792 233.686 31.4254 233.66 19.3724C233.655 18.2431 233.655 17.1594 233.65 16.1263V8.3678ZM233.65 8.70204V8.37792V8.3678" fill="#F2DEBA"/>
<path d="M9.16665 8.37811V13.0676C14.5364 13.0676 19.9062 13.0626 25.276 13.0524C33.3281 13.0474 50.7812 13.0777 50.7812 13.0777C57.6823 13.0626 65.2968 19.2815 63.9739 27.7945C63.0052 34.0286 57.1666 38.475 50.6666 37.4166C50.3229 37.3609 49.9791 37.2849 49.6406 37.1989C47.5729 36.657 45.6562 35.4719 44.401 33.7805C41.4323 29.7848 42.6666 23.6519 47.6666 21.8794C49.4843 21.2363 51.651 21.4186 53.1979 22.553C54.75 23.6823 55.5416 25.7891 54.901 27.5666C54.7239 28.0629 54.4375 28.5339 54.0156 28.8529C53.0208 29.6025 51.75 29.0251 51.1094 28.1439C50.6146 27.4653 50.3958 26.964 50.3177 26.8677C50.3021 26.8475 50.2812 26.8374 50.2604 26.8475L46.3229 28.1997C46.2916 28.2098 46.2812 28.2351 46.276 28.2655C46.25 28.4529 46.4062 29.0201 46.4948 29.3189C47.4114 32.327 50.7916 34.2211 53.9635 33.74C55.9948 33.431 57.8489 32.1498 58.8177 30.3823C59.4479 29.2226 59.7031 27.9059 59.7135 26.5892C59.7448 23.0999 57.9479 19.8487 54.8333 18.1116C51.4271 16.2125 47.5156 16.5721 44.276 18.4104C43.7917 18.6839 43.3229 18.9928 42.8698 19.322C38.9323 22.1732 37.4323 26.0879 38.1406 30.5292C38.4323 32.3524 38.9948 34.0084 39.8333 35.4719C40.3177 36.3126 40.8906 37.0773 41.5625 37.7711C41.6614 37.8775 41.7604 37.9788 41.8594 38.075C43.2135 39.3917 44.9323 40.4299 47.026 41.1338C52.4687 42.9569 57.5625 42.0504 62.4166 39.2803C71.2708 32.9044 70.7031 21.8592 66.2812 16.2986C62.3906 11.4015 57.3333 8.41356 50.8281 8.30214C49.8021 8.28695 32.8802 8.34266 20.4844 8.36798C19.3229 8.37305 18.2083 8.37304 17.1458 8.37811H9.16665ZM9.5104 8.37811H9.16665H9.16144" fill="#F2DEBA"/>
<path d="M9.16147 16.1263C9.15626 17.1594 9.15626 18.2431 9.15105 19.3724C9.12501 31.4254 9.06772 47.8792 9.08335 48.8769C9.19793 55.2021 12.2708 60.1195 17.3073 63.9025C23.0261 68.2021 34.3854 68.7541 40.9427 60.1449C43.7917 55.425 44.724 50.4721 42.849 45.18C42.125 43.1441 41.0573 41.4729 39.7031 40.1562C39.6042 40.06 39.5 39.9638 39.3906 39.8675C38.6771 39.2143 37.8906 38.6572 37.0261 38.1862C35.5208 37.3709 33.8177 36.8239 31.9427 36.5403C27.375 35.8516 23.349 37.3101 20.4167 41.1387C20.0781 41.5793 19.7604 42.035 19.4792 42.506C17.5886 45.656 17.2188 49.4593 19.1719 52.7713C20.9583 55.7997 24.3021 57.5469 27.8906 57.5165C29.2448 57.5064 30.599 57.2582 31.7917 56.6455C33.6094 55.7035 34.9271 53.9006 35.2448 51.9256C35.7396 48.8414 33.7917 45.5547 30.6979 44.6634C30.3906 44.5773 29.8073 44.4254 29.6146 44.4507C29.5833 44.4558 29.5573 44.4659 29.5469 44.4963L28.1563 48.3249C28.1458 48.3451 28.1563 48.3654 28.1771 48.3806C28.2761 48.4565 28.7917 48.6692 29.4896 49.1503C30.3958 49.7732 30.9896 51.0089 30.2188 51.9762C29.8906 52.3864 29.4063 52.6649 28.8959 52.8371C27.0677 53.46 24.9011 52.6903 23.7396 51.1811C22.5729 49.677 22.3854 47.5703 23.0469 45.8029C24.8698 40.9412 31.1771 39.7409 35.2865 42.6276C37.0261 43.8481 38.2448 45.7117 38.8021 47.7222C38.8906 48.0514 38.9688 48.3856 39.0261 48.7199C40.1146 55.0401 35.5417 60.7171 29.1302 61.6591C20.375 62.9454 13.9792 55.5414 13.9948 48.8313C13.9948 48.8313 13.9635 31.8609 13.9688 24.0316C13.9792 18.8103 13.9844 13.5891 13.9844 8.3678H9.16147V16.1263ZM9.16147 8.3678V8.37792V8.70204" fill="#F2DEBA"/>
<path d="M233.645 273.503V268.814C228.275 268.814 222.905 268.819 217.535 268.829C209.483 268.834 192.03 268.804 192.03 268.804C185.129 268.819 177.514 262.6 178.837 254.087C179.806 247.853 185.645 243.406 192.145 244.465C192.488 244.52 192.832 244.596 193.171 244.683C195.238 245.224 197.155 246.409 198.41 248.101C201.379 252.097 200.145 258.229 195.145 260.002C193.327 260.645 191.16 260.463 189.613 259.328C188.061 258.199 187.27 256.092 187.91 254.315C188.087 253.818 188.374 253.347 188.796 253.028C189.79 252.279 191.061 252.856 191.702 253.737C192.197 254.416 192.415 254.917 192.494 255.014C192.509 255.034 192.53 255.044 192.551 255.034L196.488 253.682C196.52 253.672 196.53 253.646 196.535 253.616C196.561 253.429 196.405 252.861 196.316 252.563C195.4 249.554 192.02 247.66 188.848 248.141C186.816 248.45 184.962 249.732 183.994 251.499C183.363 252.659 183.108 253.975 183.098 255.292C183.066 258.781 184.863 262.033 187.978 263.77C191.384 265.669 195.296 265.309 198.535 263.471C199.02 263.197 199.488 262.889 199.941 262.559C203.879 259.708 205.379 255.794 204.671 251.352C204.379 249.529 203.816 247.873 202.978 246.409C202.494 245.569 201.921 244.804 201.249 244.11C201.15 244.004 201.051 243.903 200.952 243.806C199.598 242.49 197.879 241.452 195.785 240.748C190.342 238.924 185.249 239.831 180.395 242.601C171.54 248.977 172.108 260.022 176.53 265.583C180.421 270.48 185.478 273.468 191.983 273.579C193.009 273.594 209.931 273.539 222.327 273.513C223.488 273.508 224.603 273.508 225.665 273.503H233.645ZM233.301 273.503H233.645H233.65" fill="#F2DEBA"/>
<path d="M233.65 265.755C233.655 264.722 233.655 263.638 233.66 262.509C233.686 250.456 233.744 234.002 233.728 233.004C233.613 226.679 230.54 221.762 225.504 217.979C219.785 213.679 208.426 213.127 201.869 221.736C199.02 226.456 198.087 231.409 199.962 236.701C200.686 238.737 201.754 240.408 203.108 241.725C203.207 241.821 203.311 241.917 203.421 242.014C204.134 242.667 204.921 243.224 205.785 243.695C207.29 244.51 208.994 245.057 210.869 245.341C215.436 246.03 219.462 244.571 222.395 240.743C222.733 240.302 223.051 239.846 223.332 239.375C225.223 236.225 225.593 232.422 223.639 229.11C221.853 226.081 218.509 224.334 214.921 224.365C213.566 224.375 212.212 224.623 211.02 225.236C209.202 226.178 207.884 227.981 207.566 229.956C207.072 233.04 209.02 236.326 212.113 237.218C212.421 237.304 213.004 237.456 213.197 237.43C213.228 237.425 213.254 237.415 213.264 237.385L214.655 233.556C214.665 233.536 214.655 233.516 214.634 233.501C214.535 233.425 214.02 233.212 213.322 232.731C212.415 232.108 211.822 230.872 212.593 229.905C212.921 229.495 213.405 229.216 213.915 229.044C215.744 228.421 217.91 229.191 219.072 230.7C220.238 232.204 220.426 234.311 219.764 236.078C217.941 240.94 211.634 242.14 207.525 239.254C205.785 238.033 204.566 236.169 204.009 234.159C203.921 233.83 203.843 233.496 203.785 233.161C202.697 226.841 207.27 221.164 213.681 220.222C222.436 218.936 228.832 226.34 228.816 233.05C228.816 233.05 228.848 250.02 228.843 257.85C228.832 263.071 228.827 268.292 228.827 273.513H233.65V265.755ZM233.65 273.513V273.503V273.179" fill="#F2DEBA"/>
<path d="M17.1458 273.503C18.2083 273.508 19.3229 273.508 20.4844 273.513C32.8802 273.539 49.8021 273.594 50.8281 273.579C57.3333 273.468 62.3906 270.48 66.2812 265.583C70.7031 260.022 71.2708 248.977 62.4166 242.601C57.5625 239.831 52.4687 238.924 47.026 240.748C44.9323 241.452 43.2135 242.49 41.8594 243.806C41.7604 243.903 41.6614 244.004 41.5625 244.11C40.8906 244.804 40.3177 245.569 39.8333 246.409C38.9948 247.873 38.4323 249.529 38.1406 251.352C37.4323 255.794 38.9323 259.708 42.8698 262.559C43.3229 262.889 43.7917 263.197 44.276 263.471C47.5156 265.309 51.4271 265.669 54.8333 263.77C57.9479 262.033 59.7448 258.781 59.7135 255.292C59.7031 253.975 59.4479 252.659 58.8177 251.499C57.8489 249.732 55.9948 248.45 53.9635 248.141C50.7916 247.66 47.4114 249.554 46.4948 252.563C46.4062 252.861 46.25 253.429 46.276 253.616C46.2812 253.646 46.2916 253.672 46.3229 253.682L50.2604 255.034C50.2812 255.044 50.3021 255.034 50.3177 255.014C50.3958 254.917 50.6146 254.416 51.1094 253.737C51.75 252.856 53.0208 252.279 54.0156 253.028C54.4375 253.347 54.7239 253.818 54.901 254.315C55.5416 256.092 54.75 258.199 53.1979 259.328C51.651 260.463 49.4843 260.645 47.6666 260.002C42.6666 258.229 41.4323 252.097 44.401 248.101C45.6562 246.409 47.5729 245.224 49.6406 244.683C49.9791 244.596 50.3229 244.52 50.6666 244.465C57.1666 243.406 63.0052 247.853 63.9739 254.087C65.2968 262.6 57.6823 268.819 50.7812 268.804C50.7812 268.804 33.3281 268.834 25.276 268.829C19.9062 268.819 14.5364 268.814 9.16665 268.814V273.503H17.1458ZM9.16144 273.503H9.5104H9.16144Z" fill="#F2DEBA"/>
<path d="M9.16147 273.513H13.9844C13.9844 268.292 13.9792 263.071 13.9688 257.85C13.9635 250.02 13.9948 233.05 13.9948 233.05C13.9792 226.34 20.375 218.936 29.1302 220.222C35.5417 221.164 40.1146 226.841 39.0261 233.161C38.9688 233.496 38.8906 233.83 38.8021 234.159C38.2448 236.169 37.0261 238.033 35.2865 239.254C31.1771 242.14 24.8698 240.94 23.0469 236.078C22.3854 234.311 22.5729 232.204 23.7396 230.7C24.9011 229.191 27.0677 228.421 28.8959 229.044C29.4063 229.216 29.8906 229.495 30.2188 229.905C30.9896 230.872 30.3958 232.108 29.4896 232.731C28.7917 233.212 28.2761 233.425 28.1771 233.501C28.1563 233.516 28.1458 233.536 28.1563 233.556L29.5469 237.385C29.5573 237.415 29.5833 237.425 29.6146 237.43C29.8073 237.456 30.3906 237.304 30.6979 237.218C33.7917 236.326 35.7396 233.04 35.2448 229.956C34.9271 227.981 33.6094 226.178 31.7917 225.236C30.599 224.623 29.2448 224.375 27.8906 224.365C24.3021 224.334 20.9583 226.081 19.1719 229.11C17.2188 232.422 17.5886 236.225 19.4792 239.375C19.7604 239.846 20.0781 240.302 20.4167 240.743C23.349 244.571 27.375 246.03 31.9427 245.341C33.8177 245.057 35.5208 244.51 37.0261 243.695C37.8906 243.224 38.6771 242.667 39.3906 242.014C39.5 241.917 39.6042 241.821 39.7031 241.725C41.0573 240.408 42.125 238.737 42.849 236.701C44.724 231.409 43.7917 226.456 40.9427 221.736C34.3854 213.127 23.0261 213.679 17.3073 217.979C12.2708 221.762 9.19793 226.679 9.08335 233.004C9.06772 234.002 9.12501 250.456 9.15105 262.509C9.15626 263.638 9.15626 264.722 9.16147 265.755V273.513ZM9.16147 273.179V273.503V273.513" fill="#F2DEBA"/>
</svg>
