<svg width="439" height="435" viewBox="0 0 439 435" fill="none" xmlns="http://www.w3.org/2000/svg">
<path d="M429.529 0.081175C428.379 0.0759414 427.174 0.0759431 425.917 0.0707095C412.509 0.0445413 394.205 -0.0130314 393.095 0.00266956C386.058 0.11781 380.588 3.20566 376.38 8.26659C371.597 14.0131 370.982 25.4277 380.56 32.0169C385.811 34.8797 391.32 35.8165 397.208 33.9324C399.472 33.2049 401.332 32.132 402.796 30.7713C402.903 30.6718 403.01 30.5672 403.117 30.4572C403.844 29.7402 404.464 28.95 404.988 28.0812C405.895 26.5686 406.503 24.8572 406.819 22.9731C407.585 18.3832 405.962 14.3376 401.703 11.3911C401.213 11.0509 400.706 10.7316 400.182 10.449C396.678 8.54921 392.447 8.17762 388.763 10.1402C385.394 11.9354 383.45 15.2954 383.484 18.9014C383.495 20.2621 383.771 21.6229 384.453 22.8214C385.501 24.6479 387.506 25.972 389.703 26.2913C393.134 26.7885 396.791 24.8311 397.782 21.7223C397.878 21.4135 398.047 20.8273 398.019 20.6337C398.013 20.6023 398.002 20.5761 397.968 20.5657L393.709 19.1683C393.687 19.1578 393.664 19.1683 393.647 19.1892C393.563 19.2886 393.326 19.8068 392.791 20.5081C392.098 21.4187 390.723 22.0154 389.647 21.2408C389.191 20.9111 388.881 20.4243 388.689 19.9114C387.996 18.0744 388.853 15.8972 390.532 14.7301C392.205 13.5578 394.548 13.3694 396.515 14.0341C401.923 15.8658 403.258 22.2038 400.047 26.3331C398.689 28.0812 396.616 29.3058 394.379 29.8658C394.013 29.9548 393.641 30.0333 393.27 30.0909C386.239 31.1847 379.923 26.5896 378.875 20.147C377.444 11.3492 385.681 4.9223 393.146 4.938C393.146 4.938 412.024 4.9066 420.734 4.91183C426.543 4.9223 432.351 4.92753 438.159 4.92753V0.081175H429.529ZM438.165 0.081175H438.159H437.788" fill="#F2DEBA"/>
<path d="M438.165 0.0703125H432.948C432.948 5.4662 432.954 10.8621 432.965 16.258C432.971 24.3492 432.937 41.8871 432.937 41.8871C432.954 48.8217 426.036 56.4733 416.565 55.1439C409.63 54.1705 404.684 48.3036 405.861 41.772C405.923 41.4266 406.008 41.0811 406.103 40.741C406.706 38.6632 408.024 36.7372 409.906 35.4759C414.351 32.4927 421.174 33.7331 423.145 38.7574C423.861 40.5839 423.658 42.7611 422.396 44.3155C421.14 45.8752 418.796 46.6707 416.819 46.0269C416.267 45.849 415.743 45.5611 415.388 45.1372C414.554 44.1376 415.196 42.8606 416.176 42.2168C416.931 41.7196 417.489 41.4998 417.596 41.4213C417.619 41.4056 417.63 41.3847 417.619 41.3638L416.115 37.4071C416.103 37.3757 416.075 37.3652 416.041 37.36C415.833 37.3338 415.202 37.4909 414.869 37.5798C411.523 38.501 409.416 41.8976 409.951 45.0849C410.295 47.126 411.72 48.9892 413.686 49.9626C414.977 50.5959 416.441 50.8523 417.906 50.8628C421.788 50.8942 425.405 49.0886 427.337 45.9589C429.45 42.5361 429.05 38.6056 427.005 35.3503C426.7 34.8636 426.357 34.3925 425.991 33.9372C422.819 29.9806 418.464 28.4733 413.523 29.1851C411.495 29.4782 409.653 30.0434 408.024 30.886C407.089 31.3727 406.239 31.9484 405.467 32.6236C405.348 32.723 405.236 32.8224 405.129 32.9219C403.664 34.2826 402.509 36.0097 401.726 38.1137C399.698 43.5828 400.706 48.7013 403.788 53.5791C410.881 62.4763 423.168 61.9058 429.354 57.4624C434.802 53.5529 438.126 48.471 438.25 41.9342C438.267 40.9032 438.205 23.8991 438.176 11.443C438.171 10.2759 438.171 9.15592 438.165 8.08825V0.0703125ZM438.165 0.415731V0.080778V0.0703125" fill="#F2DEBA"/>
<path d="M0.0930416 0.081175V4.92753C5.90146 4.92753 11.7099 4.9223 17.5183 4.91183C26.2281 4.9066 45.1068 4.938 45.1068 4.938C52.5716 4.9223 60.8081 11.3492 59.3772 20.147C58.3293 26.5896 52.0138 31.1847 44.9829 30.0909C44.6111 30.0333 44.2392 29.9548 43.873 29.8658C41.6364 29.3058 39.5632 28.0812 38.2055 26.3331C34.9942 22.2038 36.3294 15.8658 41.7378 14.0341C43.704 13.3694 46.0477 13.5578 47.7209 14.7301C49.3998 15.8972 50.2561 18.0744 49.5631 19.9114C49.3716 20.4243 49.0617 20.9111 48.6054 21.2408C47.5294 22.0154 46.1547 21.4187 45.4618 20.5081C44.9266 19.8068 44.6899 19.2886 44.6054 19.1892C44.5885 19.1683 44.566 19.1578 44.5435 19.1683L40.2843 20.5657C40.2505 20.5761 40.2393 20.6023 40.2336 20.6337C40.2055 20.8273 40.3745 21.4135 40.4702 21.7223C41.4618 24.8311 45.1181 26.7885 48.5491 26.2913C50.7462 25.972 52.7519 24.6479 53.7997 22.8214C54.4814 21.6229 54.7575 20.2621 54.7687 18.9014C54.8025 15.2954 52.8589 11.9354 49.4899 10.1402C45.8054 8.17762 41.5745 8.54921 38.0703 10.449C37.5463 10.7316 37.0393 11.0509 36.5491 11.3911C32.29 14.3376 30.6675 18.3832 31.4337 22.9731C31.7492 24.8572 32.3576 26.5686 33.2647 28.0812C33.7886 28.95 34.4083 29.7402 35.1351 30.4572C35.2421 30.5672 35.3491 30.6718 35.4562 30.7713C36.921 32.132 38.7801 33.2049 41.0449 33.9324C46.9322 35.8165 52.442 34.8797 57.6927 32.0169C67.2701 25.4277 66.656 14.0131 61.8729 8.26659C57.6645 3.20566 52.1941 0.11781 45.1575 0.00266956C44.0477 -0.0130314 25.7436 0.0445413 12.3352 0.0707095C11.0789 0.0759431 9.87326 0.0759414 8.72397 0.081175H0.0930416ZM0.464864 0.081175H0.0930416H0.0874023" fill="#F2DEBA"/>
<path d="M0.087377 8.08825C0.0817433 9.15592 0.0817409 10.2759 0.0761071 11.443C0.0479383 23.8991 -0.0140273 40.9032 0.00287397 41.9342C0.126817 48.471 3.45074 53.5529 8.89859 57.4624C15.0845 61.9058 27.3717 62.4763 34.4646 53.5791C37.5463 48.7013 38.5547 43.5828 36.5266 38.1137C35.7435 36.0097 34.5886 34.2826 33.1238 32.9219C33.0168 32.8224 32.9041 32.723 32.7858 32.6236C32.0139 31.9484 31.1632 31.3727 30.228 30.886C28.5999 30.0434 26.7576 29.4782 24.7295 29.1851C19.7887 28.4733 15.4338 29.9806 12.2619 33.9372C11.8958 34.3925 11.5521 34.8636 11.2479 35.3503C9.20281 38.6056 8.80282 42.5361 10.9155 45.9589C12.8479 49.0886 16.4647 50.8942 20.3464 50.8628C21.8112 50.8523 23.276 50.5959 24.5661 49.9626C26.5323 48.9892 27.9576 47.126 28.3013 45.0849C28.8365 41.8976 26.7295 38.501 23.383 37.5798C23.0506 37.4909 22.4196 37.3338 22.2112 37.36C22.1774 37.3652 22.1492 37.3757 22.1379 37.4071L20.6337 41.3638C20.6225 41.3847 20.6337 41.4056 20.6563 41.4213C20.7633 41.4998 21.321 41.7196 22.076 42.2168C23.0562 42.8606 23.6985 44.1376 22.8647 45.1372C22.5098 45.5611 21.9858 45.849 21.4337 46.0269C19.4563 46.6707 17.1126 45.8752 15.8563 44.3155C14.5943 42.7611 14.3915 40.5839 15.107 38.7574C17.0788 33.7331 23.9013 32.4927 28.3464 35.4759C30.228 36.7372 31.5463 38.6632 32.1491 40.741C32.2449 41.0811 32.3294 41.4266 32.3914 41.772C33.5688 48.3036 28.6224 54.1705 21.6872 55.1439C12.2169 56.4733 5.29861 48.8217 5.31551 41.8871C5.31551 41.8871 5.28171 24.3492 5.28734 16.258C5.29861 10.8621 5.30425 5.4662 5.30425 0.0703125H0.087377V8.08825ZM0.087377 0.0703125V0.080778V0.415731" fill="#F2DEBA"/>
<path d="M438.159 434.521V429.675C432.351 429.675 426.543 429.68 420.734 429.691C412.024 429.696 393.146 429.664 393.146 429.664C385.681 429.68 377.444 423.253 378.875 414.455C379.923 408.013 386.239 403.418 393.27 404.512C393.641 404.569 394.013 404.648 394.379 404.737C396.616 405.297 398.689 406.521 400.047 408.269C403.258 412.399 401.923 418.737 396.515 420.568C394.548 421.233 392.205 421.045 390.532 419.872C388.853 418.705 387.996 416.528 388.689 414.691C388.881 414.178 389.191 413.691 389.647 413.362C390.723 412.587 392.098 413.184 392.791 414.094C393.326 414.796 393.563 415.314 393.647 415.413C393.664 415.434 393.687 415.445 393.709 415.434L397.968 414.037C398.002 414.026 398.013 414 398.019 413.969C398.047 413.775 397.878 413.189 397.782 412.88C396.791 409.771 393.134 407.814 389.703 408.311C387.506 408.63 385.501 409.955 384.453 411.781C383.771 412.98 383.495 414.34 383.484 415.701C383.45 419.307 385.394 422.667 388.763 424.462C392.447 426.425 396.678 426.053 400.182 424.153C400.706 423.871 401.213 423.552 401.703 423.211C405.962 420.265 407.585 416.219 406.819 411.629C406.503 409.745 405.895 408.034 404.988 406.521C404.464 405.652 403.844 404.862 403.117 404.145C403.01 404.035 402.903 403.931 402.796 403.831C401.332 402.47 399.472 401.398 397.208 400.67C391.32 398.786 385.81 399.723 380.56 402.586C370.982 409.175 371.597 420.589 376.38 426.336C380.588 431.397 386.058 434.485 393.095 434.6C394.205 434.615 412.509 434.558 425.917 434.532C427.174 434.526 428.379 434.526 429.529 434.521H438.159ZM437.788 434.521H438.159H438.165" fill="#F2DEBA"/>
<path d="M438.165 426.514C438.171 425.446 438.171 424.326 438.176 423.159C438.205 410.703 438.267 393.699 438.25 392.668C438.126 386.131 434.802 381.049 429.354 377.14C423.168 372.696 410.881 372.126 403.788 381.023C400.706 385.901 399.698 391.019 401.726 396.488C402.509 398.592 403.664 400.319 405.129 401.68C405.236 401.78 405.348 401.879 405.467 401.978C406.239 402.654 407.089 403.229 408.024 403.716C409.653 404.559 411.495 405.124 413.523 405.417C418.464 406.129 422.819 404.621 425.991 400.665C426.357 400.209 426.7 399.738 427.005 399.252C429.05 395.996 429.45 392.066 427.337 388.643C425.405 385.513 421.788 383.708 417.906 383.739C416.441 383.75 414.977 384.006 413.686 384.639C411.72 385.613 410.295 387.476 409.951 389.517C409.416 392.704 411.523 396.101 414.87 397.022C415.202 397.111 415.833 397.268 416.041 397.242C416.075 397.237 416.103 397.226 416.115 397.195L417.619 393.238C417.63 393.217 417.619 393.196 417.596 393.181C417.489 393.102 416.931 392.882 416.177 392.385C415.196 391.741 414.554 390.464 415.388 389.465C415.743 389.041 416.267 388.753 416.819 388.575C418.796 387.931 421.14 388.727 422.396 390.286C423.658 391.841 423.861 394.018 423.146 395.845C421.174 400.869 414.351 402.109 409.906 399.126C408.024 397.865 406.706 395.939 406.103 393.861C406.008 393.521 405.923 393.175 405.861 392.83C404.684 386.298 409.63 380.432 416.565 379.458C426.036 378.129 432.954 385.78 432.937 392.715C432.937 392.715 432.971 410.253 432.965 418.344C432.954 423.74 432.948 429.136 432.948 434.532H438.165V426.514ZM438.165 434.532V434.521V434.186" fill="#F2DEBA"/>
<path d="M8.72397 434.521C9.87326 434.526 11.0789 434.526 12.3352 434.532C25.7436 434.558 44.0477 434.615 45.1575 434.6C52.1941 434.485 57.6645 431.397 61.8729 426.336C66.656 420.589 67.2701 409.175 57.6927 402.586C52.442 399.723 46.9322 398.786 41.0449 400.67C38.7801 401.398 36.921 402.47 35.4562 403.831C35.3491 403.931 35.2421 404.035 35.1351 404.145C34.4083 404.862 33.7886 405.652 33.2647 406.521C32.3576 408.034 31.7492 409.745 31.4337 411.629C30.6675 416.219 32.29 420.265 36.5491 423.211C37.0393 423.552 37.5463 423.871 38.0703 424.153C41.5745 426.053 45.8054 426.425 49.4899 424.462C52.8589 422.667 54.8025 419.307 54.7687 415.701C54.7575 414.34 54.4814 412.98 53.7997 411.781C52.7519 409.955 50.7462 408.63 48.5491 408.311C45.1181 407.814 41.4618 409.771 40.4702 412.88C40.3745 413.189 40.2055 413.775 40.2336 413.969C40.2393 414 40.2505 414.026 40.2843 414.037L44.5435 415.434C44.566 415.445 44.5885 415.434 44.6054 415.413C44.6899 415.314 44.9266 414.796 45.4618 414.094C46.1547 413.184 47.5294 412.587 48.6054 413.362C49.0617 413.691 49.3716 414.178 49.5631 414.691C50.2561 416.528 49.3998 418.705 47.7209 419.872C46.0477 421.045 43.704 421.233 41.7378 420.568C36.3294 418.737 34.9942 412.399 38.2055 408.269C39.5632 406.521 41.6364 405.297 43.873 404.737C44.2392 404.648 44.6111 404.569 44.9829 404.512C52.0138 403.418 58.3293 408.013 59.3772 414.455C60.8081 423.253 52.5716 429.68 45.1068 429.664C45.1068 429.664 26.2281 429.696 17.5183 429.691C11.7099 429.68 5.90146 429.675 0.0930416 429.675V434.521H8.72397ZM0.0874023 434.521H0.464864H0.0874023Z" fill="#F2DEBA"/>
<path d="M0.087377 434.532H5.30425C5.30425 429.136 5.29861 423.74 5.28734 418.344C5.28171 410.253 5.31551 392.715 5.31551 392.715C5.29861 385.78 12.2169 378.129 21.6872 379.458C28.6224 380.432 33.5688 386.298 32.3914 392.83C32.3294 393.175 32.2449 393.521 32.1491 393.861C31.5463 395.939 30.228 397.865 28.3464 399.126C23.9013 402.109 17.0788 400.869 15.107 395.845C14.3915 394.018 14.5943 391.841 15.8563 390.286C17.1126 388.727 19.4563 387.931 21.4337 388.575C21.9858 388.753 22.5098 389.041 22.8647 389.465C23.6985 390.464 23.0562 391.741 22.076 392.385C21.321 392.882 20.7633 393.102 20.6563 393.181C20.6337 393.196 20.6225 393.217 20.6337 393.238L22.1379 397.195C22.1492 397.226 22.1774 397.237 22.2112 397.242C22.4196 397.268 23.0506 397.111 23.383 397.022C26.7295 396.101 28.8365 392.704 28.3013 389.517C27.9576 387.476 26.5323 385.613 24.5661 384.639C23.276 384.006 21.8112 383.75 20.3464 383.739C16.4647 383.708 12.8479 385.513 10.9155 388.643C8.80282 392.066 9.20281 395.996 11.2479 399.252C11.5521 399.738 11.8958 400.209 12.2619 400.665C15.4338 404.621 19.7887 406.129 24.7295 405.417C26.7576 405.124 28.5999 404.559 30.228 403.716C31.1632 403.229 32.0139 402.654 32.7858 401.978C32.9041 401.879 33.0168 401.78 33.1238 401.68C34.5886 400.319 35.7435 398.592 36.5266 396.488C38.5547 391.019 37.5463 385.901 34.4646 381.023C27.3717 372.126 15.0845 372.696 8.89859 377.14C3.45074 381.049 0.126817 386.131 0.00287397 392.668C-0.0140273 393.699 0.0479383 410.703 0.0761071 423.159C0.0817409 424.326 0.0817433 425.446 0.087377 426.514V434.532ZM0.087377 434.186V434.521V434.532" fill="#F2DEBA"/>
</svg>
