<svg xmlns="http://www.w3.org/2000/svg" width="558" height="393" viewBox="0 0 558 393" fill="none">
<path d="M279.5 163.312C273.529 163.312 267.693 165.083 262.729 168.4C257.764 171.717 253.895 176.432 251.61 181.948C249.326 187.464 248.728 193.533 249.893 199.389C251.057 205.245 253.932 210.624 258.154 214.846C262.376 219.068 267.755 221.943 273.611 223.107C279.467 224.272 285.536 223.674 291.052 221.39C296.568 219.105 301.283 215.236 304.6 210.271C307.917 205.307 309.687 199.471 309.687 193.5C309.687 185.494 306.507 177.815 300.846 172.154C295.185 166.493 287.506 163.312 279.5 163.312ZM295.558 195.43L269.683 208.367C269.354 208.532 268.988 208.609 268.621 208.593C268.254 208.576 267.897 208.466 267.584 208.272C267.272 208.079 267.014 207.809 266.835 207.488C266.656 207.167 266.562 206.805 266.562 206.437V180.562C266.563 180.195 266.657 179.834 266.836 179.513C267.015 179.192 267.273 178.922 267.585 178.729C267.898 178.536 268.255 178.426 268.622 178.41C268.989 178.393 269.354 178.471 269.683 178.635L295.558 191.572C295.915 191.752 296.216 192.027 296.426 192.367C296.636 192.708 296.748 193.1 296.748 193.5C296.748 193.9 296.636 194.292 296.426 194.633C296.216 194.973 295.915 195.248 295.558 195.428V195.43Z" fill="#F2DEBA"/>
<path d="M47.6301 107.824C47.0221 107.824 46.5101 107.616 46.0941 107.2C45.6941 106.784 45.4941 106.272 45.4941 105.664C45.4941 105.072 45.6941 104.576 46.0941 104.176C46.5101 103.76 47.0221 103.552 47.6301 103.552C48.2381 103.552 48.7501 103.76 49.1661 104.176C49.5821 104.576 49.7901 105.072 49.7901 105.664C49.7901 106.272 49.5821 106.784 49.1661 107.2C48.7501 107.616 48.2381 107.824 47.6301 107.824ZM45.4941 113.056C45.4941 112.464 45.6941 111.968 46.0941 111.568C46.5101 111.168 47.0221 110.968 47.6301 110.968C48.2381 110.968 48.7501 111.168 49.1661 111.568C49.5821 111.968 49.7901 112.464 49.7901 113.056C49.7901 113.664 49.5821 114.184 49.1661 114.616C48.7501 115.032 48.2381 115.24 47.6301 115.24C47.0221 115.24 46.5101 115.032 46.0941 114.616C45.6941 114.184 45.4941 113.664 45.4941 113.056ZM62.3631 107.776L62.5311 108.184C62.9311 109.064 63.2751 109.744 63.5631 110.224C63.8671 110.688 64.1711 111.024 64.4751 111.232C64.7951 111.44 65.1631 111.544 65.5791 111.544H65.9871L66.1551 113.32L65.9871 115H65.5791C64.2191 115 63.0511 114.464 62.0751 113.392C61.0991 114.464 59.7471 115 58.0191 115H56.7951C55.8191 115 54.9471 114.832 54.1791 114.496C53.4271 114.16 52.8351 113.8 52.4031 113.416L53.8431 110.656C54.1311 110.848 54.5311 111.048 55.0431 111.256C55.5711 111.448 56.1551 111.544 56.7951 111.544H58.0191C58.5471 111.544 58.9551 111.512 59.2431 111.448C59.5311 111.368 59.7471 111.232 59.8911 111.04C60.0031 110.864 60.0591 110.712 60.0591 110.584C60.0591 110.328 59.8991 109.872 59.5791 109.216L57.0351 103.696L59.8191 102.256L62.3631 107.776ZM65.731 111.544H68.395C69.115 111.544 69.627 111.424 69.931 111.184C70.235 110.928 70.371 110.568 70.339 110.104C70.259 109.112 70.051 107.784 69.715 106.12L72.595 105.4C72.787 106.248 72.963 107.152 73.123 108.112C73.299 109.072 73.387 109.848 73.387 110.44C73.387 111.24 73.211 111.984 72.859 112.672C72.507 113.36 71.971 113.92 71.251 114.352C70.547 114.784 69.675 115 68.635 115H65.731V111.544ZM64.387 117.928H67.243V120.808H64.387V117.928ZM68.875 117.928H71.755V120.808H68.875V117.928ZM79.1298 117.76C80.1218 117.76 80.8738 117.672 81.3858 117.496C81.8978 117.336 82.2498 117.056 82.4418 116.656C82.6498 116.272 82.7698 115.72 82.8018 115H80.7378C79.2178 115 78.0098 114.56 77.1138 113.68C76.2338 112.784 75.7938 111.536 75.7938 109.936C75.7938 108.8 76.0018 107.792 76.4178 106.912C76.8498 106.032 77.4338 105.352 78.1698 104.872C78.9218 104.376 79.7698 104.128 80.7138 104.128C81.7378 104.128 82.6338 104.368 83.4018 104.848C84.1858 105.328 84.7858 106.008 85.2018 106.888C85.6338 107.768 85.8498 108.784 85.8498 109.936V111.544H87.1698L87.3618 113.296L87.1698 115H85.8498C85.7858 116.872 85.2098 118.376 84.1218 119.512C83.0338 120.648 81.3698 121.216 79.1298 121.216H76.2738V117.76H79.1298ZM78.7218 109.768C78.7218 110.424 78.8818 110.912 79.2018 111.232C79.5218 111.536 80.0338 111.688 80.7378 111.688H82.8018V109.864C82.8018 108.2 82.1058 107.368 80.7138 107.368C80.0578 107.368 79.5618 107.592 79.2258 108.04C78.8898 108.488 78.7218 109.064 78.7218 109.768ZM98.4631 101.2L92.1991 104.008L95.3911 107.296C95.8711 107.792 96.2311 108.336 96.4711 108.928C96.7111 109.504 96.8311 110.096 96.8311 110.704C96.8311 111.456 96.6471 112.16 96.2791 112.816C95.9271 113.472 95.3991 114 94.6951 114.4C94.0071 114.8 93.1991 115 92.2711 115H86.9191V111.544H92.3431C92.7591 111.544 93.0791 111.464 93.3031 111.304C93.5431 111.128 93.6631 110.904 93.6631 110.632C93.6631 110.296 93.4951 109.96 93.1591 109.624L88.8871 105.304L89.6311 101.44L97.2391 98.056L98.4631 101.2ZM89.9191 98.68L95.9191 96.064L96.3511 97.216L89.7751 100.072L89.9191 98.68ZM108.66 108.952C107.796 110.904 107.364 112.512 107.364 113.776C107.364 115.056 107.66 116.008 108.252 116.632C108.844 117.272 109.82 117.592 111.18 117.592H113.244C115.564 117.592 116.724 117.16 116.724 116.296C116.724 115.896 116.42 115.608 115.812 115.432C114.98 115.176 113.836 115.032 112.38 115V111.544H120.324L120.516 113.224L120.324 115H119.364C119.604 115.352 119.724 115.816 119.724 116.392C119.708 117.208 119.42 117.968 118.86 118.672C118.316 119.392 117.556 119.968 116.58 120.4C115.604 120.832 114.492 121.048 113.244 121.048H111.18C109.772 121.048 108.548 120.728 107.508 120.088C106.484 119.448 105.7 118.576 105.156 117.472C104.628 116.384 104.364 115.168 104.364 113.824C104.364 112.896 104.524 111.872 104.844 110.752C105.18 109.632 105.58 108.576 106.044 107.584L108.66 108.952ZM120.083 111.544H120.707C121.027 111.544 121.267 111.472 121.427 111.328C121.603 111.168 121.731 110.912 121.811 110.56L122.435 108.256C122.787 106.864 123.379 105.8 124.211 105.064C125.043 104.328 126.043 103.96 127.211 103.96C128.139 103.96 128.963 104.216 129.683 104.728C130.419 105.224 130.995 105.92 131.411 106.816C131.827 107.696 132.035 108.688 132.035 109.792C132.035 111.12 131.819 112.208 131.387 113.056C130.955 113.888 130.411 114.496 129.755 114.88C129.115 115.248 128.443 115.432 127.739 115.432C127.195 115.432 126.619 115.32 126.011 115.096C125.419 114.888 124.531 114.504 123.347 113.944C122.979 114.28 122.571 114.544 122.123 114.736C121.675 114.912 121.219 115 120.755 115H120.083V111.544ZM124.811 111.04C125.675 111.44 126.315 111.712 126.731 111.856C127.147 112 127.523 112.072 127.859 112.072C128.739 112.072 129.179 111.32 129.179 109.816C129.179 109 129.003 108.376 128.651 107.944C128.299 107.496 127.843 107.272 127.283 107.272C126.819 107.272 126.411 107.44 126.059 107.776C125.707 108.112 125.451 108.6 125.291 109.24L124.811 111.04ZM144.663 115.24C142.855 115.24 141.431 114.664 140.391 113.512C139.351 112.344 138.831 110.752 138.831 108.736V108.472C138.831 107.24 139.055 106.144 139.503 105.184C139.951 104.224 140.607 103.472 141.471 102.928C142.351 102.368 143.407 102.088 144.639 102.088C146.207 102.088 147.463 102.536 148.407 103.432C149.367 104.312 149.863 105.496 149.895 106.984H146.847C146.831 106.264 146.615 105.696 146.199 105.28C145.783 104.848 145.247 104.632 144.591 104.632C142.927 104.632 142.087 105.912 142.071 108.472V108.856C142.055 110.168 142.255 111.136 142.671 111.76C143.103 112.384 143.751 112.696 144.615 112.696C145.255 112.696 145.783 112.512 146.199 112.144C146.615 111.76 146.831 111.272 146.847 110.68H149.895C149.879 111.512 149.647 112.28 149.199 112.984C148.751 113.672 148.127 114.224 147.327 114.64C146.543 115.04 145.655 115.24 144.663 115.24ZM156.699 115.24C155.707 115.24 154.795 115.056 153.963 114.688C153.131 114.32 152.467 113.816 151.971 113.176C151.491 112.52 151.251 111.792 151.251 110.992H154.323C154.339 111.632 154.563 112.12 154.995 112.456C155.443 112.792 156.027 112.96 156.747 112.96C157.403 112.96 157.907 112.832 158.259 112.576C158.627 112.304 158.811 111.952 158.811 111.52C158.811 111.072 158.595 110.72 158.163 110.464C157.747 110.208 157.067 109.976 156.123 109.768C154.635 109.448 153.515 108.976 152.763 108.352C152.027 107.728 151.659 106.936 151.659 105.976C151.659 105.24 151.867 104.576 152.283 103.984C152.715 103.392 153.307 102.928 154.059 102.592C154.827 102.256 155.699 102.088 156.675 102.088C157.715 102.088 158.627 102.264 159.411 102.616C160.211 102.952 160.827 103.424 161.259 104.032C161.707 104.64 161.931 105.344 161.931 106.144H158.691C158.691 105.6 158.507 105.168 158.139 104.848C157.771 104.512 157.275 104.344 156.651 104.344C156.091 104.344 155.635 104.488 155.283 104.776C154.931 105.048 154.755 105.4 154.755 105.832C154.755 106.296 154.987 106.64 155.451 106.864C155.931 107.088 156.603 107.304 157.467 107.512C157.915 107.608 158.227 107.688 158.403 107.752C159.603 108.088 160.491 108.552 161.067 109.144C161.659 109.72 161.955 110.472 161.955 111.4C161.955 112.152 161.731 112.824 161.283 113.416C160.835 113.992 160.211 114.44 159.411 114.76C158.627 115.08 157.723 115.24 156.699 115.24ZM171.955 109.264C172.067 109.712 172.123 110.168 172.123 110.632C172.123 110.936 172.099 111.224 172.051 111.496C172.163 111.672 172.323 111.808 172.531 111.904C172.739 112 172.979 112.048 173.251 112.048C173.683 112.048 174.043 111.904 174.331 111.616C174.619 111.312 174.763 110.856 174.763 110.248C174.731 109.224 174.347 108.088 173.611 106.84C172.891 105.592 171.811 104.296 170.371 102.952C169.043 104.2 168.051 105.416 167.395 106.6C166.739 107.768 166.411 108.864 166.411 109.888C166.411 110.608 166.547 111.144 166.819 111.496C167.091 111.832 167.467 112 167.947 112C168.411 112 168.787 111.848 169.075 111.544C169.379 111.24 169.531 110.808 169.531 110.248C169.531 110.152 169.515 109.976 169.483 109.72L171.955 109.264ZM163.531 110.08C163.531 108.704 163.939 107.232 164.755 105.664C165.587 104.096 166.747 102.592 168.235 101.152L167.323 100.48L169.195 97.96C170.971 99.304 172.483 100.712 173.731 102.184C174.995 103.64 175.947 105.072 176.587 106.48C177.227 107.872 177.547 109.152 177.547 110.32C177.547 111.328 177.339 112.2 176.923 112.936C176.523 113.656 175.979 114.208 175.291 114.592C174.619 114.96 173.883 115.144 173.083 115.144C172.139 115.144 171.331 114.784 170.659 114.064C170.275 114.4 169.835 114.664 169.339 114.856C168.859 115.032 168.347 115.12 167.803 115.12C167.051 115.12 166.347 114.92 165.691 114.52C165.035 114.12 164.507 113.544 164.107 112.792C163.723 112.024 163.531 111.12 163.531 110.08ZM184.332 114.304C183.58 114.304 182.876 114.112 182.22 113.728C181.58 113.344 181.068 112.832 180.684 112.192C180.3 111.552 180.108 110.856 180.108 110.104C180.108 109.352 180.3 108.656 180.684 108.016C181.068 107.376 181.58 106.872 182.22 106.504C182.876 106.12 183.58 105.928 184.332 105.928C185.1 105.928 185.804 106.12 186.444 106.504C187.1 106.872 187.62 107.376 188.004 108.016C188.388 108.64 188.58 109.336 188.58 110.104C188.58 110.856 188.388 111.552 188.004 112.192C187.62 112.832 187.1 113.344 186.444 113.728C185.804 114.112 185.1 114.304 184.332 114.304ZM182.796 110.104C182.796 110.552 182.948 110.928 183.252 111.232C183.556 111.536 183.916 111.688 184.332 111.688C184.748 111.688 185.108 111.536 185.412 111.232C185.716 110.928 185.868 110.552 185.868 110.104C185.868 109.656 185.716 109.288 185.412 109C185.124 108.696 184.764 108.544 184.332 108.544C183.916 108.544 183.556 108.696 183.252 109C182.948 109.304 182.796 109.672 182.796 110.104ZM194.572 108.544L190.924 102.328H194.428L196.588 106.264L198.82 102.328H202.3L198.628 108.544L202.468 115H198.964L196.612 110.848L194.26 115H190.756L194.572 108.544ZM208.8 115.24C207.808 115.24 206.896 115.056 206.064 114.688C205.232 114.32 204.568 113.816 204.072 113.176C203.592 112.52 203.352 111.792 203.352 110.992H206.424C206.44 111.632 206.664 112.12 207.096 112.456C207.544 112.792 208.128 112.96 208.848 112.96C209.504 112.96 210.008 112.832 210.36 112.576C210.728 112.304 210.912 111.952 210.912 111.52C210.912 111.072 210.696 110.72 210.264 110.464C209.848 110.208 209.168 109.976 208.224 109.768C206.736 109.448 205.616 108.976 204.864 108.352C204.128 107.728 203.76 106.936 203.76 105.976C203.76 105.24 203.968 104.576 204.384 103.984C204.816 103.392 205.408 102.928 206.16 102.592C206.928 102.256 207.8 102.088 208.776 102.088C209.816 102.088 210.728 102.264 211.512 102.616C212.312 102.952 212.928 103.424 213.36 104.032C213.808 104.64 214.032 105.344 214.032 106.144H210.792C210.792 105.6 210.608 105.168 210.24 104.848C209.872 104.512 209.376 104.344 208.752 104.344C208.192 104.344 207.736 104.488 207.384 104.776C207.032 105.048 206.856 105.4 206.856 105.832C206.856 106.296 207.088 106.64 207.552 106.864C208.032 107.088 208.704 107.304 209.568 107.512C210.016 107.608 210.328 107.688 210.504 107.752C211.704 108.088 212.592 108.552 213.168 109.144C213.76 109.72 214.056 110.472 214.056 111.4C214.056 112.152 213.832 112.824 213.384 113.416C212.936 113.992 212.312 114.44 211.512 114.76C210.728 115.08 209.824 115.24 208.8 115.24ZM216.232 97H219.496V103.744C220.392 102.64 221.536 102.088 222.928 102.088C224.304 102.088 225.336 102.488 226.024 103.288C226.728 104.088 227.088 105.28 227.104 106.864V115H223.864V106.888C223.848 106.12 223.672 105.56 223.336 105.208C223.016 104.84 222.496 104.656 221.776 104.656C221.264 104.656 220.808 104.768 220.408 104.992C220.024 105.216 219.72 105.528 219.496 105.928V115H216.232V97ZM229.903 102.328H233.167V115H229.903V102.328ZM229.711 99.016C229.711 98.536 229.871 98.144 230.191 97.84C230.527 97.52 230.975 97.36 231.535 97.36C232.079 97.36 232.519 97.52 232.855 97.84C233.191 98.144 233.359 98.536 233.359 99.016C233.359 99.496 233.191 99.896 232.855 100.216C232.519 100.52 232.079 100.672 231.535 100.672C230.975 100.672 230.527 100.52 230.191 100.216C229.871 99.896 229.711 99.496 229.711 99.016ZM235.992 102.328H239.088L239.16 103.888C239.864 102.688 240.824 102.088 242.04 102.088C242.456 102.088 242.808 102.136 243.096 102.232L243.048 105.256C242.824 105.192 242.424 105.16 241.848 105.16C240.536 105.16 239.672 105.64 239.256 106.6V115H235.992V102.328ZM248.128 115.24C247.328 115.24 246.6 115.08 245.944 114.76C245.288 114.424 244.768 113.968 244.384 113.392C244.016 112.8 243.832 112.152 243.832 111.448C243.832 110.104 244.336 109.072 245.344 108.352C246.368 107.632 247.824 107.272 249.712 107.272H251.296V106.48C251.296 105.824 251.128 105.32 250.792 104.968C250.456 104.616 249.96 104.44 249.304 104.44C248.712 104.44 248.24 104.592 247.888 104.896C247.536 105.184 247.36 105.576 247.36 106.072H244.144C244.144 105.336 244.368 104.664 244.816 104.056C245.28 103.448 245.912 102.968 246.712 102.616C247.528 102.264 248.448 102.088 249.472 102.088C251.024 102.088 252.248 102.472 253.144 103.24C254.04 103.992 254.504 105.04 254.536 106.384V112.072C254.536 113.224 254.696 114.136 255.016 114.808V115H251.752C251.624 114.712 251.512 114.304 251.416 113.776C250.584 114.752 249.488 115.24 248.128 115.24ZM247.096 111.208C247.096 111.688 247.256 112.072 247.576 112.36C247.896 112.648 248.32 112.792 248.848 112.792C249.376 112.792 249.864 112.664 250.312 112.408C250.76 112.136 251.088 111.808 251.296 111.424V109.168H249.928C248.04 109.168 247.096 109.848 247.096 111.208ZM256.747 113.032L262.939 104.872H256.939V102.328H267.043V104.224L260.803 112.456H267.235V115H256.747V113.032ZM273.519 115.24C272.143 115.24 271.095 114.84 270.375 114.04C269.671 113.24 269.311 112.072 269.295 110.536V102.328H272.559V110.536C272.559 111.96 273.183 112.672 274.431 112.672C275.647 112.672 276.471 112.232 276.903 111.352V102.328H280.167V115H277.119L277.047 113.68C276.199 114.72 275.023 115.24 273.519 115.24ZM294.471 106.96V113.728C294.471 116.032 293.871 117.824 292.671 119.104C291.471 120.4 289.759 121.048 287.535 121.048H286.023V117.592H287.535C288.543 117.592 289.319 117.472 289.863 117.232C290.423 117.008 290.815 116.616 291.039 116.056C291.279 115.512 291.399 114.736 291.399 113.728V106.96H294.471ZM291.303 100.984H294.495V104.104H291.303V100.984ZM297.27 98.968H300.318V115H297.27V98.968ZM324.606 115C324.062 115 323.582 114.872 323.166 114.616C323.134 116.6 322.582 118.168 321.51 119.32C320.438 120.472 318.766 121.048 316.494 121.048H314.43C312.99 121.048 311.758 120.728 310.734 120.088C309.71 119.448 308.934 118.584 308.406 117.496C307.878 116.408 307.614 115.192 307.614 113.848C307.614 112.872 307.782 111.832 308.118 110.728C308.454 109.624 308.854 108.608 309.318 107.68L311.862 109.024C311.03 110.768 310.614 112.376 310.614 113.848C310.614 115.096 310.902 116.032 311.478 116.656C312.07 117.28 313.054 117.592 314.43 117.592H316.494C317.518 117.592 318.286 117.504 318.798 117.328C319.31 117.152 319.654 116.848 319.83 116.416C320.022 115.984 320.118 115.344 320.118 114.496V106.96H323.166V110.344C323.166 110.808 323.286 111.128 323.526 111.304C323.782 111.464 324.142 111.544 324.606 111.544H325.11L325.326 113.344L325.11 115H324.606ZM314.334 104.776H317.526V107.896H314.334V104.776ZM330.616 110.32C330.616 111.376 330.384 112.256 329.92 112.96C329.456 113.664 328.88 114.184 328.192 114.52C327.504 114.84 326.832 115 326.176 115H324.88V111.544H326.008C327.048 111.544 327.568 111.032 327.568 110.008V98.968H330.616V110.32ZM338.488 115C336.808 115 335.568 114.512 334.768 113.536C333.984 112.56 333.592 111.248 333.592 109.6V98.968H336.64V109.6C336.64 110.208 336.672 110.64 336.736 110.896C336.816 111.152 336.976 111.328 337.216 111.424C337.472 111.504 337.896 111.544 338.488 111.544H339.352L339.496 113.32L339.352 115H338.488ZM339.107 111.544H339.731C340.051 111.544 340.291 111.472 340.451 111.328C340.627 111.168 340.755 110.912 340.835 110.56L341.459 108.256C341.811 106.864 342.403 105.8 343.235 105.064C344.067 104.328 345.067 103.96 346.235 103.96C347.163 103.96 347.987 104.216 348.707 104.728C349.443 105.224 350.019 105.92 350.435 106.816C350.851 107.696 351.059 108.688 351.059 109.792C351.059 111.12 350.843 112.208 350.411 113.056C349.979 113.888 349.435 114.496 348.779 114.88C348.139 115.248 347.467 115.432 346.763 115.432C346.219 115.432 345.643 115.32 345.035 115.096C344.443 114.888 343.555 114.504 342.371 113.944C342.003 114.28 341.595 114.544 341.147 114.736C340.699 114.912 340.243 115 339.779 115H339.107V111.544ZM343.835 111.04C344.699 111.44 345.339 111.712 345.755 111.856C346.171 112 346.547 112.072 346.883 112.072C347.763 112.072 348.203 111.32 348.203 109.816C348.203 109 348.027 108.376 347.675 107.944C347.323 107.496 346.867 107.272 346.307 107.272C345.843 107.272 345.435 107.44 345.083 107.776C344.731 108.112 344.475 108.6 344.315 109.24L343.835 111.04ZM368.223 107.776L368.391 108.184C368.791 109.064 369.135 109.744 369.423 110.224C369.727 110.688 370.031 111.024 370.335 111.232C370.655 111.44 371.023 111.544 371.439 111.544H371.847L372.015 113.32L371.847 115H371.439C370.079 115 368.911 114.464 367.935 113.392C366.959 114.464 365.607 115 363.879 115H362.655C361.679 115 360.807 114.832 360.039 114.496C359.287 114.16 358.695 113.8 358.263 113.416L359.703 110.656C359.991 110.848 360.391 111.048 360.903 111.256C361.431 111.448 362.015 111.544 362.655 111.544H363.879C364.407 111.544 364.815 111.512 365.103 111.448C365.391 111.368 365.607 111.232 365.751 111.04C365.863 110.864 365.919 110.712 365.919 110.584C365.919 110.328 365.759 109.872 365.439 109.216L362.895 103.696L365.679 102.256L368.223 107.776ZM371.59 111.544H374.254C374.974 111.544 375.486 111.424 375.79 111.184C376.094 110.928 376.23 110.568 376.198 110.104C376.118 109.112 375.91 107.784 375.574 106.12L378.454 105.4C378.646 106.248 378.822 107.152 378.982 108.112C379.158 109.072 379.246 109.848 379.246 110.44C379.246 111.24 379.07 111.984 378.718 112.672C378.366 113.36 377.83 113.92 377.11 114.352C376.406 114.784 375.534 115 374.494 115H371.59V111.544ZM370.246 117.928H373.102V120.808H370.246V117.928ZM374.734 117.928H377.614V120.808H374.734V117.928ZM384.989 117.76C385.981 117.76 386.733 117.672 387.245 117.496C387.757 117.336 388.109 117.056 388.301 116.656C388.509 116.272 388.629 115.72 388.661 115H386.597C385.077 115 383.869 114.56 382.973 113.68C382.093 112.784 381.653 111.536 381.653 109.936C381.653 108.8 381.861 107.792 382.277 106.912C382.709 106.032 383.293 105.352 384.029 104.872C384.781 104.376 385.629 104.128 386.573 104.128C387.597 104.128 388.493 104.368 389.261 104.848C390.045 105.328 390.645 106.008 391.061 106.888C391.493 107.768 391.709 108.784 391.709 109.936V111.544H393.029L393.221 113.296L393.029 115H391.709C391.645 116.872 391.069 118.376 389.981 119.512C388.893 120.648 387.229 121.216 384.989 121.216H382.133V117.76H384.989ZM384.581 109.768C384.581 110.424 384.741 110.912 385.061 111.232C385.381 111.536 385.893 111.688 386.597 111.688H388.661V109.864C388.661 108.2 387.965 107.368 386.573 107.368C385.917 107.368 385.421 107.592 385.085 108.04C384.749 108.488 384.581 109.064 384.581 109.768ZM392.802 111.544H396.33C397.05 111.544 397.562 111.424 397.866 111.184C398.17 110.928 398.306 110.568 398.274 110.104C398.194 109.112 397.986 107.784 397.65 106.12L400.53 105.4C400.722 106.248 400.898 107.152 401.058 108.112C401.234 109.072 401.322 109.848 401.322 110.44C401.322 111.24 401.146 111.984 400.794 112.672C400.442 113.36 399.906 113.92 399.186 114.352C398.482 114.784 397.61 115 396.57 115H392.802V111.544ZM393.234 117.952H396.09V120.808H393.234V117.952ZM397.722 117.952H400.602V120.808H397.722V117.952ZM410.907 103.912C412.699 106.696 413.547 108.016 413.451 107.872C414.075 108.88 414.387 109.88 414.387 110.872C414.387 111.736 414.163 112.48 413.715 113.104C413.235 113.792 412.643 114.28 411.939 114.568C411.251 114.856 410.427 115 409.467 115H408.195C407.187 115 406.299 114.84 405.531 114.52C404.763 114.184 404.163 113.824 403.731 113.44L405.171 110.68C405.475 110.872 405.875 111.064 406.371 111.256C406.883 111.448 407.499 111.544 408.219 111.544H409.395C409.939 111.544 410.347 111.512 410.619 111.448C410.891 111.368 411.091 111.232 411.219 111.04C411.299 110.912 411.339 110.784 411.339 110.656C411.339 110.4 411.195 110.048 410.907 109.6C409.899 108.064 408.675 106.24 407.235 104.128L409.803 102.208L410.907 103.912ZM428.604 106.96V113.728C428.604 116.032 428.004 117.824 426.804 119.104C425.604 120.4 423.892 121.048 421.668 121.048H420.156V117.592H421.668C422.676 117.592 423.452 117.472 423.996 117.232C424.556 117.008 424.948 116.616 425.172 116.056C425.412 115.512 425.532 114.736 425.532 113.728V106.96H428.604ZM434.067 117.76C435.059 117.76 435.811 117.672 436.323 117.496C436.835 117.336 437.187 117.056 437.379 116.656C437.587 116.272 437.707 115.72 437.739 115H435.675C434.155 115 432.947 114.56 432.051 113.68C431.171 112.784 430.731 111.536 430.731 109.936C430.731 108.8 430.939 107.792 431.355 106.912C431.787 106.032 432.371 105.352 433.107 104.872C433.859 104.376 434.707 104.128 435.651 104.128C436.675 104.128 437.571 104.368 438.339 104.848C439.123 105.328 439.723 106.008 440.139 106.888C440.571 107.768 440.787 108.784 440.787 109.936V111.544H442.107L442.299 113.296L442.107 115H440.787C440.723 116.872 440.147 118.376 439.059 119.512C437.971 120.648 436.307 121.216 434.067 121.216H431.211V117.76H434.067ZM433.659 109.768C433.659 110.424 433.819 110.912 434.139 111.232C434.459 111.536 434.971 111.688 435.675 111.688H437.739V109.864C437.739 108.2 437.043 107.368 435.651 107.368C434.995 107.368 434.499 107.592 434.163 108.04C433.827 108.488 433.659 109.064 433.659 109.768ZM452.681 113.632C452.361 114.032 451.929 114.36 451.385 114.616C450.841 114.872 450.249 115 449.609 115C449.065 115 448.489 114.872 447.881 114.616C447.289 114.344 446.865 114.016 446.609 113.632C446.321 114.032 445.897 114.36 445.337 114.616C444.793 114.872 444.177 115 443.489 115H441.857V111.544H443.609C444.169 111.544 444.569 111.432 444.809 111.208C445.065 110.984 445.193 110.608 445.193 110.08V106.96H448.241V110.032C448.241 111.04 448.729 111.544 449.705 111.544C450.697 111.544 451.193 111.04 451.193 110.032L451.169 106.96H454.217V110.032C454.217 111.008 454.705 111.512 455.681 111.544C456.145 111.528 456.497 111.4 456.737 111.16C456.977 110.92 457.097 110.544 457.097 110.032V106.96H460.145V110.08C460.145 110.608 460.265 110.984 460.505 111.208C460.745 111.432 461.153 111.544 461.729 111.544H463.481L463.625 113.296L463.481 115H461.849C461.145 115 460.521 114.872 459.977 114.616C459.433 114.36 459.017 114.032 458.729 113.632C458.457 114.016 458.025 114.344 457.433 114.616C456.841 114.872 456.265 115 455.705 115C454.521 115 453.513 114.544 452.681 113.632ZM463.232 111.544H467.168C468 111.544 468.64 111.512 469.088 111.448C469.552 111.384 469.904 111.264 470.144 111.088L468.608 110.848C467.232 110.592 466.192 110.096 465.488 109.36C464.8 108.624 464.456 107.536 464.456 106.096C464.456 105.088 464.656 104.2 465.056 103.432C465.472 102.648 466.024 102.048 466.712 101.632C467.416 101.216 468.192 101.008 469.04 101.008C469.952 101.008 470.752 101.216 471.44 101.632C472.144 102.048 472.688 102.64 473.072 103.408C473.456 104.176 473.648 105.072 473.648 106.096V107.992C473.648 110.104 473.152 111.8 472.16 113.08C471.168 114.36 469.504 115 467.168 115H463.232V111.544ZM467.36 106.072C467.36 106.472 467.48 106.8 467.72 107.056C467.96 107.296 468.36 107.48 468.92 107.608L470.768 108.088V106.072C470.768 105.528 470.624 105.08 470.336 104.728C470.064 104.376 469.64 104.2 469.064 104.2C468.504 104.2 468.08 104.376 467.792 104.728C467.504 105.08 467.36 105.528 467.36 106.072ZM467.48 96.52H470.672V99.64H467.48V96.52ZM479.372 117.592C480.364 117.592 481.116 117.504 481.628 117.328C482.14 117.168 482.492 116.888 482.684 116.488C482.892 116.104 483.012 115.552 483.044 114.832H480.98C479.46 114.832 478.252 114.392 477.356 113.512C476.476 112.616 476.036 111.368 476.036 109.768C476.036 108.632 476.244 107.624 476.66 106.744C477.092 105.848 477.676 105.16 478.412 104.68C479.164 104.2 480.012 103.96 480.956 103.96C481.98 103.96 482.876 104.2 483.644 104.68C484.428 105.16 485.028 105.84 485.444 106.72C485.876 107.6 486.092 108.616 486.092 109.768V114.472C486.092 116.456 485.548 118.048 484.46 119.248C483.388 120.448 481.692 121.048 479.372 121.048H476.516V117.592H479.372ZM478.964 109.6C478.964 110.256 479.124 110.744 479.444 111.064C479.764 111.368 480.276 111.52 480.98 111.52H483.044V109.696C483.044 108.032 482.348 107.2 480.956 107.2C480.3 107.2 479.804 107.424 479.468 107.872C479.132 108.32 478.964 108.896 478.964 109.6ZM495.448 106.96V110.44C495.448 110.856 495.552 111.144 495.76 111.304C495.984 111.464 496.336 111.544 496.816 111.544H497.272L497.416 113.296L497.272 115H496.816C496.288 115 495.824 114.872 495.424 114.616C495.264 116.664 494.592 118.248 493.408 119.368C492.224 120.488 490.592 121.048 488.512 121.048H487V117.592H488.512C489.52 117.592 490.296 117.472 490.84 117.232C491.4 117.008 491.792 116.616 492.016 116.056C492.256 115.512 492.376 114.736 492.376 113.728V106.96H495.448ZM497.052 111.544H500.7C502.012 111.544 502.668 111.112 502.668 110.248C502.668 109.656 502.46 108.28 502.044 106.12L504.9 105.4C505.444 107.752 505.716 109.432 505.716 110.44C505.716 111.24 505.54 111.984 505.188 112.672C504.836 113.36 504.3 113.92 503.58 114.352C502.86 114.784 501.988 115 500.964 115H497.052V111.544ZM497.82 116.872H500.676V119.752H497.82V116.872ZM500.172 120.472H502.884V123.208H500.172V120.472ZM502.356 116.872H505.236V119.752H502.356V116.872Z" fill="white"/>
</svg>