<?xml version="1.0" encoding="utf-8"?>
<!-- Generator: Adobe Illustrator 26.3.1, SVG Export Plug-In . SVG Version: 6.00 Build 0)  -->
<svg version="1.1" id="Layer_1" xmlns="http://www.w3.org/2000/svg" xmlns:xlink="http://www.w3.org/1999/xlink" x="0px" y="0px"
	 viewBox="0 0 841.89 595.28" style="enable-background:new 0 0 841.89 595.28;" xml:space="preserve">
<style type="text/css">
	.st0{fill:#F2DEBA;}
	.st1{fill:#811517;}
</style>
<path class="st0" d="M515.48,359.85c-0.02-1.27-0.04-2.53-0.06-3.8c0.08-1.88,0.1-3.79,0.06-5.73c-0.18-9.86-0.26-19.73-0.28-29.6
	c0.01-17.77,0.16-35.55,0.16-53.31v-9.53c0-21.78-0.02-43.56,0-65.34c0.02-9.36,0.04-43.13,0.07-52.49c0-0.32-0.01-0.63-0.02-0.91
	c0-2.87,0.01-5.75,0.02-8.62c0.01-3.23-0.74-4.93-3.95-6.29c-13.02-5.5-26.14-10.72-39.54-15.22
	c-46.69-15.7-94.5-22.27-143.65-17.17c-41.25,4.28-80.39,16.29-118.26,32.84c-3.21,1.41-2.79,3.62-2.79,6.04v7.38
	c-0.04,0.69,0,1.41,0,2.15c0,62.78,0.01,149.98-0.01,212.77v9.53c-0.01,6.01,0.43,11.97,1.56,17.87
	c4.22,21.96,16.88,38.35,34.06,51.77c17.83,13.93,38.13,23.66,58.01,34.08c6.5,3.41,12.96,6.87,19.25,10.58
	c0.18,0.1,0.37,0.21,0.55,0.32c3.6,2.13,7.14,4.36,10.59,6.71c0.19,0.12,0.38,0.25,0.57,0.38c3.75,2.56,7.39,5.26,10.88,8.16
	c0.19,0.16,0.39,0.32,0.58,0.48c1.41,1.19,2.8,2.4,4.15,3.66c0.04,0.03,0.07,0.07,0.11,0.1c4.11,3.8,7.98,7.92,11.54,12.46
	c1.81,2.31,2.93,1.74,4.55-0.18c4.82-5.74,9.92-11.22,15.64-16.07c0.19-0.17,0.38-0.33,0.57-0.49c0.96-0.81,1.94-1.6,2.94-2.37
	c2.65-2.04,5.36-3.99,8.12-5.85c0.18-0.13,0.37-0.25,0.56-0.38c12.51-8.41,25.96-15.25,39.34-22.2
	c17.27-8.98,34.57-17.9,49.93-30.08C503.83,413.18,516.04,389.87,515.48,359.85z M476.28,421.91
	c-14.75,12.17-31.57,20.92-48.4,29.67c-8.72,4.53-17.48,8.99-26.03,13.82c-0.18,0.1-0.37,0.21-0.55,0.32
	c-3.35,1.9-6.67,3.86-9.94,5.91l-0.57,0.36c-2.98,1.86-5.9,3.8-8.79,5.83c-0.72,0.51-1.44,1.03-2.16,1.55l-0.57,0.42
	c-3.87,2.86-7.59,5.9-11.08,9.19c-0.08,0.08-0.16,0.15-0.24,0.23c-0.15,0.13-0.29,0.27-0.43,0.42c-0.19,0.18-0.38,0.37-0.57,0.56
	c-1.19,1.14-2.35,2.33-3.48,3.55c-1.54,1.69-2.38,2.13-4.2,0.19c-0.36-0.39-0.73-0.77-1.1-1.15c-0.03-0.03-0.06-0.07-0.1-0.1
	c-0.63-0.67-1.27-1.31-1.93-1.95c-0.19-0.19-0.38-0.37-0.57-0.55c-3.91-3.8-8.06-7.26-12.37-10.47c-0.19-0.14-0.38-0.28-0.57-0.42
	c-3.49-2.57-7.09-5-10.77-7.3c-0.19-0.12-0.38-0.24-0.57-0.35c-3.47-2.18-7-4.25-10.57-6.25c-0.19-0.11-0.39-0.22-0.58-0.32
	c-4.09-2.3-8.23-4.51-12.37-6.71c-18.06-9.59-36.63-18.29-53.33-30.26c-16.04-11.5-29.25-25.2-34.52-44.98
	c-1.72-6.47-2.54-13.05-2.54-19.75v-9.53c0-61,0-122.02-0.03-183.03c0.01-2.53,0.23-4.29,3.21-5.56
	c50.13-21.32,102.05-33.36,156.85-30.51c43.55,2.27,84.89,13.64,124.87,30.61c2.53,1.07,2.89,2.56,2.94,4.53v0.4
	c-0.01,15.86-0.02,31.71-0.02,47.57c0.01,14.11,0.01,28.21,0.01,42.32v1.17c-0.01,19.78-0.13,39.56-0.1,59.35
	c-0.02,11.58,0.01,23.17,0.14,34.76c0.01,1.73,0.03,3.47,0.05,5.2C505.63,386,495.57,406.01,476.28,421.91z"/>
<path class="st1" d="M366.88,379.7l-11.41,0.01c0,0-0.04,0.98-0.02,4.14c0.12,24.84,0.12,49.66,0.13,74.5
	c0.01,7.44,0.03,14.89,0.01,22.33c0.19,0.18,0.38,0.36,0.57,0.55c1.05,1.03,2.09,2.09,3.1,3.17c1.82,1.94,2.66,1.5,4.2-0.19
	c1.12-1.21,2.27-2.39,3.44-3.52v-0.49c-0.02-12.69,0.03-25.38,0.03-38.08h-0.02C366.91,423.68,366.88,379.7,366.88,379.7z"/>
<path class="st1" d="M390.63,386.42c0-4.23,0-6.71,0-6.71l-11.46,0c0,0-0.04,0.43,0.02,4.83c0.01,0.64,0.02,1.26,0.02,1.9v0.07
	c0.08,5.03,0.12,10.06,0.13,15.1v0.58c0.05,13.04-0.03,26.08-0.03,39.12h-0.05v28.96c0.19-0.15,0.38-0.29,0.57-0.43
	c0.54-0.39,1.08-0.78,1.63-1.17c0.17-0.13,0.35-0.25,0.53-0.38c2.88-2.02,5.79-3.95,8.76-5.81v-0.29
	c-0.08-25.68-0.11-61.05-0.12-75.7V386.42z"/>
<path class="st1" d="M331.28,379.71c0,0,0,2.54,0.01,6.93v0.07c0.02,13.95,0.05,46.4,0.01,75.63c0.19,0.11,0.38,0.23,0.57,0.35
	c3.19,2,6.32,4.08,9.37,6.28c0.46,0.33,0.92,0.66,1.37,1.01c0-9.55,0.04-19.09,0.04-28.64c-0.01-12.96-0.08-25.92-0.03-38.88v-0.48
	c0.01-5.09,0.04-10.17,0.1-15.25v-0.07c0.01-0.85,0.02-1.69,0.03-2.54c0.06-4.21,0.04-4.41,0.04-4.41H331.28z"/>
<path class="st1" d="M402.5,363.65h-34.37h-13.6h-35.27c1.5,3.54,2.13,6.63,6.54,6.6c9.12-0.06,18.69-0.07,28.17-0.05h0.57
	c4.38,0,8.73,0.02,13,0.04h0.57c9.25,0.03,18.13,0.09,26.13,0.15C399.16,370.42,401.22,368.42,402.5,363.65z"/>
<path class="st1" d="M361.76,332.95l-0.01-0.02v-33.91h-1.08v9.82h-4.49c-0.33,0-0.6,0.27-0.6,0.6v0.34c0,0.33,0.27,0.6,0.6,0.6
	h4.49v22.57H361.76z M361.76,332.95l-0.01-0.02v-33.91h-1.08v9.82h-4.49c-0.33,0-0.6,0.27-0.6,0.6v0.34c0,0.33,0.27,0.6,0.6,0.6
	h4.49v22.57H361.76z M361.76,332.95l-0.01-0.02v-33.91h-1.08v9.82h-4.49c-0.33,0-0.6,0.27-0.6,0.6v0.34c0,0.33,0.27,0.6,0.6,0.6
	h4.49v22.57H361.76z M365.69,307.78v16.87h1.15v-16.87H365.69z M365.69,307.78v16.87h1.15v-16.87H365.69z M361.76,332.95l-0.01-0.02
	v-33.91h-1.08v9.82h-4.49c-0.33,0-0.6,0.27-0.6,0.6v0.34c0,0.33,0.27,0.6,0.6,0.6h4.49v22.57H361.76z M361.76,332.95l-0.01-0.02
	v-33.91h-1.08v9.82h-4.49c-0.33,0-0.6,0.27-0.6,0.6v0.34c0,0.33,0.27,0.6,0.6,0.6h4.49v22.57H361.76z M365.69,307.78v16.87h1.15
	v-16.87H365.69z M365.69,307.78v16.87h1.15v-16.87H365.69z M361.75,299.02h-1.08v9.82h-4.49c-0.33,0-0.6,0.27-0.6,0.6v0.34
	c0,0.33,0.27,0.6,0.6,0.6h4.49v22.57h1.09l-0.01-0.02V299.02z M497.44,286.57c0-36.98-0.02-73.97,0.04-110.95
	c0.01-2.55-0.36-4.14-3.14-5.29c-35.03-14.4-72.48-24.74-111.42-27.58c-53.78-3.9-104.91,7.15-154.4,27.49
	c-2.54,1.04-3.45,2.29-3.44,5.09c0.09,63.47,0.04,126.95,0.12,190.42c0.01,13.77,4.31,26.25,12.99,36.98
	c4.74,5.86,10.02,10.92,15.7,15.44c0.18,0.14,0.37,0.27,0.55,0.4c14.09,10.1,29.51,17.87,44.83,25.81c2.84,1.48,5.68,2.95,8.5,4.45
	c1.85,0.98,3.69,1.96,5.53,2.95c2.25,1.22,4.49,2.44,6.72,3.68c-0.08-7.67-0.11-15.33-0.07-22.97c0.06-10.73,0.14-21.46-0.74-32.15
	v-0.01c-0.16-1.97-0.36-3.92-0.59-5.88c-0.31-2.6-0.66-5.29-1.1-8c0-0.02-0.01-0.05-0.01-0.07c-1.6-9.97-4.37-20.27-10.62-27.95
	c-3.11-3.82-7.08-6.79-10.93-9.82c0,0,15.71-0.01,34.51-0.01h24.12c4.47-0.01,8.82-0.01,12.9-0.01h13.81
	c2.92,0,6.67,0.01,10.74,0.01c14.69,0.03,33.64,0.09,33.64,0.09c-4.89,4.27-9.81,7.26-13.28,12.91c-3.16,5.13-5.26,10.85-6.8,16.66
	c-0.62,2.33-1.15,4.68-1.61,7.04c-0.07,0.36-0.14,0.71-0.2,1.08c0,0.02-0.01,0.05-0.01,0.07c-0.84,4.57-1.43,9.2-1.84,13.85v0.05
	c-0.89,9.76-1.04,19.62-1.26,29.35c-0.21,8.83-0.19,17.67,0.14,26.5c0,0.08,0.01,0.17,0.01,0.25c0.19-0.11,0.37-0.21,0.56-0.32
	c2.58-1.46,5.18-2.89,7.79-4.3c4.68-2.52,9.41-4.97,14.14-7.42c1.52-0.78,3.04-1.57,4.56-2.36c13.93-7.24,27.86-14.49,40.61-23.68
	c1.34-1.04,2.66-2.12,3.97-3.22c16.92-14.26,25.6-32.09,25.1-54.61C497.02,335.89,497.43,311.23,497.44,286.57z M356.4,169.14
	c2.17-3.75,7.59-3.75,9.75,0.01c3.7,6.42,7.34,12.72,11.09,19.22c-4.85,0-9.23,0.08-13.61-0.05c-1.64-0.04-2.62,0.42-3.41,1.88
	c-2.13,3.93-4.4,7.77-6.84,12.04c6.08,0,22.78-0.02,25.44,0c5.28,0.05,7.3,1.3,9.83,5.72c1.45,2.54,2.86,5.14,4.45,7.93h-63.68
	C338.45,200.25,347.36,184.8,356.4,169.14z M475.83,375.18c-2.04,8.17-7.43,15.44-14.65,19.77c-11.76,7.05-28.11,6.06-37.73-3.99
	c-0.22-0.21-0.42-0.42-0.61-0.64c-0.08-0.07-0.15-0.15-0.21-0.22c-0.95-1.08-1.81-2.23-2.56-3.45c-0.04-0.06-0.08-0.12-0.12-0.19
	c-0.51-0.82-0.98-1.68-1.4-2.55c-4.12-8.66-4.06-20.79,7.5-29.99c5.49-4.36,15.71-5.69,21.69-2.52c5.3,2.81,9.2,8.14,10.2,14.08
	c0.68,4-0.06,8.28-2.29,11.68c-2.22,3.4-5.97,5.82-10.01,6.19c-4.05,0.37-8.29-1.43-10.62-4.76c-0.99-1.41-1.85-3.05-2.36-4.71
	c-0.27-0.9-0.67-2.31-0.67-2.31l7.6-2.86c0,0,1.51,4.22,3.12,4.79c2.12,0.75,4.01,0.21,5.12-0.66c1.26-0.99,1.53-2.35,1.44-4.15
	c-0.22-4.18-3.38-8.15-7.4-9.33s-8.54,0.16-11.65,2.97c-4.8,4.34-6.59,11.62-3.8,17.52c2.34,4.97,7.26,8.36,12.42,9.87
	c3.65,1.07,7.61,1.28,11.3,0.27c1.05-0.28,2.08-0.65,3.08-1.09c9.67-4.34,15.63-16.66,12.77-26.46
	c-3.87-13.29-12.92-20.12-27.27-20.17h-0.61c-15.33-0.03-30.67-0.04-46-0.05c-20.57-0.01-41.14-0.01-61.71-0.04
	c-15.46-0.01-48.97,0.05-48.97,0.05c-13.25-0.03-27.87,12.25-25.33,29.06c1.86,12.31,13.07,21.09,25.55,19
	c0.66-0.11,1.32-0.26,1.97-0.43c3.97-1.07,7.65-3.41,10.06-6.75c5.7-7.89,3.33-20-6.27-23.5c-3.49-1.27-7.65-0.91-10.62,1.33
	c-2.98,2.23-4.5,6.39-3.27,9.9c0.34,0.98,0.89,1.91,1.7,2.54c1.91,1.48,4.35,0.34,5.58-1.4c0.95-1.34,1.37-2.33,1.52-2.52
	c0.03-0.04,0.07-0.06,0.11-0.04l7.56,2.67c0.06,0.02,0.08,0.07,0.09,0.13c0.05,0.37-0.25,1.49-0.42,2.08
	c-1.76,5.94-8.25,9.68-14.34,8.73c-3.9-0.61-7.46-3.14-9.32-6.63c-1.21-2.29-1.7-4.89-1.72-7.49c-0.06-6.89,3.39-13.31,9.37-16.74
	c6.54-3.75,14.05-3.04,20.27,0.59c0.93,0.54,1.83,1.15,2.7,1.8c7.56,5.63,10.44,13.36,9.08,22.13c-0.56,3.6-1.64,6.87-3.25,9.76
	h-0.01v0.01c-0.92,1.65-2.02,3.16-3.31,4.53c0,0,0,0,0,0.01c-0.19,0.2-0.38,0.4-0.57,0.59c-2.6,2.6-5.9,4.65-9.92,6.04
	c-10.45,3.6-20.23,1.81-29.55-3.66c-17-12.59-15.91-34.4-7.42-45.38c7.47-9.67,17.18-15.57,29.67-15.79
	c1.97-0.03,34.46,0.08,58.26,0.13c4.39,0.01,8.48,0.02,12.04,0.03l-0.02-8.8l4.51,0.02c0.33,0,0.6-0.27,0.6-0.6v-0.23
	c0-0.33-0.27-0.6-0.6-0.6h-4.49v-20.67c0-1.71-1.39-3.1-3.11-3.11c-1.96,0-3.85-0.01-5.68-0.02c-0.47,0-0.88,0.02-1.23,0.07
	c-15.41,0.02-24.24,0.01-42.94,0.01h-7.5c-4.33,0-7.04-4.69-4.88-8.44c0.91-1.57,1.8-3.13,2.69-4.69c0.66-1.17,1.7-0.8,2.63-0.8
	c26.4-0.02,52.8-0.01,79.2-0.01h46.23c-2.66-4.58-5.12-8.89-7.67-13.15c-0.62-1.03-1.83-0.52-2.76-0.52
	c-31.72-0.02-63.43-0.01-95.15-0.01h-14.08c3.28-5.72,6.3-11.01,9.35-16.29c4.45-7.72,8.95-15.41,13.34-23.16
	c0.84-1.47,1.68-2.17,3.53-2.17c25.14,0.08,50.28,0.07,75.42,0.03c1.5-0.01,2.45,0.32,3.21,1.74c1.82,3.42,3.74,6.79,5.81,10.05
	c1.4,2.21,0.31,2.19-1.46,2.18c-9.55-0.05-19.1-0.02-28.66-0.03c-15.49,0-30.99,0.02-46.49-0.05c-1.57,0-2.42,0.47-3.17,1.84
	c-2.1,3.86-4.35,7.64-6.54,11.43c0.63,0.85,1.4,0.45,2.04,0.45c30.09,0.02,60.19,0.05,90.28-0.03c2.24-0.01,3.48,0.57,4.63,2.59
	c6.99,12.38,10.28,18.23,17.39,30.54c0.01,0.01,0.01,0.01,0.01,0.02c2.17,3.76-0.52,8.46-4.86,8.46h-10.48
	c-13.3,0-30.44,0.03-46.86,0.02c-1.71,0-3.1,1.39-3.1,3.11v30.8c11.48-0.01,22.63-0.03,27.36-0.06c11.59-0.08,39.92-0.04,42.19-0.08
	c13.34-0.21,25.88,7.53,32.47,19.06c2.75,4.83,4.08,10.52,3.97,16.13C476.73,370.43,476.41,372.85,475.83,375.18z M365.69,324.65
	h1.15v-16.87h-1.15V324.65z M361.75,299.02h-1.08v9.82h-4.49c-0.33,0-0.6,0.27-0.6,0.6v0.34c0,0.33,0.27,0.6,0.6,0.6h4.49v22.57
	h1.09l-0.01-0.02V299.02z M361.76,332.95l-0.01-0.02v-33.91h-1.08v9.82h-4.49c-0.33,0-0.6,0.27-0.6,0.6v0.34
	c0,0.33,0.27,0.6,0.6,0.6h4.49v22.57H361.76z M365.69,307.78v16.87h1.15v-16.87H365.69z M365.69,307.78v16.87h1.15v-16.87H365.69z
	 M361.76,332.95l-0.01-0.02v-33.91h-1.08v9.82h-4.49c-0.33,0-0.6,0.27-0.6,0.6v0.34c0,0.33,0.27,0.6,0.6,0.6h4.49v22.57H361.76z
	 M365.69,307.78v16.87h1.15v-16.87H365.69z M365.69,307.78v16.87h1.15v-16.87H365.69z"/>
<g>
	<path class="st1" d="M244.5,138.15c0,0.48,0,0.72,0,1.2c0,2.91-0.78,5.42-2.33,7.53c-1.56,2.11-3.81,3.73-6.76,4.91
		c-3,1.2-5.26,1.35-6.79,0.42c-1.53-0.93-2.3-2.92-2.3-5.99c0-4.24,0-6.37,0-10.61c0-3.34,0.67-6.15,2.01-8.41
		c1.34-2.26,3.35-3.95,6.03-5.03c1.14-0.46,2.17-0.69,3.1-0.7c0.93-0.01,1.72,0.21,2.36,0.67c0-0.63,0-0.94,0-1.57
		c1.65-0.63,2.48-0.95,4.14-1.56c0,3.48,0,5.22,0,8.7c-1.79,0.66-2.69,1-4.47,1.68c-0.02-0.3-0.03-0.45-0.05-0.75
		c-0.11-1.44-0.46-2.41-1.06-2.91c-0.59-0.5-1.45-0.53-2.56-0.09c-1.31,0.52-2.28,1.28-2.9,2.28c-0.62,0.99-0.93,2.28-0.93,3.85
		c0,5.1,0,7.65,0,12.74c0,1.57,0.31,2.6,0.92,3.07c0.62,0.47,1.58,0.44,2.91-0.08c1.28-0.51,2.24-1.27,2.88-2.28
		c0.64-1.02,0.96-2.28,0.96-3.8c0-0.58,0-0.87,0-1.45C241.6,139.22,242.56,138.86,244.5,138.15z"/>
	<path class="st1" d="M247.36,146.67c0-3.61,0-5.42,0-9.03c1.7-0.61,2.56-0.9,4.27-1.49c0.16,1.71,0.67,2.91,1.54,3.6
		c0.87,0.69,2,0.8,3.38,0.35c1.05-0.34,1.89-0.88,2.52-1.63c0.63-0.75,0.94-1.59,0.94-2.51c0-0.7-0.21-1.31-0.63-1.82
		c-0.42-0.51-1.1-0.98-2.04-1.41c-2.31-1.04-3.46-1.55-5.76-2.54c-1.38-0.58-2.41-1.37-3.09-2.4c-0.69-1.02-1.03-2.26-1.03-3.73
		c0-1.98,0.69-3.86,2.06-5.64c1.37-1.78,3.12-3.03,5.23-3.72c1.05-0.35,2.04-0.47,2.98-0.38c0.94,0.09,1.82,0.39,2.65,0.89
		c0-0.71,0-1.07,0-1.78c1.63-0.51,2.44-0.75,4.07-1.24c0,3.14,0,4.71,0,7.85c-1.65,0.49-2.47,0.74-4.12,1.26
		c-0.24-1.31-0.76-2.23-1.56-2.77c-0.8-0.54-1.77-0.63-2.9-0.26c-0.89,0.29-1.65,0.82-2.27,1.58c-0.63,0.76-0.94,1.54-0.94,2.33
		c0,0.59,0.2,1.12,0.59,1.59c0.4,0.47,0.98,0.86,1.74,1.19c2.46,1.11,3.69,1.68,6.16,2.84c1.56,0.71,2.68,1.56,3.36,2.55
		c0.68,0.99,1.02,2.24,1.02,3.75c0,2.13-0.76,4.09-2.29,5.89c-1.52,1.81-3.47,3.08-5.84,3.84c-1.22,0.39-2.34,0.53-3.33,0.41
		c-1-0.12-1.93-0.52-2.8-1.19c0,0.9,0,1.36,0,2.26C249.69,145.85,248.91,146.12,247.36,146.67z"/>
	<path class="st1" d="M269.38,126.5c0-6.06,0-9.09,0-15.15c4.98-1.4,7.49-2.06,12.51-3.27c0,1.54,0,2.31,0,3.85
		c-3.22,0.78-4.82,1.18-8.03,2.04c0,2.87,0,4.3,0,7.17c0.42-0.36,0.88-0.67,1.4-0.93c0.51-0.26,1.1-0.47,1.76-0.64
		c2.26-0.58,3.94-0.21,5.05,1.09c1.11,1.29,1.66,3.53,1.66,6.71c0,3.23-0.64,5.72-1.9,7.47c-1.27,1.75-3.3,2.97-6.08,3.69
		c-2.46,0.64-4.37,0.59-5.74-0.2c-1.36-0.79-2.04-2.22-2.04-4.3c0-0.71,0-1.07,0-1.78c1.85-0.53,2.77-0.79,4.62-1.29
		c0,0.46,0,0.68,0,1.14c0,1.17,0.25,1.99,0.76,2.46c0.51,0.46,1.24,0.57,2.21,0.32c1.09-0.29,1.87-0.78,2.33-1.48
		c0.46-0.7,0.69-1.78,0.69-3.23c0-1.31,0-1.96,0-3.27c0-1.55-0.22-2.58-0.65-3.11c-0.43-0.52-1.16-0.66-2.17-0.39
		c-0.52,0.13-0.98,0.37-1.4,0.71c-0.42,0.34-0.79,0.79-1.11,1.34C271.69,125.85,270.92,126.06,269.38,126.5z"/>
	<path class="st1" d="M303.3,111.73c0,4.86,0,7.28,0,12.14c0,2.82-0.69,5.08-2.07,6.81c-1.38,1.73-3.38,2.83-6,3.36
		c-2.6,0.52-4.58,0.21-5.93-0.97c-1.35-1.18-2.03-3.17-2.03-6c0-4.86,0-7.28,0-12.14c0-2.83,0.68-5.14,2.03-6.92
		c1.35-1.78,3.33-2.95,5.93-3.46c2.62-0.52,4.62-0.15,6,1.1C302.61,106.88,303.3,108.92,303.3,111.73z M297.95,110.85
		c0-0.97-0.24-1.69-0.73-2.16c-0.49-0.47-1.15-0.63-1.98-0.46c-0.81,0.16-1.46,0.57-1.93,1.23c-0.47,0.66-0.71,1.48-0.71,2.46
		c0,6.35,0,9.52,0,15.87c0,0.98,0.23,1.69,0.69,2.14c0.46,0.44,1.11,0.58,1.94,0.42c0.85-0.17,1.51-0.57,1.99-1.21
		c0.48-0.64,0.72-1.44,0.72-2.41C297.95,120.37,297.95,117.2,297.95,110.85z"/>
	<path class="st1" d="M305.41,113.03c2.58-0.43,3.87-0.64,6.45-1.02c0,1.04,0,1.55,0,2.59c0.98,1.16,1.47,1.75,2.46,2.92
		c1.02-1.45,1.53-2.18,2.56-3.62c0-1.04,0-1.55,0-2.59c2.2-0.29,3.31-0.43,5.51-0.69c0,1.36,0,2.04,0,3.4
		c-0.59,0.07-0.89,0.1-1.48,0.18c-1.71,2.35-2.57,3.52-4.28,5.89c1.92,2.3,2.88,3.46,4.8,5.79c0.52-0.06,0.78-0.09,1.31-0.15
		c0,1.36,0,2.04,0,3.4c-2.56,0.3-3.84,0.46-6.4,0.8c0-1.12,0-1.68,0-2.8c-1.09-1.28-1.64-1.92-2.73-3.18
		c-1.12,1.59-1.68,2.38-2.8,3.98c0,1.12,0,1.68,0,2.8c-2.22,0.34-3.33,0.51-5.54,0.89c0-1.36,0-2.04,0-3.4
		c0.52-0.09,0.78-0.13,1.3-0.22c1.91-2.65,2.87-3.97,4.78-6.6c-1.77-2.1-2.65-3.14-4.42-5.21c-0.61,0.1-0.91,0.15-1.52,0.25
		C305.41,115.07,305.41,114.39,305.41,113.03z"/>
	<path class="st1" d="M334.65,127.95c0-3.61,0-5.42,0-9.03c1.78-0.14,2.67-0.21,4.45-0.33c0.16,1.76,0.7,3.1,1.61,4.02
		c0.91,0.92,2.08,1.34,3.51,1.27c1.09-0.06,1.96-0.37,2.61-0.96c0.65-0.58,0.98-1.33,0.98-2.26c0-0.7-0.22-1.37-0.66-1.99
		s-1.14-1.28-2.12-1.96c-2.39-1.66-3.59-2.48-5.98-4.1c-1.43-0.95-2.51-2.03-3.23-3.24c-0.72-1.21-1.07-2.54-1.07-4.01
		c0-1.98,0.72-3.67,2.15-5.08c1.43-1.4,3.25-2.18,5.44-2.31c1.09-0.06,2.12,0.08,3.09,0.43c0.97,0.35,1.89,0.88,2.75,1.61
		c0-0.71,0-1.07,0-1.78c1.68-0.07,2.52-0.1,4.21-0.15c0,3.14,0,4.71,0,7.85c-1.7,0.05-2.55,0.08-4.26,0.15
		c-0.25-1.37-0.79-2.44-1.62-3.19c-0.83-0.76-1.83-1.1-3.01-1.04c-0.92,0.05-1.71,0.37-2.36,0.97c-0.65,0.59-0.98,1.28-0.98,2.07
		c0,0.59,0.21,1.18,0.62,1.75c0.41,0.58,1.01,1.13,1.81,1.66c2.55,1.78,3.83,2.68,6.38,4.5c1.62,1.13,2.78,2.28,3.48,3.46
		c0.7,1.18,1.05,2.52,1.05,4.02c0,2.13-0.79,3.88-2.36,5.28c-1.58,1.4-3.59,2.14-6.05,2.27c-1.27,0.06-2.42-0.1-3.46-0.49
		c-1.04-0.39-2.01-1.04-2.92-1.95c0,0.9,0,1.36,0,2.26C337.08,127.76,336.27,127.82,334.65,127.95z"/>
	<path class="st1" d="M355.6,98c4.6-0.09,6.91-0.09,11.51-0.03c0,1.5,0,2.25,0,3.75c-1.07-0.02-1.6-0.02-2.67-0.03
		c0,3.1,0,4.65,0,7.75c3.1,0.02,4.65,0.05,7.75,0.14c0-3.1,0-4.65,0-7.75c-1.08-0.03-1.62-0.05-2.7-0.07c0-1.5,0-2.25,0-3.75
		c4.6,0.1,6.91,0.19,11.51,0.44c0,1.5,0,2.25,0,3.75c-1.13-0.06-1.69-0.09-2.82-0.14c0,8.57,0,12.85,0,21.42
		c1.13,0.05,1.69,0.08,2.82,0.14c0,1.49,0,2.24,0,3.73c-4.6-0.25-6.9-0.34-11.51-0.44c0-1.49,0-2.24,0-3.73
		c1.08,0.02,1.62,0.04,2.7,0.07c0-3.8,0-5.71,0-9.51c-3.1-0.09-4.65-0.12-7.75-0.14c0,3.8,0,5.71,0,9.51
		c1.07,0.01,1.6,0.01,2.67,0.03c0,1.49,0,2.24,0,3.73c-4.61-0.07-6.91-0.06-11.51,0.02c0-1.49,0-2.24,0-3.73
		c1.14-0.02,1.71-0.03,2.85-0.04c0-8.57,0-12.85,0-21.42c-1.14,0.01-1.71,0.02-2.85,0.04C355.6,100.25,355.6,99.5,355.6,98z"/>
	<path class="st1" d="M383.57,127.52c0-1.49,0-2.24,0-3.73c1.14,0.07,1.71,0.11,2.84,0.19c0-8.57,0-12.85,0-21.42
		c-1.14-0.08-1.71-0.12-2.84-0.19c0-1.5,0-2.25,0-3.75c4.68,0.29,7.01,0.48,11.68,0.94c0,1.5,0,2.25,0,3.75
		c-1.14-0.11-1.72-0.16-2.86-0.27c0,8.57,0,12.85,0,21.42c1.15,0.1,1.72,0.16,2.86,0.27c0,1.49,0,2.24,0,3.73
		C390.58,128,388.25,127.81,383.57,127.52z"/>
	<path class="st1" d="M397.77,128.71c0-1.49,0-2.24,0-3.73c1.13,0.12,1.7,0.18,2.83,0.31c0-8.57,0-12.85,0-21.42
		c-1.13-0.13-1.7-0.19-2.83-0.31c0-1.5,0-2.25,0-3.75c4.87,0.51,7.31,0.81,12.16,1.5c3.69,0.52,6.26,1.43,7.73,2.65
		c1.47,1.22,2.2,3.03,2.2,5.4c0,0.76,0,1.14,0,1.91c0,1.75-0.43,2.97-1.3,3.64c-0.87,0.68-2.35,0.97-4.46,0.89
		c2.16,0.57,3.66,1.27,4.5,2.08c0.84,0.81,1.26,1.94,1.26,3.39c0,2.7,0,4.05,0,6.75c1.13,0.19,1.69,0.29,2.81,0.49
		c0,1.49,0,2.24,0,3.73c-3.42-0.62-5.14-0.9-8.58-1.43c0-4.11,0-6.17,0-10.28c0-1.19-0.31-2.04-0.93-2.56
		c-0.62-0.52-1.82-0.91-3.61-1.16c-1.2-0.17-1.8-0.25-3-0.41c0,3.84,0,5.76,0,9.59c1.06,0.14,1.59,0.21,2.66,0.36
		c0,1.49,0,2.24,0,3.73C404.64,129.47,402.35,129.19,397.77,128.71z M406.56,112.82c1.35,0.18,2.02,0.27,3.37,0.46
		c1.46,0.21,2.52,0.13,3.18-0.24c0.66-0.37,0.99-1.08,0.99-2.13c0-0.99,0-1.49,0-2.49c0-1.06-0.32-1.85-0.96-2.35
		c-0.64-0.5-1.85-0.89-3.64-1.14c-1.18-0.17-1.77-0.25-2.95-0.4C406.56,107.84,406.56,109.5,406.56,112.82z"/>
	<path class="st1" d="M424.81,132.64c0-1.49,0-2.24,0-3.73c0.87,0.16,1.31,0.24,2.17,0.41c2.68-8.05,4.01-12.06,6.68-20.06
		c-1.18-0.25-1.77-0.38-2.95-0.62c0-1.5,0-2.25,0-3.75c5.71,1.17,8.56,1.82,14.23,3.23c0,1.5,0,2.25,0,3.75
		c-1.17-0.29-1.76-0.44-2.93-0.72c2.62,9.2,3.92,13.81,6.53,23.06c0.79,0.21,1.19,0.31,1.98,0.52c0,1.49,0,2.24,0,3.73
		c-4.24-1.14-6.37-1.67-10.64-2.67c0-1.49,0-2.24,0-3.73c1.19,0.28,1.79,0.42,2.98,0.71c-0.53-2.07-0.8-3.1-1.33-5.17
		c-3.22-0.77-4.83-1.13-8.07-1.82c-0.56,1.82-0.85,2.73-1.41,4.55c1.16,0.24,1.74,0.37,2.9,0.62c0,1.49,0,2.24,0,3.73
		C430.9,133.81,428.87,133.4,424.81,132.64z M434.37,122.78c2.53,0.55,3.79,0.83,6.32,1.43c-1.23-5-1.85-7.49-3.08-12.48
		C436.31,116.14,435.66,118.35,434.37,122.78z"/>
	<path class="st1" d="M452.21,138.93c0-1.6,0-2.4,0-4c5.37-7.02,8.04-10.47,13.36-17.27c-3.34-1.06-5.02-1.57-8.38-2.54
		c0,1.82,0,2.73,0,4.56c-1.89-0.55-2.84-0.81-4.74-1.34c0-3.3,0-4.95,0-8.25c7.58,2.08,11.35,3.23,18.84,5.75c0,1.52,0,2.27,0,3.79
		c-5.35,6.77-8.04,10.2-13.45,17.2c3.46,1.01,5.18,1.54,8.61,2.64c0-2.22,0-3.33,0-5.55c1.9,0.61,2.85,0.92,4.74,1.56
		c0,3.7,0,5.54,0,9.24C463.66,142.18,459.86,141.02,452.21,138.93z"/>
	<path class="st1" d="M476.53,139.27c0-7.14,0-10.72,0-17.86c-1.09-0.39-1.63-0.58-2.72-0.95c0-1.5,0-2.25,0-3.75
		c4.41,1.53,6.61,2.33,10.98,4.01c0,1.5,0,2.25,0,3.75c-1.02-0.39-1.52-0.58-2.54-0.97c0,7.04,0,10.55,0,17.59
		c0,1.41,0.29,2.54,0.88,3.41s1.53,1.54,2.81,2.04c1.27,0.49,2.19,0.54,2.78,0.13s0.88-1.32,0.88-2.73c0-7.04,0-10.55,0-17.59
		c-1.02-0.41-1.53-0.61-2.55-1.01c0-1.5,0-2.25,0-3.75c4.36,1.71,6.53,2.61,10.85,4.47c0,1.5,0,2.25,0,3.75
		c-1.06-0.46-1.59-0.68-2.65-1.13c0,7.14,0,10.72,0,17.86c0,2.57-0.79,4.19-2.36,4.89c-1.58,0.69-3.89,0.42-6.94-0.76
		c-3.05-1.19-5.39-2.72-6.99-4.65C477.34,144.08,476.53,141.84,476.53,139.27z"/>
</g>
</svg>
